<mxfile host="65bd71144e">
    <diagram id="b0lUlxLJ4gMpwp6lKtfW" name="Page-1">
        <mxGraphModel dx="2022" dy="882" grid="0" gridSize="10" guides="0" tooltips="1" connect="1" arrows="1" fold="1" page="0" pageScale="1" pageWidth="827" pageHeight="1169" background="#000000" math="0" shadow="0">
            <root>
                <mxCell id="0"/>
                <mxCell id="1" parent="0"/>
                <mxCell id="86" style="edgeStyle=orthogonalEdgeStyle;curved=1;html=1;dashed=1;fontColor=#000000;strokeColor=#FFCC99;fillColor=#ffcc99;" parent="1" source="85" target="79" edge="1">
                    <mxGeometry relative="1" as="geometry"/>
                </mxCell>
                <mxCell id="85" value="" style="ellipse;shape=cloud;whiteSpace=wrap;html=1;strokeColor=#36393d;strokeWidth=1;fillColor=#eeeeee;" parent="1" vertex="1">
                    <mxGeometry x="720" y="540" width="120" height="80" as="geometry"/>
                </mxCell>
                <mxCell id="80" style="edgeStyle=orthogonalEdgeStyle;curved=1;html=1;fontColor=#000000;dashed=1;strokeColor=#3399FF;entryX=0.5;entryY=1;entryDx=0;entryDy=0;" parent="1" source="79" target="55" edge="1">
                    <mxGeometry relative="1" as="geometry">
                        <mxPoint x="350" y="660.0000000000002" as="targetPoint"/>
                    </mxGeometry>
                </mxCell>
                <mxCell id="81" style="edgeStyle=orthogonalEdgeStyle;curved=1;html=1;entryX=0.5;entryY=1;entryDx=0;entryDy=0;dashed=1;fontColor=#000000;strokeColor=#3399FF;" parent="1" source="79" target="18" edge="1">
                    <mxGeometry relative="1" as="geometry"/>
                </mxCell>
                <mxCell id="82" style="edgeStyle=orthogonalEdgeStyle;curved=1;html=1;dashed=1;fontColor=#000000;strokeColor=#3399FF;" parent="1" source="79" target="22" edge="1">
                    <mxGeometry relative="1" as="geometry"/>
                </mxCell>
                <mxCell id="79" value="" style="shape=trapezoid;perimeter=trapezoidPerimeter;whiteSpace=wrap;html=1;fixedSize=1;fontColor=#000000;strokeColor=default;strokeWidth=1;fillColor=#FFFFFF;" parent="1" vertex="1">
                    <mxGeometry x="460" y="550" width="120" height="60" as="geometry"/>
                </mxCell>
                <mxCell id="55" value="&lt;font color=&quot;#000000&quot;&gt;Proxy&lt;/font&gt;" style="rounded=1;whiteSpace=wrap;html=1;strokeWidth=0;fillColor=#F2F2F2;align=center;verticalAlign=top;" parent="1" vertex="1">
                    <mxGeometry x="320" y="358" width="60" height="90" as="geometry"/>
                </mxCell>
                <mxCell id="2" value="" style="html=1;verticalLabelPosition=bottom;align=center;labelBackgroundColor=#ffffff;verticalAlign=top;strokeWidth=2;shadow=0;dashed=0;shape=mxgraph.ios7.icons.user;fillColor=#cce5ff;strokeColor=#36393d;" parent="1" vertex="1">
                    <mxGeometry x="-5" y="382" width="40" height="40" as="geometry"/>
                </mxCell>
                <mxCell id="8" value="" style="sketch=0;outlineConnect=0;dashed=0;verticalLabelPosition=bottom;verticalAlign=top;align=center;html=1;fontSize=12;fontStyle=0;aspect=fixed;shape=mxgraph.aws4.illustration_desktop;pointerEvents=1;fillColor=#f5f5f5;fontColor=#333333;strokeColor=#666666;" parent="1" vertex="1">
                    <mxGeometry x="85" y="337" width="142.86" height="130" as="geometry"/>
                </mxCell>
                <mxCell id="9" value="Public network" style="text;html=1;align=center;verticalAlign=middle;resizable=0;points=[];autosize=1;strokeColor=none;fillColor=none;fontColor=#FFFFFF;" parent="1" vertex="1">
                    <mxGeometry x="216" y="256" width="90" height="20" as="geometry"/>
                </mxCell>
                <mxCell id="13" value="" style="endArrow=none;dashed=1;html=1;startArrow=none;exitX=0.5;exitY=0;exitDx=0;exitDy=0;strokeColor=#B3B3B3;" parent="1" source="55" edge="1">
                    <mxGeometry width="50" height="50" relative="1" as="geometry">
                        <mxPoint x="350" y="560" as="sourcePoint"/>
                        <mxPoint x="350" y="245" as="targetPoint"/>
                    </mxGeometry>
                </mxCell>
                <mxCell id="14" value="" style="endArrow=none;dashed=1;html=1;strokeColor=#B3B3B3;" parent="1" edge="1">
                    <mxGeometry width="50" height="50" relative="1" as="geometry">
                        <mxPoint x="-40" y="240" as="sourcePoint"/>
                        <mxPoint x="800" y="240" as="targetPoint"/>
                    </mxGeometry>
                </mxCell>
                <mxCell id="16" value="Private network" style="text;html=1;align=center;verticalAlign=middle;resizable=0;points=[];autosize=1;strokeColor=none;fillColor=none;fontColor=#FFFFFF;" parent="1" vertex="1">
                    <mxGeometry x="382" y="256" width="100" height="20" as="geometry"/>
                </mxCell>
                <mxCell id="18" value="App" style="rounded=1;whiteSpace=wrap;html=1;fillColor=#FFFFFF;strokeColor=#9673a6;fontColor=#000000;align=center;verticalAlign=top;" parent="1" vertex="1">
                    <mxGeometry x="490" y="360" width="70" height="90" as="geometry"/>
                </mxCell>
                <mxCell id="19" value="Application&amp;nbsp; Servers" style="text;html=1;align=center;verticalAlign=middle;resizable=0;points=[];autosize=1;strokeColor=none;fillColor=none;fontColor=#FFFFFF;" parent="1" vertex="1">
                    <mxGeometry x="460" y="290" width="120" height="20" as="geometry"/>
                </mxCell>
                <mxCell id="20" value="" style="endArrow=none;dashed=1;html=1;strokeColor=#B3B3B3;" parent="1" edge="1">
                    <mxGeometry width="50" height="50" relative="1" as="geometry">
                        <mxPoint x="610" y="520" as="sourcePoint"/>
                        <mxPoint x="609.9999999999999" y="290" as="targetPoint"/>
                    </mxGeometry>
                </mxCell>
                <mxCell id="21" value="Database Servers" style="text;html=1;align=center;verticalAlign=middle;resizable=0;points=[];autosize=1;strokeColor=none;fillColor=none;fontColor=#FFFFFF;" parent="1" vertex="1">
                    <mxGeometry x="630" y="290" width="110" height="20" as="geometry"/>
                </mxCell>
                <mxCell id="22" value="&lt;font color=&quot;#000000&quot;&gt;In-memory DB&lt;/font&gt;" style="rounded=1;whiteSpace=wrap;html=1;fillColor=#FFFFFF;strokeColor=#006EAF;fontColor=#ffffff;verticalAlign=top;" parent="1" vertex="1">
                    <mxGeometry x="650" y="370" width="98" height="60" as="geometry"/>
                </mxCell>
                <mxCell id="37" value="Desktop /&amp;nbsp; Responsive" style="text;html=1;align=center;verticalAlign=middle;resizable=0;points=[];autosize=1;strokeColor=none;fillColor=none;fontColor=#FFFFFF;" parent="1" vertex="1">
                    <mxGeometry x="87.86000000000001" y="297" width="140" height="20" as="geometry"/>
                </mxCell>
                <mxCell id="50" value="" style="shape=image;verticalLabelPosition=bottom;verticalAlign=top;imageAspect=0;aspect=fixed;image=data:image/webp,UklGRvBMAABXRUJQVlA4WAoAAAAQAAAAgQYAgQYAQUxQSPQUAAABJMVt2zjS/nOnXL9nREyAs0IbQ1Xb+s2WzAcqNoJfEhogmttsbXGTgOtDobbdLBMVCZVQCUioBCRUAhIqAQlIQEIlfBIqoQ6y1vt/wwyQ5N41ESHJjSRHksJWq3jA7gQTe1TYtm3T/6/PchkRZtO2UQ9x6PgC6PiP//iP//iP//iP//iP//iP//iP//iP//iP//iP//iP//iP//iP//iP//iP//iP//iP//iP/379H/7jvy+qpbaz96Gz9962QjeT6jn1X+tbJprJh/7XeuWZb/2fBsNsSk3/bz2zy9ShX9CemGVK169pVmZZ8nV9CqdMm/qlnZlPZh365TUy2bF0vaLBJDvSoVfVC4vMNvXCDgrZUYZe22z88S+/u17fWLljya7fo74Qx+mfL1vCKweCyke/U3NjjCWnXhKTeBGpXfO7qMSLqEO/aS2xhv3wvXZUYjn9QyVexFVLmMSLWIf+hGZLZGI/6EVeBJWc/qESL2Kb+sM6EjvYDz9kB4Gc/mESLyI1/bn1zBz2w3fyIljDfmASLyIfegeNwhD2w084EMQV9gOTeBFL13tpVpKwH6jEi/jeS6592Ck72A9M4kXki5YwiReRdr27+oL29sNN7UhIf/rnxnbAv/3AKweCUtN7rWcWsB+YxIsoXe+4uQG+/XBLB4Kw335gEi9iHXrztYT59gOTeBHp0GeoF7S3H+7Ki8D255fyyoGg3PVpGivE2w9U4kXUqQ/VkdDcfrjpA0HAbj/cqhcB6vYDlXgRdegjtif8th8e4UAQlNsPVOJFtKkP25kx3H5gEi9i6frMjQre9gOVeBHb1EfvSKhtPzyMFwHZ9gOTeBGp6VuoL+hsPzzlgSCcth8ezYsAafvh8bwIgH5+KZV4EXXoa6klZLYfHtSLgOXTP1TiRVy15Hm9CKS3H/D+P+QiX7SESbyItOu7qi8obD88vReBrfbDa9oBv6d/mMSLSE3fXD3jrv3wLrwIzLUfmMSLyIe+w0bBV/vhHR0IQlr7gUm8iKXr22xWiLUfqMSL+GPJS+3I2Hr6J0l6Ebnru22soGo/lKsXgaj2Q8V6ETh5+ufV7gBP+4FXDgSlpm+7njHUfmASL6J0fefNDS7th5d6IAg57Qcm8SLWoa+/lnDVfsiIYafpUCvUC1ae/mESL6IMtUWzgaT98Hq9CIC0H6jEi6hTzdKRMM9+sMaODRbth5ftRUCi/UAlXkQdaqT2hHL2g212VCC0H6jEi2hTzdWZcdJ+qO2wU/SzH4zgRUDf6R9DeBFIZz9Y5kAQmtkPRtsBePYDk3gRqakd6wu22Q92OhCEcvaDcbwIiLMfDORFwNvzS6nEi6hDDVtLuHb6x1ReBKg9v5RKvIg/lpi4I6OZ/cAkXkTuaulGBS77wZQHgjDMfrCfF4FM9oOhd4DX6R8m8SJSU9vXM2rZD9b0IhDLfmASLyIf6gWNgmj2A0c87HQd6gy1hFH2g3m9CBizH0jiYadXLbGyF4FMp3+YxIvIXb2jsUKS/WBwLwKP7AebexEoc/rHOXZAj/3gCAeCQMh+ML8XgUD2A5N4EaWr1zQrQNkPJPGw0zbVeToz5tgPTOJFLF19qFHBxn5wCy8CaU7/MIkXUYZ6U7NBjP3gIF4EvNgPVOJF1KmO1ZEQw37wpx0bqNgP7uJFAIr9QCVeRB3qZrWEJPaD43gRMHL6x3m8CAyxH/zHi0AZ+8E7HnaKHfYDk3gRaVffqxecsB9860AQFtgPbrcDLuwHp/IioOL0D5V4EXWqM7YnjLAf3MuLAIjnlzKJF5HaVLfszMhgPzCJF7F09c5mhQT7gUq8iD+WOGlHxgL7gUm8iNzVVxs17O0HZzwQhAD2gwd6EXFtP7jqjtB/fimTeBGpqffWc8zbD0ziRZSuPtzcwtt+cNIDQZFuPzCJF7EOdedainD7wUG9CBCwH0jiYadXLfFTLyKuT/8wiReRu/p3Yw1o+8FlvYhoth+YxIsoH/X05hag9oOH7yghbD9QiRdRhzp9e4pW+8GpDwQFrv1AJV5Em+r+nTli7Qcm8SKWrlHQqKFqPzi2FxGnp3+YxIsoQ+Oh2QLUfnBxLyI4T/9QiRdRp4ZGe4pK+8HZvYiQtB8c3osIx+eXUokXUYcGSi3Fof3g+l5EEJ7+oRIv4qolEeBFxKj9MN/DTiPPfmASLyLtGj31Epn2g6c/7DSS7IfA2RFsp3+YxItITWOpnqPMfogOLyLC7Acm8SLyoVHVKNFkP0TNgaC4sh+YxItYusZXswaU/UAlXsQfS8KsI0eS/cAkXkTuGm2NGmj2Q2g87DR+7IcY8iKi4vRPsO0IFfshsA4EBY39EE5eRMTYD0ziRZSuUdjcgsN+CLMDQXFiPzCJF7EODchaig/7IcS8iBCyH0jiYadXLWESL6IMjc5mCxz7IZQedhoO9kPQeRGxcPon7rwIz7cfAvFAUBDYD+HnRQSA/UAlXkQdGrbtydfth7A8EOT29gOVeBFtagB3Zn+3H5jEi1i6xnGjOvrpHyrxIrap4dyRPNx+CFAvwr3tBybxIlLTyK4vnmw/RO6BIJ+2H8LVi3Bo+yFkvQhnfn4plXgRdWio15IX2w/B60W48PNLqcSLuGpJDHsRUWE/3PuHXOSusd+obmo/BPeBII+1HyLai/BD+yH0d7jq6R8m8SJSUzSoZx+1H+Lbi/BP+4FJvIh8KC40ii/aD3F/IMgr7Qcm8SKWrgjRrO5oP1CJF/HHEqDoyH54+odJvIjcFS8aqwPaDxDgRXif/YACXoRPnf6Bix2OZj9Aw4Egl7MfAMGL8Df7gUm8iNIVR5qba9kPQHEgyMvsBybxItahkFJLPmg/cMTDTtOhyFIvfnX6h0m8iDIUX5rNoewHyPAinMl+oBIvok6Fmo7kN/YDlBwIciH7AUC8CPexH6jEi6hDgac9eYT9gDc7qtOc/qESL+Iq+wFRvAifsh/w4mGnnmI/MIkXkXZFo3rxCvsBbQ4EWd5+AKIdzmE/MIkXkZpiU33xA/sBew4EeYT9ADhehDvYD6DjRbjC80upxIuoQ8Gqlnzg9A/8eBEOYD9QiRfxxxLY6siWtx+YxIvIXdGrUY1sP8DTgSB72w+Y5EVY0X4Arx2GPv2TJL2I1BTP6tnC9sOF6kVY135Ikl5EPhTZGsX69sMVGnZq09M/SdKLyF0xrrna7l/ekctxhkORrk+in8+qc6Gfz6ozW+Uz8/xkVcSrG+MJPop5mYKKSAP0RoshZlfUm2GMHyOfH+r/NKyzqijydZjha+gr2+HnyeenD/CbaYKZ4DdqAaNoVfSbwwbfp5/vjn8a1jkJlBX/ZrPAh8HSz080AJxOQDMIaPTX/+E//uM//uM//uM//uM//uM//uM//uM//uM//uM//uM//uM//uM//uM//uM//uM//uM//uM//uM//uM//uM//uM//uM//uM//uM//uM//uM//uM//uM//uM//uM//uM//uM//uM//uM//uM//uM//uM//uM//uM//uM//uM//uM//uM//uM//uM//uM//uM//uM//uM//uM//uM//uM//uM//uM//uM//uM//uM//uM//uM//uM//uM//uM//uM//uM//uM//uM//uM//uM//uM//uM//uM//uM//uM//uM//uM//uM//uM//uM//uM//uM//uM//uM//uM//uM//uM//uM//uM//uM//uM//uM//uM//uM//uM//uM//uM//uM//uM//uM//uM//uM//uM//uM//uM//uM//uM//uM//uM//uM//uM//uM//uM//uM//uM//uM//uM//uM//uM//uM//uM//uM//uM//uM//uM//uM//uM//uM//uM//uM//uM//uM//uM//uM//uM//uM//uM//uM//uM//uM//uO/X/+H//iP//iP/379H/4LSpOApr/+WQloFgCc9vpHAHDW9z8n/k16/7PB33zk/U+Gv9kMMNLRb7IFpoLfnGKCBvZNscFU9PswWPr5qlhhKv79PPP8ITPbYfLEvY9BMkQbAv4ezrlKN5MtJn0QbxYxRmng3VQxR8ukn88i+UM/n0US0v1hcxGrtMHcrzqT2KV8QtyMIrapfPDtd21in+rEtjmSWKi0I9v9n0WsVO6otmQVS1UGoi1pYq22CWdLstirdGDZkiI2a8GxHbOK3VpBbEdLYrlSA7AdZxbrldFrx6eIBSsd4E7/EMuBoP1flxhvB2b9y+8stiyfIGc/MIkXMZvYtG2im/1gJC8C2uwHQ3kRsGY/MIkXMVsSA9cmntkPJvMiwOz0D5N4EbOKrasDxewH63kRCGY/MIkXMYpYvfKBLvvBkF4EItkPBt8BWvYDk3gRYxUfqAywsh/M6kUglf1gWC8CmOwHXjkQNKp4ROvAJ/vBxl4ENp3+YRIv4lPENyodlOwHKvEirlrCJF5Ez+Il5ROK7AfDexEwZD8Y34tAF/vBSXZAy+kfP9nRwcd+cAMvAnjsB1fwInDGfuCVA0G9iAe1dLixH5zCi8Ca0z9M4kWcWXypfICM/eAeXgTA2A9U4kXsSbyq1KDFfnAULwJW7Adn8SIgxX6gEi/iSOJjpR1M7Ae38SKAxH5wHS8CN55fyisHgo4sHlc64MN+cCIvAjpO/1CJF/G9l3jJw04xw35wJy8CMOwHJvEi5iZ+WJ0YYD+43w6YsB+cy4uACPuBSbyI2cQr2yY22A9u5kUAg/3AJF7EqOKfrQMR7AeP8yLQwH5wOi8CCk7/OJ4XARb2Q0gMO71qif95EfFvP7igFxHup3+c8kBQ4NsPruhFxLP94LI7gtx+4JUDQWMVL66MULcfHNOLiHP7gUm8iF7En1t6gNsPLupFRLf94KVeRGSf/mESL+JTxLsrPaTtByrxIq5awiReRM/i5+UzkO0H1/Uigth+cF8vImbtB145ENQX8fpyD137wZG9iLC1H6jEiziy+H/pCFj7waW9iGC1H9zai4jU0z9M4kWcWaKhfISo/eDgXkR42g9U4kXsSeKi1ALTfnB1LyIo7Qcm8SJmkxhpm9H4/FKn9yJC0X5wfC8iDO0H5/ciou75pdFwICj+7IcQ8CKCz34IAy8i8E7/UIkX8b2X+PnDTiPOfggILyLc7Acm8SLmJpFUnRFkPwTQjiCzH5jEixirxFRlBJf9ECZeRGTZD4HiRYSV/cAkXsSoEmGtI57sh5jxImLJfggbLyKQTv+EjhcRavYDSTzs9KolEeRFxIv9wCsHgkaRyKt8wsZ+CCYvIhrsh6DbEQqnf+JuRw8W+yGsvIhAsR9Cy4uIEvuBSbyIXiQiW3p42A9B5kXEhv0QZ15EXJz+YRIv4lMkPis9IOwHKvEivm4JrxwI6lkitXyGgf0QfF5ECNgPVOJFHElitrQ7v/0Qhl6E49sPoehFOL39QCVexJElgkuHu9sPQelFuLr9EJhehJ+f/mESL+LMEs/lw8HtBybxIuYmcV2dnv380kD1ItzafghWL8Kl7Qcm8SJmkyhvm75sP4StF+HI9kPoehFObD+Erxfhs88vjecDQd5rPwSxF+G69kMgexFu+/xSKvEi/lgS/6U2/dV+CGkvwj1P/wT5gSBHtR9C24vwP/sBAna4qP3AJF7EWAUVKsM17YdA9yL80n4IdS/CKe0HJvEiRhWMaB3eaD9EvRfhifYDk3gRnyJoUenObT8A/n/IxVVLmMSL6Flwo3w6nv0ABV6E09kPcOBF+JL9ABs7HOn0D3Ls6K5mPwCDF+Fm9gM4eBE+Zj8wiRfRi2BKS3cu+wEmvAjPsh+YxIs4s6BL+XAp+wEwvAh3sh+oxIvYk+BMqTmS/QAdXoQT2Q/w4UU4kP1AJV7EkQR1Srvr2A9A4kW4jf0AJl6Ey9gPVOJFHFkwqHQ4i/0AK16Eo5z+oRIv4nvbD7jxsFMPsR8AxotwD/uBSbyIuQkyVafF7QdA2uEU9gPceBEOYT8wiRcxm+BU2/QE+wF4vAg3sB/Ax4twAfsBgLwIL3l+Kbo87NT29gMMeRGGP/0DRV6Ea9gPJPGw06uWIJIXYW37gUm8iFEEySofM9sP4ORFWM9+ALEdBrYfmMSLGKvgWmUY1n6AKi/CqvYDWHkRRrQfeOVA0KiCcq3DlvYDbnkRdjz9wyRexKcI3lW6Ae0HKvEirlrCJF5Ez4J85dNs9gOYeREmsx8AzYuwhP0AfDvMcPoH+3Z0Q9kP0OZFGMl+gDcvwibPL+WVA0G9CCq2dNPYD0DnRdjl9A+TeBFnFnwsHwaxHyDPizCG/UAlXsSeBClLzQz2A/h5ESawHwDQi3j99gOVeBFHEtws7S/efoBCL+Kl2w9w6EW84+eX4uOBoLdtP4CiF/Gq7Qdg9CJe8+kfKvEivvcS5HvY6fu1HyDSi3i59gOTeBFzE2ytzvdlP0DqjldqPwCmF/E67Qcm8SJmE6Rtm+/RfoBOL+Il2g9M4kWMKpjbOt6e/YCiXsSbsx+A1It4bad/wNSLeLH2A0k87PSqJZjqRbwr+4FJvIhRBIsrn5dkP8CrF/Hs9gMM73gh9gOvHAgaqyBzZbwW+wFsvYh3Yj8wiRfRi2B0S38Z9gPsehFvwn5AXi/iLZz+YRIv4lMEsSv98e0HKvEirlrCJF5Ez4Ld5fOh7Qc49iIe2H6AZC/i+U7/8MqBoL4Ikpf7Y9oP4OxFPKL9QCVexJEF00vHw9kPMO1FPJj9ANVexFOd/mESL+LMgvDl43HsB9D2Ih7FfqASL2JPgvWl9hD2A3x7EQ9gPzCJFzGb4H7bvHP7Aci9iNu2H8Dci7hl+wHQvYg7fH4pwh8Iulf7Ada9iBu1H6Ddi7jJ0z9U4kV87yW3e9jp3dkPIO9F3Jr9wCRexNyEHarzp9kPpLDjhuwHJvEixio8URk3Yj9AvxdxF/YD+HsRt2A/MIkXMaqwRuv42fYDD3gRP9d+YBIv4lOEP1r6bdkPJPGw06uWsIIX8b3tB145EDSKsEnlc7H9wCI75pX2A5HsuOz0D5fs6N/YfmASL2I24Ze2eaX9wDAflXRkoZnq+d8uz21ZuKbS+j/9VdTse81COpU/y0JA/fo//Md//Md//Md//Md//Md/v/4P//Ef//Ef//Ef//Ef//Ef//Ef//Ef//Ef//Ef//Ef//Ef//Ef//GfzwhWUDgg1jcAAJAxA50BKoIGggY+0Wi0UygmpaKg86hJABoJZ278cDniyZ/APwA+bpDBQD8ALb/EN2xtkf83/O+YiIT0H9v/FL5FuB+1L1Z0qdXmlv2Y+083HoM/iH+f/Ur++/IB/DP4504f756APPi/zPqx/43qAf6b0/fUU/+HqIeXR7Gv91/6vsGf6X0AP//7X/8A///W/9Rv9V+Cn5//lG9M0n9lcuZwd9642l6n9kNA5ZH72w970fvIFMjALiWpCYAqyIPkYBcS1ITAFWRB8jALiWpCYAqyIPkYBcS1ITAFWRB8jALiWpCYAqyIPkYBcS1ITAFWRB8jALiWpCYAqyIPkYBcS1ITAFWRB8jALiWpCYAqyIPkYBcS1ITAFWRB8jALiWpCYAqyIPkYBcS1ITAFWRB8jALiWpCYAqyIPkYBcS1ITAFWRB8jALiWpCYAqyIPkYBcS1ITAFWRB8jALiWpCYAqyIPkYBcS1ITAFWRB8jALiWpCYAqyIPkYBcS1ITAFWRB8jALiWpCYAqyIPkYBcS1ITAFWRB8jALiWpCYAqyIPkYBcS1ITAFWRB8jALiWpCYAqyIPkYBcS1ITAFWRB8jALiWpCYAqyIPkYBcS1ITAFWRB8jALiWpCYAqyIPkYBcS1G6G2U3geltWEraQb0HNOeRgFxLUhMAVZEHyMAuJakJgCrIg+RgFxLUhMAVZEHyMAuJakJgCrIg+Reh80DIBX3fdZDcVdDmhtLe46QmAKsiD5GAXEtSEwBVkQfIwC4lqQmAKsiD5GAXEtSEwBVkQfInhWkACJDzl8Pm12QAoFWRB8jALiWpCYAqyIPkYBcS1ITAFWRB8jALiWpCYAqyIPkYBcS045OUVINnVXC7ish/abF1mga91b6iZb3HSEwBVkQfIwC4lqQmAKsiD5GAXEtSEwBVkQfIwC4lqQmAKsYKxyzGwW9yEwBVz82n24vOpNIa40tSEwBVkQfIwC4lqQmAKsiD5GAXEtSEwBVkQfIwC4lqQmAKsYKxyy0G5AwR7jpCYAsMpdtK69SAKBVkQfIwC4lqQmAKsiD5GAXEtSEwBVkQfIwC4lqQmAKsiD24Vo/KPpeoMJvcdITAFWRCLSdrsfaFWRB8jALiWpCYAqyIPkYBcS1ITAFWRB8jALiWpCYAqyE792lSDZ1VwuJakJgCrIg+ReqXj8OQskgtE8fkYBcS1ITAFWRB8jALiWpCYAqyIPkYBcS1ITAFWRB8icrHLMVgl0ab3HSEwBVkQfIw6MGjB3X/buamW9x0hMAVZEHyMAuJakJgCrIg+RgFxLUhMAVZEHxzjlgIVER8nnxe46QmAKsiD5GAW0sG5ui0t3qw+RgFxLUhMAVZEHyMAuJakJgCrIg+RgFxLUhL/EvunlH0vY+sjVTAVZEHyMAuJakJgCmabazZdGnBuRB8jALiWpCYAqyIPkYBcS1ITAFWRB8jALiWo3Q2ydIYj3HSEwBVkQfIwC4lqQmAKsY8JY20hsvatssdITAFWRB8jALiWpCYAqyIPkYBcS1ITAFWQmfNAyG7kMaYCrIg+RgFxLUhMAVZEHyL/qwaMGxgPuWC9x0hMAVZEHyMAuJakJgCrIg+RgFxLUhJZrds5wb6kJgCrIg+RgFxLUhMAVZEHyMSaJm1A/WqJ92CqyIPkYBcS1ITAFWRB8jALiWpCYAqrX7tKkG1F5ovUhMAVZEHyMAuJakJgCrIg+RgFw13mqH3qQYGiWpCYAqyIPkYBcS1ITAFWRB8jALiWShtnj5ER/slQiKRgFxLUhMAVZEHyMAuJakJgCrIhFtg3G2kN+kG9PziWpCYAqyIPkYBcS1ITAFWRB8i9D5oGPLyyxGIT/jo6QmAKsiD5GAXEtSEwBVkQfIwC4lkushuKuhzmplvcdITAFWRB8jALiWpCYAqxiH3Tyj6fDkCNMXEtSEwBVkQfIwC4lqQmAKsiD5GAXEtSdyXbSuvmHMt6XpIPkYBcS1ITAFWRB8i9L92lSDai8kNLpCYAqyIPkYBcS1ITAFWRB8jALiWpCYAqyFCU3wB55VLFa4AVZEHyMAuJakJgCrIg+ROVjllpD5YvIPkYBcS1ITAFWRB8jALiWpCYAqyIPkYBcS04sG420hv0g4ggmW9x0hMAVZEHyMAuJZNCvylBuQIg+RgFxLUhMAVZEHyMAuJakJgCrIg+RgFxLUhMV7q1kNxV0OZ2W9x0hMAVZEHyMAtpycoqQbOquFxLUhMAVZEHyMAuJakJgCrIg+RgFxLUhMAVZEHyMAuudZsujTg3Ig+RgFxLUhMAVYwdXq4e1cNsEcy3uOkJgDgNJB8jALiWpCYAqyIPkYBtd5ekg+RgFxNm1kLLP2HUINpQWpCYAqyIPkT6S/uOrYTAFWMOAy/L64y57QKD37SU58Lg0QuvOp/J4TtOmyva4wC4lqQmAKsiD23ADZ7I6nKZr6+2q4doy3rRj5MuSXU2ezX6XpIPkYBdcl1mVRYPkYBcS1ITAFWMcWgkBh0vSQe3ALuUPVZuajLS8RAyrg6c3V9sOjKx8jALiWpCYAqyE7hPE0KTlszKGfNJqZxUUGkm/kC4lqQmAKq5zW2lvcdITAFWRB7esF7jpCYAqrUASs0MRKpMCZHddeG3U61ZQ3nS0t7jpCYAqyIPjkMWAGYwktSG6J1z7U7R5GAXEtSEvJzLel6SD5GAXEtSC7mW9L0kHyL0Vz5MkA6QmAKueFSSKQEtl7G2mW9x0hMAVVr7hCzU9XF/0yqRZcAoFWRB8jAKJzUy3uOkJgCrIg+OjnZTLe46Ql4tyMf4r+SSD5GA9SyMOkMyLiUy3uOkJgCrITVx9x6/ySQe3KUjgXTidpakJgCrIUOamW9x0hMAVZEHx0c1Mt7jpCX+KaOanB8jALiSu3IM35LYgH6XpIPkYBcSygBPQKsh/Tyg0ikYBcS1ILuZb0vSQfIwC4lqQXcy3pekg+Rendne7Ig+RgFw0dsRJ06RnRJqyIPkYBcS05c2crel6I4tNh8jALiWnLmW9L0kHyMAuJakF3Mt6XpIPkXp3Z3v7kQfIwC4aMlM3zdfDnLSQfIwC4lqOABPQKsh/cWmw+RgFxLTlzLel6SD5GAXEtSC7mW9L0kHyL07s739yIPkYBcSUGQoFW5DXxItSEwBVkQe3rFlpQWo4ACuCqyIPkX/cYL3HSEwBVkQfIv+4wXuOkJgCqt3Z3v7kQfIwC4lkgwaTLQXo3sbaZb3HSEmAE9AqyH9xabD5GAXEtOXMt6XpIPkYBcS1ILuZb0vSQfIvTuzvf3Ig+RgFxLVnk6djw1v7KBVkQfIv+4xZaUFqOAArgqsiD5F/3GC9x0hMAVZEHyL/uMF7jpCYAqrd2d7+5EHyMAuJacduQZnpQyVHS3uOkJgB1TZW9L0ihzW2lvcdIS/x5aB8jALiWpCYAqxji0D5GAXEtORwM7eGlqQmAKsiDff/tkIqgTpftcYBcS05c2crel6I4tNh8jALiWnLmW9L0kHyMAuJakF3Mt6XpIPkXp3Z3v7kQfIwC4lqQWS2aVNoTlG2pIPkYBROdlMt7jUAFcFVkQfIv+4wXuOkJgCrIg+Rf9xgvcdITAFVbuzvf3Ig+OxV6XpIN7A6ZLw62rt0hMAVYxxetIHyL1Oa20t7jpCX+PLQPkYBcS1ITAFWMcWgfIwC4lpyOBnbw0tSC3vsDBtbnrSwPtcYBcNAwaUBoycCMeOkJgB1TZW9L0ihzW2lvcdIS/x5aB8jALiWpCYAqxji0D5GAXEtORwM7eGlqQXAIZKdsSXSPjSFqQmAKYE6dRXvihi0D5GAUTnaymW9v7mZX6XpIPkXqc1Mt7jpCYAqyIPjo5qZb3HSEv8XUBY0MAVYxMl+JsDW/y/v2wKZMt7jrSwkS99PgpCb4bakJMAJ6BVkP7i02HyMAuJacuZb0vSQfIwC4lqQXcy3pekg+Rendne/uRB8c659FgHC6zL2k1DFDnSEwA5gLMz5CCNpNWRB7esWWlBajgAK4KrIg+Rf9xgvcdITAFWRB8i/7jBe46QmAKq3dne/uRB8c66BiRF+Tp5g7YtA+RgFA/dyMCoRWKgTcSygBPQKsh/cWmw+RgFxLTlzLel6SD5GAXEtSC7mW9L0kHyL07s739yIPjnXQMT4TB5mjdfO4iD5F6KbEbkunXBplueMWWlBajgAK4KrIg+Rf9xgvcdITAFWRB8i/7jBe46QmAKq3dne/uRB8c66BihzggJOSZrVZyNN7jo3BgrlqCBfn03t/c2VvS9Ioc1tpb3HSEv8eWgfIwC4lqQmAKsY4tA+RgFxLTkcDO3hpakFwCaYCaC1F7JWkNbywC4lqQWE5XVTinK81MshztZTLe39zMr9L0kHyL1OamW9x0hMAVZEHx0c1Mt7jpCX+LqAsaGAKsYmTtRsKqPN2qndqH2+Wqdx0hMReEiXvny1fI4h/cXpA+Rf9xg6a46QmAKq5zUy3uOkJgCrIg+OjmplvcdIS/xdQFjQwBVjEydqNhLxCoqAjyn7xyyZb3HON20U7e2mwWPblzZyt6Xoji02HyMAuJacuZb0vSQfIwC4lqQXcy3pekg+Rendne/uRB8c66Bk9Aq542tiGx8oPLkQfInKW8ZguN5I4MeMV3EtSC7mZX6XpIPkXqc1Mt7jpCYAqyIPjo5qZb3HSEv8XUBY0MAVYxMnajYTALkOiSDbRhFMoLUhJU1Zcx3NHjFaxZaUFqOAArgqsiD5F/3GC9x0hMAVZEHyL/uMF7jpCYAqrd2d7+5EHxzroGT0CrLT3JBUuwC39K46Ql/gGCuWoIGBF/jFdxLUgu5mV+l6SD5F6nNTLe46QmAKsiD46OamW9x0hL/F1AWNDAFWMTJ2o2EwBTD8YggvfRNc6QmAKqwb/YTJXP5ebOVvS9EcWmw+RgFxLTlzLel6SD5GAXEtSC7mW9L0kHyL07s739yIPjnXQMnoFWRKJqt4ifkloO+HoFWRFqGJe7NgG+gAoPQKshQ5rbS3uOkJf48tA+RgFxLUhMAVYxxaB8jALiWnI4GdvDS1ILgE0wE3EtSCwVHnRizrYwsfIwC2nG7ixHJI8u17wqsh/cWmw+RgFxLTlzLel6SD5GAXEtSC7mW9L0kHyL07s739yIPjnXQMnoFWRB90juRQYq19VvS9JC6fS1IS8nMyv0vSQfIvU5qZb3HSEwBVkQfHRzUy3uOkJf4uoCxoYAqxiZO1GwmAKsiUTXgN32RtZcvSQfIwC4lpy5mV+l6SD5F6nNTLe46QmAKsiD46OamW9x0hL/F1AWNDAFWMTJ2o2EwBVkRKR1gtQisH+H3HSEwBVkQfHOvqG+i/uOkJgCquc1Mt7jpCYAqyIPjo5qZb3HSEv8XUBY0MAVYxMnajYTAFWRCqI6JTmWBtAE+nq4wC4lqQl/jy02HyMAuJacuZb0vSQfIwC4lqQXcy3pekg+Rendne/uRB8c66Bk9AqyIPkXod/TooPz7pAC1ITAFWRB7esHTXHSEwBVXOamW9x0hMAVZEHx0c1Mt7jpCX+LqAsaGAKsYmTtRsJgCrIg+OQpu6v19TDQaZb3HSEwA6pmV+l6SD5F6nNTLe46QmAKsiD46OamW9x0hL/F1AWNDAFWMTJ2o2EwBVkQfI50+0809rhmQEVBakJgCrGOLTYfIwC4lpy5lvS9JB8jALiWpBdzLel6SD5F6d2d7+5EHxzroGT0CrIg+RgFtGPmQXcHE4TAFWRB8dHNbaW9x0hL/HloHyMAuJakJgCrGOLQPkYBcS05HAzt4aWpBcAmmAm4lqQmAKstQdYJTUZkqGw+RgFxLTlzMr9L0kHyL1OamW9x0hMAVZEHx0c1Mt7jpCX+LqAsaGAKsYmTtRsJgCrIg+Rf9NmSXEKbCuTJl6SD5F/3GDprjpCYAqrnNTLe46QmAKsiD46OamW9x0hL/B1N71TmGlqQXAiv6HoFWRB8jALiSkr6mhUze4IhgFxLUbyTyrnB2y5njpCYAqxji0D5GAXEtSEwBVjHFoHyMAuJacHli9Mq7TAFVZa27QRefB8jALiWpCYAcCi8RWG1JHFqQmAKYc+meiZGAXEtSEv8eWgfIwC4lqQmAKsY4tA+RgFxLTkCfbk7BBRtcXpaaEoBAVpekg+RgFxLUhVQOwM2rvstKaTjpCX+IAHTCNJbVuBnjpCYAqxji0D5GAXEtSEwBVjHFoHyMAuJajdO1EGJQzVeNX3GmSr8aBKM7gWpCYAqyIPkYBcZQ/ufI8S058UkX/W7y5bbm2USvvS9JB8jALauZb0vSQfIwC4lqQWonkQfIwC4lpwkBVykXGVZlPgJs8iPVqvuY/PDcIKX3pekg+RgFxLUhMAOtC9KbUhfdUHFlW1gSVoMMQzgdP3dP8e7IwE52eMAuJakJgCmL1DpCYAqyIPkYBcNHOZoC3XQKsiD5GAXFTfU8PB5hgFxLUhMAVZEHyMCZLYWQ68gBpCYAqyIPjoN5YLSlyTXj1gNJB8i/7lCbirpssVo+RgFxLUh5wrxExpCYAqyIPkYBcS1ITAFWRB8jALiWpBc/axW/0S0eQu/jtwxePEQfIwC4bDzgfr/w2/NTLe46QmAKvCLiWpCYAqyIPkYBcS1ITAFWRB8jALiWSWzsmUfTxCFVl5/CS0VWXiK1ITAFWQ/udfw5C0n1TeJ+1VxgFxLUhMAVZEHyMAuJakJgCrIg+RgFxLUhMAVVr92lSAuLV/NePbeWm0UjgXuOkJgCrIUP5jbSHDpdDNLe46QmAKsiD5GAXEtSEwBVkQfIwC4lqQmAKq4aY0eUMQmAKsiD8ZMcQfIwC4lqQl/j3U9VU6NKxWj5GAXEtSEwBVkQfIwC4lqQmAKsiD5GAXEtOAddjZxzxAV1F7Tcq6gArYYAqyIPkYBdxVdLwbiuQQ+1b0vSQfIwC4lqQmAKsiD5GAXEtSEwBVkQbzmL9DbCIskJgCrIg+Rhf3HSEwBVkQfIwJNQP5jbSHDrFQztYpGAXEtSEwBVkQfIwC4lqQmAKsiD5GAUKAqQfif8jW+a9DSpAuF9WkBfVIFSHyMAuJakJgCrwe5RJXZGmAKsiD5GAXEtSEwBVkQfIwC4lqQl5H580DOZGA2lfoGl+62Ghhwp+lqQmAKsiD5GAXElxCz1VTo0rD2uMAuJakJgCrIg+RgFxLUhMAVZCZzEfy80s0BbMr4Qo9Vl6IUeqy9EKPVWsgp84iD5GAXEtSEwBVkP6zkcxPXObW1m0blb0vSQfIwC4lqQmAKsiD5GAXDRbOyZR9PA2mXDzl6SD5GAXGFqj6MAVZEHyMAuJakJgCmc6lln7FQJ9Ml4VWRB8jALiWpCYAqyIPkYBbU/ek/ysg6cEuB5sK8aYRo/YhJm382lqQmAKsiD5GAXEtSC8QxK7FaPkYBcS1ITAFWRB8jALiSz8+aBnMj0LhfVpAXx41vmvQ0qaFpjVlaaiWpCYAqyIPkYBcS1IS/yASzdFp4InkQfIwC4lqQmAKsiD5F6HMR+UfToCT7CJPVZeiFHqrWQVZeiFHqsvP7ZeiFH5xaZb3HSEwBVkQfIwC4lqN8wArramwRlEZuQmAKsiD5GAXEtSElLZtKkG05QL6pAuF9WkBfVIFwvq0gL6pAuF9Wj/rgLiWpCYAqyIPkYBcS1ISYFFdKsv91JXIg+RgFxLUhMAVVw0xo8oYq87BVmunC+rSAvqkC4X1aQF9UgXC+rQrIg+RgFxLUhMAVZEHyMAuJLej0b1DpCYAqyIPkYBRDQX+sbs4lqQmLQHF1IC+qQLhfVpAXxkRXXjnybiWpCYAqyIPkYBcS1ITAIBWXEKKFd55Qtmq4wC4lqQl/gtm0qQbTjrMEh/Q0PCLuKzBHyXIg/HplHYWfILUhMAVZEHyMAuJakJgCrIiumXofbi8/y9+zgjVvS9JB8i9Q1DbJ04KP08NWa6cL6tIC+qQLhfVpAX1SBcL6tIC+qPowBVkQfIwC4lqQmAKsiD5GAXcTOdSyz9ioxTuRB8i/7UEqH32oPWbhtplvcdITAFWRB8jALiWpCYAsnxe46QmAKsiD5GAXEtSEwBVkQfIn2hNxV02WK0fIv+gddjZ3QFbfafoXC+Q8n3BZrpwvq0gL6pAuF9WkBfVH0YAqyIPkYBcS1ITAFWRB8jALiXKd6fWOZyxY8FSyi0D2yelCG2ERZIeUh8jywryPLACrIg+RgFxLUhMAV9yIPkYBcS1ITAFWRB8jALiWpCYBAKMFJPnQnIewVOUijtnWX/ENsfjG/3wpaKrL0Qo9Vl6IUeqy9EKPVZeiFHqsvRCj1WXohR6rLylWmW9x0hMAVZEHyMAuJakJgCrIg+WDS9MiAscO/gDZhgFxLUhMAVZEHyMAuJakJgCrIg+RgFxLUhMAVZEHyMAuJakJgCrIg+RgFxLUpLD5GAXEtSEwBVkQfIwC4lqQmAKsiD5GAXEtSEwBVkQfIwC4lqQmAKsiD5GAXEtSEwBVkQfIwC4lqQmAKsiD5GAXEtSEwBVkQfIwC4lqQmAKsiD5GAXEtSEwBVkQfIwC4lqQmAKsiD5GAXEtSEwBVkQfIwC4lqQmAKsiD5GAXEtSEwBVkQfIwC4lqQmAKsiD5GAXEtSEwBVkQfIwC4lqQmAKsiD5GAXEtSEwBVkQfIwC4lqQmAKsiD5GAXEtSEwBVkQfIwC4lqQmAKsiD5GAXEtSEwBVkQfIwC4lqQmAKsiD5GAXEtSEwBVkQfIwC4lqQmAKsiD5GAXEtSEwBVjAAD+rMAAAAAAAAAAAAAAAAAAAAAAAAAAAAAAAAAAAAAAAAAAAABwFTAXNIKC0xc8dqmTKyb6/r+uQAg7W+mKf3vKAXTFfr/4H5MAHeCgV7q1ks9AjVPBCSxROeeXPMJGGG41ZbIAAAAACo0U1h0+0j6G05H9PPDqQHPfEvU4J0n/YBSIbv2llW7sz6yfVvcgnz9ByFbmlwas//1c6iAdWYRtGxwQAAAAAkgMigRr5B+DTEegQC25Qa+m2WyTFLiXRxLpByNjM9+x7DE1k5fgU9VrVrAXS3yB7DkGLpHItntR26N7z03O3wwN6gAAAACSAsvtlHHEPGLmX92qPVYgUOj4qqaedXnb/DL5QYEUYyYBc3II2wCzEhROT2BD1ez1/h2uO+7ZYXlriYAAAABhW2iss/bilm3qp5TQM8DWtwoCqibbSH6GVLBrfAwYFKuTqCAy0+Kls+NW6ac2R3NIE0LxuFDB+aYAAAAAb8ImQAdglBEglfBf3h1GsOPpQnMJWx8FGvHzFWhprmQGKyeDmQAFgDGvEwRUpWi+w1gjnfwNMqhriYAAAADbhRixU/bVe4jxihSO28BYN8XHxfZTYhVoYUSf4KjLLFKxJpZKh7eJFr120yTPtf2xbyRz9VDDhA4M7dOkI0ws62QAAADb38lQ2+SAEHg5lo18T73p4pWx0+Qq2mM3KaC0s3E4veAXNZBptgUt60nscC0LI/HjEIwPbBD/jFv1gAAAAMK20LDnay346KSX7V106yARZ4huGztAM9qRPCRqDB4Ovj5xgC0gMubKl2Y8NOoUdflKa+tLQFjQxjjAAAACSQ0XS3yqu95QBMYjg9rDkItDaFYT4dgkh4OpgULxw97pX2EW5ygIwCi2XIYjbArXfvSyyF0snxFSWDaUF7ScAAAG3CjEPfZmsTB0PGL1c5kIGkrdhaIcxW4qvR7CgJdYdyvTI8kelgEggPGT7RyxR7z1lhRaNITLjO9+KS0hs4gAAG/wn1JGm7ZFhc25w/vglMi/t4zVPv5AqzPK7Yjh1JzGYHJvNiwBewGMhfYy9gxjTGlfwL7PtZS0TMnyvCfyiAAAG/CM8uTsKP4l6fmQH4dUUCV66e35DMGkYEurhx91tsAAKSYoPTpG6hBzCAE0N+yFXZrWHwr1wwYAAAJIDIoLS/bQmBCEMRlXwkaKXH56wQxSYv18F05xTKqUog+gAA7xa9+emZkKVTm9866g07ODz2V0094n6BkAABhW3y0aYP6rBZd2qO5+2q+EEoz2jUAzXsVQKyMw2tMYd1XgABKqZ8Pvbxh1gsxIURPxCcFI3z9B8DjpyiZY8JgAAYSQkpoFjIfHapmcx+qupzyJZQpTXjuh2SUGgM+dQl4QJGUwAAVUBlp8T2BsFjIlZVjioGfOdZ6hBlO2BxVoAA4WfcfwsKO/orWY5y7MrgMSZ3ZIF56emXq0QLxqFCaNRRUQ6uvAAAt2Sl5aFy21Z5GyzFHwHv4zcoPHZDAZeQAG3CjKbuKWbeqeFEtYchFnHiFeYXq/L3HbaMcBzhT5z0j1YLAAAUMESpW+Qx9iWdCufsGd6npTEqjBRC0AAkkD0rUycQ/hwAh9cfj5X04pXT/HtsjaN9fuJJMi7r8fuY5JgAAF3lQQct7994OafDXxQsf0JDH/aXJLa146YAAGHMjFjJrqYkMv/uQX5e48sgEWGvyLetXjEhpCYuF7Z8noAAAIVwQO08mtwjwW5UBUrDDbbOdNbDMtJwAHAWcTtYpQ+vVmdZYth1GsOPpQnMJWx8FGvHzFWlOu5FUhAtGAAAAb9fnTWQdbuEJsA07Bj9dc36jzm8EfM7izEBvQoxYqftqvcR4xQWlnGizFtYqqe/RN7McDp9eFupiMe/rHGIg/cLAAAAQ5AOT82VLs3sVdZQu1SSYGsTWVYCOpIgN+FfMnC40mFHf3sCU6ZXLdia06KI2xcpoLTCCqeX1dBXHus4isVRUACyBSVQUOJqz2kq4Rm6i04yqMR+YIoGtio9eRo/KIFw2jVzMaVRVQ+ufbYsZ7mjgUO8+KQ3muUyYdf+2PXsX3sxMKhfujaui1fVqt5GtPm8LsZorGZSJ6DeBMnuayYLqnoYx44wuO6t0j5WoACY0A20AxHGThF7/O3eaJ0A6v7qPXuaU8ftyaUZCPtB4Vhxxu7g2OyfATS32/Yz2UKGEPV8i//XqfAgtzmfYAFVx6E6HxKoyM+kfYaYstzx8Zv7k8By8i2Ot04ElCSPPDYNOwZ0P7PBmfyTEbDMmTVfbl1WpDE8w0MOTAAmWauxkfnMH2eYfDtO+F7q019MIJ/i2AEBFKr+kESamM6iLkMmPCeVAUCCtR/rqOaaXI0sWZ0qt1cNq6mv0KLDZzEHJm2fozmFu3KlPHBUwqMtPPUWgTCWjJCwv12Tt7GF9NQi5CJKacr88jO3XQAgoHAQk4fkrXe4gdigCdd8SpNolZK4WNmCzE/1r1OhllnGBRQEcEMHZ2tRZqmNPXgejFNgsXNpAKdJ8sFooZ9RJiEU15zWQlWvP4y6c4FL5lcYZcYPg+jfeSQKEL60gxcCh1HS+6Ntsz4s7+AI5vSKBI5ijv0OG9Vdzh9hO+6F1q+vP7A2lHwY01ngnJqUbjG2L+qFHEUYGlepDlGALxQLnglP0+0AY2yVNgU5u7DdnvFDJod8X98ZONmNeUsbjilW3GAn6otBQTDMfrL5v0TdB1u/PMAZ03wGSxXZP2Dzoa7FFr8u+d2K536nSvOBWvRIA0TChRAjJiNBPcWKtACW2hRJw9Rir0b7C+pEyEFmOB/dpe3anOp+/AUCEUph8sqqAKCYquffVDazY9GaZaoFVjUFiTSUpd0NLVu91c2BJwpAW8ofNKBV+nw4EpG18m7iPR0y0tIvLnZjj5/bLgVWLjcjQB75tnAgrCfOb7kEsOv1UXs4/XKBjKp7Cd9x/oLxnqEwew9enCxtHbhKTepCZwRR6/LretNU0v9u1EQqD5BBX7/i7TuwyZDyzg6IQNttND1238KWX+YibUergtXDxwoFDNkJNcBFUCQDaU8mDjdDieLW5ce1OXLgL8CbAnpnz97t8QJs/1oNVTLz+VG4KYvLOe/fJMTZcsNf/1aZMKQIFSP5vIXHDDGy3g4DlFU64mPnqn1APgB5/41mWMO/VzN5yxQFvSJXKtaT+ICJ2eDIoiE1vUoNr1QCyX0R28gazfDeIuYwESY/izRNKoAW8vGDkLe7uSNQ/3nLfx9kc94Yd4ddBLx9iBwghi9lqGz8mbu1RnzodJmuWvIplEaJv7tZ625IlLFFUjqCwhmAmFWNOREGRwqgeRwssN8vdyevAWuZyg1HvasmIsUfo81mmtGSnK8AxEN1xjEgewVbW0SVOu5BA2cXNmDVgH3UAsjqu+1tkvfVKO8QYw0x7RcjVLEEiWsuWJuCNkfJM+3f7RDALQzyY7wKsl2Ewd1jN7MMC9U1eTCQ96/FkvU50m+0JElW79D5dmkrUiog1SZIDmABm80FocPJxm/PBCw0BvJhGhghW5E9gz/F1ctJoYnXBbFM3FLUJcMdj9RoKPsid6sAcApBfhMMX/Gb6pRFCDGGmPaLhPf6F2Lb8TBo4rB0YeHVi+FzaraAYpfXrwR7VBdKVBw8nGb2cWF6pq8mEh7wkfleUbPBur/GnVrnhZrAwE9/g913eOiK7nLqUDUojmh5OM354EYGgN5MI0MCCbg/1P9LK9vgwlud3u5chvou0J52miBPyU8gR2SZZNgWG4iRlDN9Uo7xBjDTHtFwjalVPzkD8JWYcPTIwU2eJFF8duSav8DRzQ8nGb2YYF6pq8mEh8DnivDnhBNjtcIQ9eqwsm6oC1r6WDK/G3Xd4FMAJBZuAzq0VcQMg6jyh2UM354IWGgN5MI0MqeyUd+1m1gvBcJym9FiasvzS1D/0dmlGCnZeD073DQwhNfZf/n8tb42C/KFYhVCtPm3wXTME1fjjb9XgegTzxXZccx8eGBzglbMyhLkbZ+ef5F+Ewxf8ZvqlEUIMYaY9ouYcMrx8k+BVQuXom09Iq5F5ZtnX+/xmhsjP60A/BbGobTnzlBUy3AWG9jq5xv0qJL3X8QBgrjW400vOuOvAFZG+FKHZQzeziwvVNXkwkPgEOjwg9rdufY3UzbTZ/3pUylKZas8WXEwEj2TKD7gy1NFD1lCL5xHYfT9Z7f1N4eCAso6s/68TYcQ+8SPF4GBK83HaCOZYzmh5OM354EYGgN5MI0MOxYzTYrG5i5Gnf1YOtRqgBbF5of0l+8k7gZFyxpJpSp4ZjvVS+h+PCl1C1ZDUTd9n7BddTacRgY3MpltSJAsAGJZAn9wxB7RwRQ7KGb6pR3iDGGmPaLqi8UuPcIFj+YyP3EI/dMYxtF56bxO4yLudQer4xkIMaOdyE7sAy+Uly1xPTdSaZ4+aB0PaJL7UmvjuL9gmWqOaHk4zezDAvVNXkwkPgEjmX4a4KVA1Gkg0ox85A41/5f6zjektf0z36v7Fr5DbmkTW1mxfZYus/wb7RfbNDbSl9sKEYUBjCUqAfVbqPZ//ih2UM354IWGgN5MI0MOvoKV5cjTUzkNJ6vV0P6H4Yh/GhFNwR7iINnIvh38kRMnA0HsfWVyrUg2oGId8PsuOZC7NQGe9iex0bjZmrvROzmh5OM31SiKEGMNMe0XVGFvfUbX6jWyroiU0xyZIYxVDzmzqYtvzzC9XXH47/wHGt+0Ym+4K7VQvbVkeli+FzUl3MLjt069kQ7/ODnDycZvZxYXqmryYSHwCRpPxz9WHmrMRO2apEPcA/9r2BUdlqR8H4tzY7md5UejZ7v1rMfXTRq/xpwxs1gYCe/we7qihTMzip4ZPWWc0PJxm/YwygnUTHdLdvIxxG+ig023rGegGYyVlsXLPtKfC3ikPbi5GWLysXpljWMF9P+/jmOtlq2s2L4sl6nOllfTs6gig4MjyyFL7eiDqMRIyhm+MTDEzNeTB7REaQEfiU183GFQK24xnXUs2zHjJlLXrc6vdoHD5gmdqmxZjv9HY9LH4XbC4wbDq93VVhZMaqXdOs7KxDZzQ8nGb4scGtTksyplzFGFlfw8P2AeaZQzwVcMm52VDmcHPLf+QPJdULNdBqsZamNR6NnvBhH5Ffu5Vu+2aG2kLE9iXer8/waA3lXC+XLZw8nGb9jEvCdRMd0t28jGjv15JPiJEKSJK1AGXePMAiJIbq7ofZghStF607pRXiGaJFh+30L2+0XIdFZC0yeSs3Uv2KDhpMa++OwGKUWdlJ5vof9Uc0PJxm+LHDEzNeTB7REcNu//E32797IflAe+7yKQgwHmDevSzgC7geSLnjWjBc/VXSUjlvOJg1sB3fuFVf77S81JdzC47dOvZEO0o6UOyhm+MTBrU5LMqZcxRglyBvDIulr/CBp7qqpMDNy49WRNM1tZNTQegYNjo8fi60vKSjI2eNLhVbVEJ1UeD2SAp/dHlET4Ycx5OM37GGUE6iY7pbt5GOGWFbuH9/hfht7+9vNR/tKfC3iav+cFKAZwlySlXozBNU5Ev3m9zU2b6CJ639psuXNfa9J1UXb4ode2K+x7HeixIMbegxjcnGb4xMMTM15MHtERoz8U8FWecHL3UfcsMhwUsbCZezO3VFdxcMEnNHp6U+JQEgBPMoZvixwa1OSzKmXMUYV/YDEkJDu+DLfqla/gQZQM3jgu1WuH+QPJdVqrGQLZfTrR7f8Zv2MS8J1Ex3S3byMaMiezIYaxuxotec38B7sikhnrsCv99u0e8Yno+CWRSW0BGfElbGmGTjN8WOGJma8mD2iI4XXj1AYp+rWuk9MsNDGSoe2BB21XPhzE3SalwDSRT7CEqAaLm3RO+MTBrU5LMqZcxRglLgzULX/oE6WesudIozb/XKP4t338xmzNO7OWNy3VUG4zfngRgaA3kwjQw6+m9UQ7qbTBzGMbi3ZU3K/DjPyRR7SgaGG5auCfjrUFABlevg34zfVKO8QYw0x7RdUYJRm7vKJkv5jI+2uc2zeLqY9PxONNwU9LGf6KBuP4xYLjRDN7MMC9U1eTCQ+ASOFpOcrggPZsCHzDFjDGNf78zg55b/3HgGUN+Ce5L32QaUM354IWGgN5MI0MOvoKG5DMSDTFlxvu0ildOYcQO9noN6DXU82A3ZeK+0ZdUJfRDN9UoihBjDTHtF1RhXkJjy+smfoy2FPxKa+bd8YreOgXmF/J4dLTDFFA28acZvZxYXqmr1KUEgg6GhYg9UrDQkUuvtTWK4/u7DVBf8BIm25/53UFrB8QJ2rDMn4ZtSK4QNFsJqrmSnv/zp4JCOoXs5FPTrcQR0XWbmuAJje4UGoThOOCRixZygnUTUg3+SbAU2i2TNKUEXybRzLLWk58YnRxup9Q3QYOgP+oGezi2oyAUSvf6mBFryPxm6cODK/rL6IHQXfb5I1w2pzwBno7LUjtT9t0yvG6m/EYQmQWYAjHn9GXAJu4HI0EuT+fqzEbqUDsekTWr4FRGaV81UcJK9Fo1Yzs9Po49XMATjrvEGMNNGT0dG0e1lynV2Tz1DqYljNfXqHEti8rY9WAv7UCkIM3XaLRw+f7k5yNvMa2xeFXGU0G+1TCq7IWz63fVnN/X9jKHgU2RxvKoLj5SzAZlXiLQsFqjVNDz0ep4up09LgbuBybenSblfDai2NtafYkNXScRp2CBitlrgumvqz1485jmVIdwNlFVSU4prCKCO/GmZe8LtRjS2b7TcrycGHqVApRWtWKYDqkJoCMOyfbUj47KAPz/hcKQp9bgU8/xurMZLPvgM62SvuyKnsyYDg/DUI/iU9Yy0HYAlhRLLVqLAb6MWrhLqzQejeEm0V9TkaKvkCxKVmt256vH665v1ilD+C6+beWV5Sc2cyrXjEG0DFszWITLS5N+18UABRtXpcRspRnV/4C0GlZKZt+XwBFmSiqYPAELC8D4A7odRrhFiYLvLU5hHUBlWElRWyAonkl0GtzsmOun6Qzp16Ung66S2Hosn5LwZwdiKhiy80Oo21kYBavu/yz+4/u58ugiL8mXclWasvSYNxpibMOiiaT9uN6Gqh6BPfuo+WQfegAkonXg0wVYckaf5WY33KHg6TeC8kFo5ZE7XbxJCKYOMLbPZDYM3QRtt33bzWJXgjQAWEG9gxit5oLI5u4IBzLSTjoJbEbZZM7RAALC00EQFsCS3JKymbp19lzHjP/xyi1XYdK/oisXgEvDQtcW/8BSxDJfdzkk0U/Q5rjMlaWyix297aZWJekHIg7qahgXUk4jyAWwT6p5byMVK/V8uCIUz6DmV0EJeQeewyO/X3yHxUZFtYcQNiKctZe82K2JaNfEkrwwrnHzyJFd9vgT/1g3I6pq1CCUS7ZryInKgWGm9r0amLedEz+VdC/kbBgCFhEX8s4YPrNT3ZbGaYBhsyU6JOIzoKUTOwVSCXwAAAAJQTjHEwpJZCVTFzt/I4Me3WRw24lE5ueKQtI4syPbFfEpZz0dn7df69X4zP5BPSrf1nJdb38i0bxY2Pu3nz2lFjGNF1/uAvwo2KAABvof6JKRtM+HSAZK21AD//tbyUBJ93HsYJs2NoTUkii8SsC5PW2g5YRFLXjTiRbudrC2ahxcckYAYI/HyEzX5aK7md9HjEPt6Sx8URCuPwAAAN0dbtuswSV3FNQWW+PecVkLehwNzAg3jBvB8dZXhWhwUR22rDEuDYhjHqfcSiQmXuoon/o7x4ATV2N3miqfJgBRoQUtm2EYytT1kxPkJPIhWJa+66mo9ocjCtOQAAADIAbK5TgLNTxG9NkVOSp3pKgq73PBsoY69A+0WrBqTS5ypfqPVsTva3Lix0IarSkPifvsryk0wH+YTwMIDBj8SrgDm4xIaZJGQdOi4MUZx9ipKwvbKu5EQAAAfY60MMmaLUBmTGreRCESXZ1asySAlSTOMqtdrE4vC45Ykq4Wc3NRvcat8eGlmWeqNvGA/wjWSlq/SpmoK/dDV/RJ7Xk7CSZCHPp9iAABISkpOqAYh00Ie+BeLR3r2txJsei9e5tWFNmQvzeHP4lBm1TXWvHMU4p9lBxSilqnPqPQJs03Q1e7MJ1r/vC3Orphp5BTbT1Vk05bXyh8ZpraDypK31H1BEoAAEYhk0PBkdhHZ5eCsVY/FjU/xzaUl9KzzK4MID5uEebR9HhdhgbB/WZUkctiV5tKUmBwrIOtX/enkQAfH5qINyRXSsm1De2vzq2EegAAZ8wM0VgD5OXLvW0u3IzfwXXR35EeDRIM5dLlRq3AEkUQuaTWzpWZkZzMKCebSrtKu0q7SrtKu0q7SrtKud4TgDjSrtKu0XgPCFUhI62aVLeqhNeSjeFm+br+mOp2Hrd/uwAAFSzRiMtO3AWPuwIMv7McVYo32h+3EzGLZS3lbxanMSQ81eIFVtTK4mU2gOoaq4I1gdQ1VwRrA2NkfNqdqbQHUCAB+dIxELMWfOlM/KZasWjQzc/QS1qvaKugu3NjgAAvGe8yd+Sv50+TgRPkP9Ec03Qr8SIEtjXEQrnR9EJEUaDHBqefAX1/QFJXGlR9GUz2PfA74HfA74IaFO/OOtNRgPpGXI1u3i8MRXshObUsIa4ir942L0ABxD7K2n53r2pjQuT1TlXwLjkVBo5khNBh2uGsbV/oStSQDkOaHts9ullHFu301l7g4z4r4r4r4r4r4r4r4r4r4r4r4rvP5IAC3IGHYs+dIBR/+0REOLdMAM8dftBwUHUF8QADk7QhOte5UEbkcy6NmeR/+7ATvjRVPftP3RZgzSOn/g1TAPvYFWE6ur+Tjd8P/Q81MjdizvSBKc7RdLyAaRVh62fagUMOiQ5ufagUMOiXGfDKHibWF0faIDTvjLEFodLAHcb114SKQR6OQLH8yGfxdrojP8MvR+4iBC5ABUs1Olsevc7L3IG3d/5DH3etLnE90SxxGXyJ/Gw5mJMLdEnhKgPbRl6yM0utJyyiATYCwmkklh0f/H96Qn9BW7jQAOX+H4ttN6oSofbqRqsUs1cK5beC1jnPP7TV2w8A3R8HQrXdvzObdEA6xN0nzBLkdsa4iFjCL/2C1pxw2GPHerkBXBRWA6dMpycsoYpoT6p0e7EGCfdoVAmNzj34X9lVX9HSeC5wn/mAA+1Kv9gl4YsbiPi7PErX+ORl/kvdy9aSQCvsi5cskEWRlDwbY3QdgDn+mT5s0c6IHG77Ndukxj+7cEaAA8TyTAAC93rJostFeFOgbOZvu06Lg1g3N6RJ9QwHLlDgFIBw9oRfx2/kcGQeSvtnLIkuzqDf25ctBsi9VvzUii2HlLOGCM3uSO8SiD5alFgK1Ae45jOdxzGc7jmM56ZcVlEOKybdgK1BMub5GyM9TAFEZW60G9defmFZwolIxWLDjp5md1znDx/ljAFfwGsUgMlmjB9of6LHyczBgzfCxdHcoMsA4lHx9imJjt8mTfYTxKDbqNNsjcRkxSry1rmUyhEiWk1oPbCsVWZ4yTo/gXbzoypt4GeDYCrgXgS5e3PLZwLwJl3Sfs5l3QuATfoBJRzBBSXoFAIADGAfYJl3yDqIReyXsb57N3IeAtWgpVdi0Smew60e6+81FbMYEVY+Mb419mzXpnlN++0emt8BOyvynploMhpDXQZ8gAAAAAcKXQJHW08T5CdcEmh9R0ddo/2c6ev+HtBkANleeidsUt2aniN6bHrSuJyEaSI/vk5X7W2BrHi8Fkm8JaWQl+vYJYqfbt1pEePr6+vr6+vr6+vr6+vr6+vr6+vr6+vr6+vr6+vr6+vr5ygAE1sV4humC91wjbQJ0Wzr9tIf5/kyJYL9ufBLYpZEVe2SSyWduY2KmKr0JuSAlSTOMr1mTmqtphNbtwAAAf0wACiMrc14B7vRXf+UIuZfCBC/rASVTpzoi9G9kb+l8KBpoOAT7P2Lk/wn2ZUHWJuk+YKNkD2js01bqi1jj+xL2O70pKFEvpo5mYUE3kRa8ondI7v1NRC+s/9HVNZAKTVbXqA+CsudOZr7vBWXOnM193grLnTma+7wVlzpzNfd4Ky505mvu8FZc6ceAADhVn3fIbVXArN3uZbk2h6n7Y4pfwgYt9R9QRRiOw9h3+agl/74zifi3bvvTpPUT4pzkKn7B9DJJoahr1PcnxWyALOhFo3sU8jIvVHGReqOMi9UcZF6jgAA4U4hc+XR5GTFJJ8fmu+mFnv/JocYuGOaoDITNFXxSNpn3zaIPPR2SxIGGHbDiA9DoGFHcDJRFCocfRgRiYAAAAAABLLNBXpxu91EMrcv9haNGwl/8A510AAAAAAAAAAAAAAAAAAAAAAAAAAAAAAAAAAAAAAAAAAAAAAAA" parent="1" vertex="1">
                    <mxGeometry x="321.88" y="381.75" width="56.25" height="56.25" as="geometry"/>
                </mxCell>
                <mxCell id="53" value="" style="endArrow=none;dashed=1;html=1;startArrow=none;entryX=0.5;entryY=1;entryDx=0;entryDy=0;strokeColor=#B3B3B3;" parent="1" target="55" edge="1">
                    <mxGeometry width="50" height="50" relative="1" as="geometry">
                        <mxPoint x="350" y="518" as="sourcePoint"/>
                        <mxPoint x="350" y="588" as="targetPoint"/>
                    </mxGeometry>
                </mxCell>
                <mxCell id="54" value="" style="shape=image;verticalLabelPosition=bottom;verticalAlign=top;imageAspect=0;aspect=fixed;image=data:image/png,iVBORw0KGgoAAAANSUhEUgAAAlgAAAD5CAQAAABRsIM1AABeVUlEQVR42uxdd3gU1dfOppEEQu+9d5h77uxuGmmEHmCA0CGs9BIgAVJ3596xYhcVC4qiqFhAQboUG4pKB5Gi9N57S0jhexKSySTZMrs7m4TfN+/9xwezM7e+c9o9x81NhQoV//MwaGZWTxtMPiZb6CnhoZBNz5E/yGfGsQl1OI06OypUqChXmFYhdZLwqGTjjdP81NlRoUJFuQJflcw3R1j0a76pOjsqVKgoVyD16R9mCWsf0amzo0KFinIF2pSeNktYF2mEOjsqVKgoR+A0yZ2EDHOEJTw0DuTc1RlSoUJFuUGs+6xIs3T1SHiUMiHWW50hFSpUlBukeZomWCIs/pnUyuoMqVChotyA9yYvWCIs8rKxmjpDKlSoKE+ENc8SYdGv+XrqDKlQoaLcgPiS1RYJ60/SXJ0hFSpUlBvQivSIRcK6QjuoM6RChYpyg+lNhLuWCEt4lBxlUAMbVKhQoSQMHgmd+dHGJo78Nm2E8MAyYZn4VB/7n2msww9ODDZUUFdGhQoVxcB78JPoIeEcXZUayXnarRKuErItExY9QO30E3IeSYguEc7QI4TyVdXVUaFCRaFs5R5Xj3wi3Mijl0x6mjxnaszLTgrDaUwRwlnLdJX7TH6kXeRZjZ9FjwkP8357j2ye1cbgoa6SChUqcgnHPQGRH4VMCcHk0O+IdqxMOSuhIflByLJKWI/oQVJPbm/4pmS+kFOkNwdnBZfT6z2DvTh/VBc6QRfojqNxv4IGvaErYNRUX3W0H/f/hm05j9F+ujqoNQRCN5DMBu4DocBC66gaQytwXmW/4Tkv+7YT58F5QRXUDBAEQw/JuPpCT+iSu879qsR426+Y2NUHDec10iesCmoAHSAAoiS9eDzDkRAIrZnaA/xd2RPOc7B3dBXUGNpBEETiPkV7AVGgh/aojraSvTNsD5Jbku/ypZkiFJMabfCVIQ3VoHOF69bpSngkpNOP+LoyZL0KySHFyDO3ZdOtyZ3Lm1jqF9AYgW5ogADvw69wHG7gLPxIbOlwBW+DL9kXguLYrqhpkL89C8h54gaoRWFjGjAuuN1k8OpaV/KWpkyVkn/DVEZN8v9/E8bfGgkE+aOWbPegOPZtWAWH4BrOlsxGBpzEO2B1wGv6KbreqDmu4dyRQpULeo2bGSrJm9FYf31t1By1QK0w1nVhW8mbUc490B81Y6O0o+Fp+Ar/Af/h25Jx5cBdOI63wVeBz+rGaiMCG8k5MvajZwWmHu6kiw6coHsGPobNsB9flfTi8QxfgIOwGuYHUN0wXVfURFtN2Q+lwSe4Ieqs7a4bH/gCfAYb4BBcwA+L9eIK7IcN8A5O1o7AQUzDwVUNimfv5GvSl4XbZigmhx5Pm2isaePXtUiicNomXeW2a3Qu39D604xV04aTXWaltQf0M75BuSErphLS62fgBbAJHytCUyVbNr6Gd8AiPAu6hlaRm3yV88MTYQleVtDglYhOSmvFnHuXdrqXxDd8A08zrcxQgx7m5//FQuhh6dsfWgW64iT4GvbgokRVst3Ee+ALENhB2qaOHygIgcX5Pf80DGwcNO9ujaALOzIgBc/L/RUshw3wM5hQbduWkr71cRROgc9hBz6PM6yOKwtfhq3s+/rpSMdUVJQo/HWd2afgdViF/8YXcKbVXjzuyXH8J3wCJtxP10AZ0mJ8EdZPYd+F9XgnvmazBzn4Hj4Nv8FH+mdwb6a2orPhbRwhHLdIMhfpS2mMpTFz7klNqSCclEVXue0ynZfawfLTUlpSXjhquS/8LNd8vuyWS8JZeAVvxefxPZxjc/Eetwf4At6FP4RwTpbTk/PUdcG7JEf/qo4E+is7DlwdP42vF7wBrqEkxsyVT9QHH8r/m4swzYK8w+I38S58WcZhetwe4qv4EF6OY5GDd7ZgML6S/6xrKMry33WvhCLZN7Qr8TZ8DF/B93G6ON7PUCObbwnSLcG78BX8UOY6Z+N7+DxsgRcjwaCIUsZ5soz2JfwjPoFv2fgQFG8Z+DL+B38DMchJ+mQ8USC8jbfgs/iu3X24gf+GD9gI5cwAaS3IMqskc4v+wE/h65iRhrxNPcg3wmXZdJXbbpA1psFG/5Kf6LiafCz5Trhq7ddkTUrbMqermMZ4HPs7vmPXwhUu4E4czzbmZCgjnAdMg8uFv4UTiEMKyliMJ+oPpwu/yvBloNnEsLYIi6kPcfgPfNeB2ciCY7AAdenu7wrC4rzZJqgf/gLvxw/Mvd06YXEV2CYwE28vofLIaTn4FrsFxw5p6Kw9MLARTMU/41sO7bWCOT4Mb6JOTuyT5jALdpqfQ5ntPt4Ngq6NMnY1U1O6xAbJZArn6BpCjCGD/ApWM7aOsS9dLBwsafmy2TKFo2QRP2p8Iy5fWuJ8UjuTeLJcOGXraXSdqV2ZkhXWoC7sR3C2mBKYg7PxXTgN22AFLBXbetgPF3FmsW9zNr4IK4OGjZARqYGqwouQIbGW7GKQUiPprkEhsE3St/+6hZq3sVkjrD4+bAQswmeLfHezcRZchYOwQTIXS2EFbIPT+B7OLjIfOfge7MfPDG/EaJQkrAgNUxfGwCp80rIaZ42wRlQLHAmr8aVia5eDs+Am/A3rioxsFRwoMa5cojjNvo+CsMOGZ8YHRcMKuFjC4JDbiwdwBH4pMcPb4YyZnuTgu/A79OnjgJzVxxdHwTf4cgn5Mhtn4WtwpNiOXwob4Fe4jLNK9gGuw7qwPsMUUJCMXmQgPWyTZrKEm8IJuptuymvb6EHhrIV0fXLaA+EiPUR35T9th3BUuFbCzF6ynSVTjGUXRMppwqvjCbCnUKnIVwHOwUo0ScuGNQlvGFE/sl5Bi6gf1qhvZzwaFpcQpTPxWXgeNWJsbmaoh5dKNmwGLAqvqdBoWuMVYp9y4EJkn2EWhHZLhMW496gTaIQT+EH+5szBmfgm7Ie3UP/eOKxxRIPCucidjfCGPdsE9wICv+PL+KFkPnLwXbwG6RhPZQiL0XSr3mUE/ICvFlNQs3E2zsQP8E18A9/AN2EhMisBIQ/UHF6C0xLZKgdn4dv4CCxkR0R3DmskXeXckfVqHdIFTYHVeSYC6bgewD6cEF7dkaJRyBdNgX+LjCAHp+Nr+CAsQDE99BFNwxuYm+GQEDQZVuJzRXqSJ8viORFV7ekJp9H6wgQ4UITys3P7ADvhWTRIi8MaF93xkfUiGkQ07AdREUDhZ3wB3y3S/0x8AaYyCpg1JlU0mYSbMqkmO6/lOExVRYz6dj3tHv/epLLLqsV46Ztiii9I7TBwHv8FAtPepmDfHFLhV3xOPNp5YjK8g9qHe9syi+u1IFFL4DKagyo5PxrkjwjcFunqPKSBxY1knrAYd9QUXi60gOF0fBxWgIGpYfMg+EIkfA278Q3p4YZdqIe2ivwDZYmweniilvC0+P/yiQNfhROwA36EZfAqGoNiUAwaiThU3cxovVAQLJcoQLky4FHYCHHBDW15eZnO8ALsgqtFqOIcawxrZK+7hPFFQ+BYkTHcgN3wXmAvg6wYaqYDPIP/gvNFbG8n8cyQurKdPpqQWmw8PiElHLgEu2AhRPeUQTqclxaDETbhc1KlGi6gSUpQlrEp/dzaxZpy0DLpRmO7MqQrpIePJMcgB99kN+OEHu3lmVY5L10LPAlW4JtFvnrf6kJ72aAs1g+GwW5RysqGA+wIZ+8qMRXRBDgmbuWbeEFQK8uH0RxhMRrUCF6WeIsuwNd4JFNXdg+8IQjPhb1SKQYO4qkBNZ0jLM5THwjf4HtFnB174QucDAMRE1LDFuV0rQBRsFFCV5n4KHyMh+uay7O/MBUgBL8Eu/BdCVFc1L3VrYM9lGXwwTHwt4T27sM/+HnQcnbcbjN4dm+PE9h1IFXnTuNEuTMc4M9OhH8lfbgLW5ERBTB2VOzjKuDOeAqslXoV4QTEKmHL4jH91VboZxm2HLqXDytD2xVqCV9JzOzZcAxeCNEZ7LoeyXljBj+PL0uNkbBS38yWjBVYB9IkVJnF/h4S7oyrmvPA/WCvuBUztWuCsbWDbI6wBleH50TpKhvvhnhowtlFo5x7UHXoC8vxDfFAPYR/YBzyd4awdHq8pojKfhy/jaJwfU5mDJu2F94mtRnBTvYptr49Hi7OI7AGdIeFUGj/yoZb+vnhTeRLjyHh7FaJMvUQ1qKBEVUc8Gb7dOkMAhwX1zob/kYDGRnrZPAICoW/JHR1Ez6HCMaBPvTxhfb4Vcn+zcZ7tIocZeMwekIhVU/5dsv0VNkFMbj3bA4vSbxg6ewfAeMYh643dvNjZ8M2yZG6D3NtR6lo2+FPJZ6iB/iLgPaOUhbnoW8H34g9yII9+sHWJbaShMV5B43A5/P/7Q5sQv2QgzKftjPMg3MSGeAfGIp8HCMszpPV4+8k0tElWA9jQu04ZKg9rJMc0luwBvr2dyhcFzWGZ+FY4bPgPE4LlSnboLrwrvhxzMFXtN/owxwPGmaqoqlwUOzJQ1gKMlLTBdbWLZT0/hq8q3XYz8hpghqxz+OT4vPS4WvU0PlzyXmlxQv3yyVd3TPOm1x21quoarpnC6OKIRO+Cgg3OFzKOqISOwA2SY7FJTDZoizOI0ynXSsaP3Nytz9bw7H3s3VBECkiB07gWbaUhJKExerg53w55C58hUKRj8ObzgM3ghSQWErgVxTCeNhPWJynLgSvEJXBbDikfzpQaw+RohawUKKyn4W3EDgeRoLqoEmwRyKT/4tHsDJUIc6T7QU7xf1xXfthFDI4FcPEVEFPgWh7hSsQb8sKirxgmGTHP4R3oKkzahynCWqAc90z+R8mOK4bb1DAkjW5Cnm3PBIW/Xp2c+Xj++X7o2IKo5UgEz5HbZ1SyDTBfigc1heK6fgfPNiWymLwZgdJrBpZ8J+2pyO9MPgEjZGoCHfwe7ZNycUJy1Cd/SBf3ryn+zyUYZwMCUTV0SQ4Xyg/wufhtewnLNwI3sQ3RPPwNjQ0tJY9oZucN34eXxVlvVsBr3ZpwTgV9QaVQ0fARYnJ+s+BzWz/Kray/mnJODZp9QanQy6ZSjBTHFkOHA/obF09BX/4TvIJ+Q61cFoacu/eXPeGSILpeGlAawWUQg3flm4vd3T1D4kyepYZXQ1rjP8QD3gGfKtnQ52+0om8UARsENWyDFiB29tiZOSL4gq/k7l2o4CAXnb2pJenPgofKKQ99rfe7W1bVooSVm8f7TR8Jm/734OlLKPEdSFUFXg4K47tDsyQEfBRhLCYajALTuUfygzYjPrYp6T28mHH4CPiob6hf7NPE+czTg707zIBzopPzWC/tO1fY9vj1eIvTqFYRpEIcVQb1ksoK5W1bgQIgn9FujobPrCfAsfP4MF2grWik+UYG9tHgbuxM71SY+h1h4glS8gQbpJfySJiTBk6q9ec4DkBs3olDeKTyYdks3BJSHfQpH/bNHNmxTKjq7CaeD6+L14nWa8P7K7IBuruy/aGQsPqDf1czqaFo1sV/KzYl1wlY2VwS7uUUffAjvAlPBS37d/QVc6hLEpYgGFznjqYCZtRAKPQfXyoA6+DaCWEQyjYFpEWIazuEAh/5h/ITNjCdLZPlTO4s3rYJBrbr8N8aKqMSK+rgqZJVKHzaLwtAgIOHxflkE+6KXQZi/FCQwsVb/gpxOqlJDQa8h0qkA5va2sp1Ad3GINPi7LjIqTIxWBTA7rIWiI+s1R1QzhNvzQNm9GQVCS+Ju94D4P7UM0gjcE9zsPkTXxIxel1jD3JO8IpWeGhRb2Dq/j2ZWdu98JTxS9kNvtnQFflknZwFXQT8BmRfvZqe9qWVSJqwtpC7xHcgbThdkQOB/oXIYUrMF7m11lCWDgFJ+NLj13kqJdyM825B3bES8XvbyasDa4nm7Cuo5Hwaj7dZMJfjN1JPXrWCpgrOjXSYTlSMH4G14EXRctYJmxkGBtySLxInJe1/RU0bNSHLwueDCdRT6t/+7RIsafRKMZHsVX2wV+La3wIeirzVNqLXrCDrC7Sjfyk+Ma2DSqcZkodfiRdKZy14zrPJTrWrewQ2YZdn08Q2XBKP8NxU7vZzVmN/bhQYtIviLCZLoxxR11gt8ThfTSsj1wK5Tx1/SWexnvaBZE17ScseD/f+nYf3lJ2rjkPNhr+zj9SOXASRlrfUhLCugWv5qsw2fAPHsDaqaRyGtwFdopeuWP6GIXH1RV+FY/pOZhkbVx9qgTMLVgj9r/RdZTrB+uLx8MNUW5KtLZT4G2RsHYCVtQePF4MhsnQxSlzPZzvRDfJVdfoz2SqsbFddrLa/Bi6RrgqL4CCbkrtWHbylY92oijO32YXhbRW+g0sLrzNB/9CP9v2CjY36cwRSRqRzVq9rGPjpQvF2yURTyu6dpJro5EQ1jX4FZ/M6+12reILo62NhXzpLdf7+IG+gUzCegBbIM87CBfx7FC7vafaGuyLogf2Hn7aoHA+bqYymi6qQhn4W60VEzZTHV4XVf6NXCUFidNdGw6HxGd/YDm2jPOH+eKuXAOK7vpQjA8WPFv/WmR1JZ6ZWI28LotMLvEv8KxDlNieT6SH5VAWWaSsUGMXQlqwX4kb+T/tEOUz23BekFqQDA7S0evIpszDaQLrwjOSENZ7sFiOD4ftCF8X3gmDLShCvjFXQljpcD1PvnsAaeGVFJ8ND6yHXwoUcPgbD7ImPUoIKxvfzJP67uB5QY3svbdn8OjSFY4XBlUwLki5hhrDN+Lsn8eTLY9LQlhZ8Bmn6BxDS9H3lwNrLT+7CGEtUiJiqhAja+I1BU4fWKkMGXLuZKaQbpOutpOpU/wdP6n8QLpRxnWc18qMrjhPdjg+JoZ3foSqu+It+k6wo/A2XWSIHKkntJVucWEYa+49QMZG35ha8By+KFLBUXZCoB1HQUJYOY+fAYcQMC6IM2H8JDH99+BttqYswiqQGjaxWvuvGQdU0r4g+k3vwRTkkmTWMBiO5s9/Fv4aNy0LwupRLeBlca/tlElYn9rOGWbXqaqE3xdn+zdgFLJiTRTu2KCrjaQn75QtjnfndfQbW/HtxFhmhIXr4fcLrEVwFLnoXlBgJfhApJ572hl6OdcmPLWhsFm0imThPexAa5dHOG92FC6Mdb4Ir+EW9hxsCWEV9PQF5KI43u7t2K1iUOtf0MUOwrrAxofYfcANmt6dYHOhfBXQMcwlAX/RTdnV4or9o+1nScYqohKuV5awDB7amaJ97GRsfVmEpUAMVlEpGojoVNgDulIhrAd0Nd/F6HQQhdGD70yXWo9wp8+Ulf1Kg/vgU6LFZyHjorIJoe76SNGIngNLQRYRRFTCw/BByQXdXyAEWZDNulfQRuO/xE3yEL5DbewLiCxBWP9AIOOiOF6DB54jXpV9wKb08JZJWBmwHvT2y1esBx4LV0SvK9VWdtW4YIIYNnkHnrUkr0dV0KaK0uyekQ2V7QWMLDB5s+cMjS2rWPCmSFh7gFW2D2gK5DuaYD8EKERYk6zUcM6iG0w6ZQI5jR6m9vRLK4EOD+jcslIIKwUZRRP1dTTUhZJc3cKoYjgNMgXwnhXZuZK47GxYhtqZi4li3BHAKpESH8KP9itzxQgrG78JtV03H9p2sEsc19eouUzCuo5NPR0Q+YN84DPxcJ7Qh/VyWZ0XaAt7CpRCWIZbWyJXmCjehjynlAQiPnsQHM3LBXaDPTjGiq0OJYu6xUXtwHBFP9YoBs4/7gP8pcz4BnubjNaSvJg6GxVbVaPG1JJ+YdliRt8vk2qEnIZtKaGRP7EL89owFWBs4WVo+dRoqMG+Ianecg2e0dUsOQ5tfXhVvOiRDft1wxzYYkUJ65o21pXFrAw12XdFA/U+XTdLG6AYYe3WhTjytuBGoufsEXwLTVy4p3xhuSjnbgvqNtQCDUBPfED0lL7MKOpzQq1hEiTktQmcr1VSuSRab+fpFP08Me0h/nEf0ARlDPoza5rethjGuV/5JC880B8tRcGT5TMblQFhDfcM6QaHxWP+SU+XhtqDTnzXI/gAyZZ/mIawXpIK5bg2Rl+MSPR+7GRRsX2E77JJhupOE9Z2bYRrqyxCXAHFwvWAGb0rySCsLO0yg0PKHOoON8XgiDjGpRVOILGAiOFk0NjeFqgoL2OEmCEMupVFRUuWhf2FCXZ0wUHlsyBoPoje4n3Ca6bprnijaRi1UCaM7ud7lcEUdKsQGCtaNu6hycilCwYtYZW4PfaNtiMdCtu/0CGPH8HvqIjXBblDDwnVZMEqxqEvWhHCyoSvUUvXzj4KK7jJBunwvCVrTxHCugZJDs69UZRu/4UI144rJEIMR8mAp5GFaC9dVTxXlJzvwmJ929KnrC41YInkMvrL/euWX7oy+pJplnKPkm9HuuQTxHmTdy288w6fbCj9LO6oIkqCfEsC3NTqA12aKgLVgtfEb+/ZLnbo9VGVA3lR4csLB2Qk0fJMc1guoas9KARpnCas2zAP1Xft7Ac0gd3iiD61pDYUIaz/ULCDhPWDGBVkxV6mDPrUk9zm+wosjIvzwH1hn+gpPQevsC1Ke//rvNjhkn11Rp/M1CufdMVpkjvT3yxIO+dJJO+ik8u3oTvNB5KSP5NDS/0Tg6rBu6Ipdr/exdVboysFxhd4b+AKGmCHvUcT0QTekaSsuwDxBXk/OR+ghZsOjgZPjXTwa1OEsK7rhehqrp2Prj6wtFBq1FvIhiohrBz2z+jGjryJaYgLshJk6F+IruLacYEPrCy0i0Ibi/J9U+0ScU2z4TS8qG9Z2kdA1wRWSPO2QhJTvzwSlqky/5alWjjkXd7fdW/mZ1vwFmaSL0xNSnkaglrBz+LW+gJVde3bDBVDDfioqATMtuvI5XoB1xZmfMd7ID9dMB6Fj4vetmvwXJf6juYfKEJYZ1iDq/0gyB1M4uyfCudivWwQVib+fqhjFqwBYlGRM7pxQ10syiNveE6S2dxi0KTBC/eFg4UeYHwNf9styFCqGZaQF0TjYxLP8Dn4QNuB8y5fdMV7kCnCDQvy1WnSxehCUw7fiB60dGORPM9XKdWJCEFwUtxaU5GLN3KMl76/5PLLPPuiiSIq6PrhneL2TofVSMt4oijYIdJYOnyMWjgeOVWEsP6B3q6e/UGabhHi7N8OHznS2wZhPcBvcw65RSBBvIr7t7Yf5+ViEvCAIZJboF2sURsaCwckDpWH+G+gKAD8mFKTtFBNSMCHC3No4Qd4DxA9BPpznuWBrDiNyZdMEi5ZvNX3hrGGK99v9ObnWAymuEvmkmqlOBmRfcSsUdn6bv1c7iORZHNKx+/Ye/hGVQ6MwycklLUUDYFlkixeq4FBTujyEsLKhs0Iu37+2YaFdW9gNvKzQVh3caojhMW5wyei7fA3FODqUfXTBGFJwbaJ1vK0I3c0EPZLct3nwH3YD/OhFzTRVeRKJf0uUxPmYGllxNyCrHtgfvggtqlyKWccpIsKiW341y1JV3lZ1YcOdim5D9Yk6azE1z+kn9MWxtK6CI0MhXXUoBQOKOokqnUZ+ONhdqugnDdOk1QpvpNX/7fgS76XjXFOdihCWCtRK9fPB9SEX8QVeMe8Sl4kvcxTnAMHaFhlvFLMorXGmWLucmWC4E4gBpnAdOvVa5AHGg478K1iFZTvwm/sHDYUtUH19FVG+7rWtsV5a4fiXyXlVwp8t7/AJAiB1qg2UzW8Aleq2csN7gnVCUPG09+tZamim3mXp3nh69Jl1gq40v1kOtEm1i4FZR6IuDh/QOtSIKxWUJDYLBOv7dXUAZmkJXwAt8yUYz8PyYyTonERwvqaaVAKhFUVvi70p5nPYVEkgV8/R97SqxFbEMd2Dz5BzUqBsDpIwlRfQjakQsaLDdJ+BGdLlKrPguOwDt7FqSHD2FDUrpsLjwTnrQ2FxWJyHGkfTsFqmIfS2BEQilrj6q5TFDn3EX6z6pja8gwJIf3pFNMr9C9bRVTJa0nVXb2eSX6meBuXoR/Sfaa3yHQaQyJ4hu+QWG9URZd8YuBjcVsdBArTXN4o/JUvemfCeqatA4vqpdPBTyW29j14z/loYglhZcIHTCmUL0KV4DVxBVZDHRuEVaxUvWyVpyVszJ+xB/ALmFy/zuzTEgnrQ9sXyA1ekR3wbNgkSSckLfx+Ax+A3+Fb3ZvsbODYdoYqrqEsaM1Ohd+LVHsUb3Di6/gY3pFbTxvPhGjUTklV0eCf3JxEkwkkmX+FX0hX0Y10Bz0jL1EfP9H1flVOY+whL588vUT30k10LVlkeo2kkckkxth2gJIODPhGYu689fjmk0vbbdFS4CBh5VJWlxh8sljClZ+QAvKhhLAy4OVSUcn9gBcP9i9QzzWEhTqLxcpy8EN8uxTW+Zak1t+HcjJecO4BlYGFRNgC5yXWJGkJ+wz8AN/C/+KNusXwDMSi0B7NDHUGK3o3I8IPB7HPwLb8bGjmyPMBvo4P4o14ETwPo1BQSONR1ZyTuTgv0yy6hh6kl+0vSU//I9GlsU8JpnvsLlKRQa/So3QD/zSnnDMPdpldltJoDhOWm9tgSaqavCNxF6YqQh9lS1j/QWMXEVYY7JLUhyzlJo+w8mXBitAZTYav4aCkCIk58rqDT+F97AbdfDYB9QhqaVDMU8Vp9FXZADwNlsBheGB1ZPfwSbwLr9W+BuNRD6ZT1yqO2biMQLc6XGhrKx9YGvuUb0XXOFwO7HCKcsUq4NiTSFjDG+GdRQV2mPc/QFinoKmLCKurGFFezgnrMWmxjXShaAYsgWOFuWPNtix8B1+Gf2ELXgRj9a2ivZQiLW3FwOZdu+JZ8ClcsDFzmfg2vggH4UdYgJ5iWoDdpEUG06MOE9b3plalsU9N9cgChwnrEpnoCsLKwhk4vRTbXVjliB+O00RWx8tKbOTLkIC8VMKySVg5OLNUVzkdp8M7yO447C7uqAL4BzfAIfA8/IaPwWW4iR/ghzjTjKSYg7NxBr6DL8GPaHRIU6yIN4/TxHqwFVClsIahfeAV+A1OwWV8F6fjDJxlhsJy8s7PHXwWvmb7BtVGPvKjAckMesVRMjAtnFC9NPbphEppvMOEdZe84gLCgr/hQ5hXiu11PJ5z4ApNaA2YLSmzWhi9cxD1ZbxVwrJBWHfxz3h+qa7zPBTlXFJIg0f/Nqg/mg5z2S9hLWzDJ/E1nGFe7oFM+A2mBbRFimcdYRqjaEiBN+Fj+Bn2wQl8FWdYULNvwXoUj9oNkBmbRJ+xnafdImG9H1sqkeaxfmkpDhNWJv3cFYT1BqrhVu7BucMgsURWrhXhongXLR3WYB3nrhKWVcI6F5hkqOb2RILzHl0rqCUKQn0hCS/Gm/HB/JIcxUnrFqyHydrGnLsr9l+XGgyDQlA0TsKfajfgg/iGWeq8BmtCxmFZuR+E1x0vFs+/wZVKxgTOyzTdiaL2K5UjrH3iMi9Adcr9lvXQd8aF9wmz4Hd4Fv4srCqN39DVf4IJ65DLjO6hYg7Qy7qne9Zye8LBuXO++obQC4ywBP+Fb+D0YsSVA1fw2yzDuPAwcxU4v5j6qBdOw1/i3fgSvlecuOAcvAxtbHsQhRftrLksJaz5I0qlWPyICsbZDtNVtrBUOcJaI07vSmha3rdpQHP8tlgiNRv2o1imISSIFatz6/wmOFPzR0pY2rdKo+5akTisH10W1tARfss/0rfgzfKZjcBBRa0W6sImwgL4GRcPhrgG36CeyMf1u1JfG7rq4/G7sBVfKRofCLfgU12gLcqiycIth1XCD0pHXjZUTDM6TFgP6DvKEZYYhwWboEX53pxsdTxLclX7HIpnKrm5ofrwihhumAN70EDHQ/qkgaPs56GlkMwNVYYPXR84ihgxDut/jLByEenLNGAD8ET4Ai4WkXLuw28ohCmVHKIG34CGOCgoHlZJsms9pqzPcAcbRvex9KyjZECWJDYojfElVudfcZiwbihYEkzyfT8MncrztjR4hfaGPeIXLAO+CMqPbA9sgddJ/n1VQHvO+fQypXU1pwZslLj/q7uGsJh2sDl/hu7LK0f75CmJej9oikbAdkgvEjqzeGCz0uvFAH+2LTsFtksU1Bx8E95AVpMC8r3pPw6HNWzkO5fGyPgmdInDhHXS1FO5AzNbonFD+d2QvTRBHdkNkjJhu1CXAqMq5456w3/iOO7AK1BZAcJajdqUAmHVhaNiz5837/53nrBi6rMFlJ4O35TGuMpIQawQ2B5eh1MSOesW+3TfiqVInBq9H9LCW3BGQlrXIdVaprm4GnSF8FDIklMgvgRh7SVdS2NcpCP91QGqyhGyhUy6c6Jy7rxu0WLi3AwIZTTldStCLVhaaKOAS6ibNF8S8oVnC2+AwR0U55i5tQhhbUVdXD+uwE7ixs7GcayPawjL4A4LC+Ynt/yZ2/8sOA3yhxi8RZS4c+AA0pUybbqHVcX9YLtkv/6t6xnpZbnP02ql9SBvkHX0b+GscFG4LFwT7ljKLloiOfKw0sghwYfQE7LM6xnCXeG6cFm4SM/SA3QTWWgaEldPwR52Dy+MaYL4ss79Y3EL+MEcMUNDDr6OZ0IxQsK18NLCYFI4B9EGb6cI6xE+BP1cPi4NGi72+UbEcIO3awjLzQ0EsdzDP7gPp3H7H4bBO6IPu1Oki3RY6NoaQRZmPBJ2ix+j+/CmVoYPnvMYUWNWJ2MYH0OSyIfCH3S/cNlSmS3RT0inutw5NNXLOMYmVV2nB+lG8gmh/HBjWCIeVdslaSJD2sKv4pH5BFUpjxuQ84T+BdVl8u4NLgxqUvzIce56DFsKL1bj1V2Rk4R1Tjve4PrMnG+J4zoe1ne0l8sIyyA+44zWUN4SACtOWT5Bg2C3KGUdRiFlsGt98Ag4U5i8KVw/3E7zv8EroQOZSVcIZ4RsKzLWUr65q8fC1yDvWlX8LtN1JDURG1z/YQhqJCmDsM+VdY4fL0FoWxgKsXltGFNT3q90LKyV5K/cirqbi2hnfNBw+FcMcLgGc+2PKytahEL3dA8XX3uI8oXNhbkadIx5yUcJwuqCxPwWd/RJI1y8sZA7YvNXORZFoUqlTxe6qlgQk0Jfw8aySHYcVg0+Elf3WlBspEOfP2MdMpb+ZCUW/qSpB+diT2hqO/qvZbqiu+kMY+NSmlRUFd4QrVgXEXatFSvSXzcj71LDVXwV9neTZfxFDeAjUZ3Jhv9grKUDoK2L54k5I7PhhHaGoaIThHUH3kYu9hPqWkChzexjS29TgrAM/rggNXWO9tNgF9fsBR/46vEq46uwsGSxNFwZvyw2l9R+5DxwD/hLdDR8pisRLAsMTsnvQZpr3E3IA3rhm+L6vgMOG/+Jnn5pOeson5joUrdCoqdxiBUJ72dSmgVVGT80A67lE9Z9NN61hVRRXXinQG2DPaNlfHmZapCARcEaX8HP6i1KgZw7DoQ1hWWj2G2h/e0L/ixCWFmwErV37eyj6IJC6fAAPctUcx1hubnBuwVSKuwAF6ck6d8UXxRn8QVUYlxQvzCTvS7aNfIB0wI+z09R8xDWllxJGI4LSvOegtEuWt8GsEES5+iEwYVvQ5daSZLsUqWQVKI/WHz3LySML83CbKGeuu5wQPSovNnLpeI7dISt4gJ+ZjsRB+epjYJfRHXwPiyDzta2N1MB9RG/q7k3Db8KQvYoA8VK1e/T9nBlNkfOB1LEg3uVHRtawaWENbrgXXAbxTEuNdTqBhd8NuBa0GSuxLugDpwVZ3kSdskFmtDKWMDX8qWbbahErWvUF/7Jlzkv6BMNLskuy/hLUpCfgZpOEJaGIItl6u/x440utEqaIoW7FujqH9Kb93IrXeD2ksqE28CFYWjdPXQc3BPJcYJN+tBAG7xEDFfIhu0ogrFBPxFV2EQ4I1qybsPT2hoOE9Yt7bjeLlwOaA1rRDfBYRxlyXenDGFFdxTzlefAl+BCpZBxh/fFcW0P7Dq4xJpBDfjLVris058DDcTjSwX1siGmxFqHwY58Y8hteFfb0BV9iPLUDRNjwrKwU3d1Z3imDqRXLRDHn8RltzJ4T/KVeaM/PU1GktIvVg+1cKEV6zp6ynVvYutKCi5cABslwRkNagYLRLrKgaMwHsmQd4Y2YAuv6jyCG8HTB1RxkLBy4BNo6KrZ4DRoCD4rhmp8aplClCGsHtVhuUjkZ3U9I1wmOzKdYGv+jsqE78yFqUJVWCau0G7WRdWDEYeP5L/lGAwtsRs7w5b8Xj6ElaiDayxp+t5wUVxjJ5MLpFUncy1ck84mz09wyXoaPPnJgvls7lmm1yZVdSt9cB7aIeKXKBO+cpWyEOyu6wl3RSpYDDaSuumrAcFXJT67NLkFrphm8IMk1vlw6Ojevg4R1iN8FXq56i5acF28TFR2r7HTLKuuyhAW8kBxcEcs2fG63kUeUIM3NoiH9A5QbOZzgfzgmcIMVroewS6ZY9QP/2eZsAzV2BVinNQOiHBJMhoPfS84rxRhubmRLvSABRnrRJLWFXM4W2ep6jM9QYa6lQ0C2rGrxAN+Dga5xm4TUhkWFVY51k0JsipMBnhoexRet8EZeMkoO0IuUJhoUM192xY9cpCwHsE85JLb8JwHjMEFdWVy2F8CrGw3ZQiL1eBQOCyO64CODXaJR7h7S/ZrUS4+zg4xt5sYbzRWUkD2bddUHEcxYgl6M4Tl5gZvi3njL7FxrohN4zz0feCKcoSV2oR8bsGOlUU38IqHFvB16SeWCmOQTakdy4iwDD76aYUyFl6nc8nlWG0XOCFao/ZEhI2ySouoHXxXmKoD/mLDtXYcryCfgDR8QVIC7HV5MV9mCOsIRLrCc6prBN+Idp47updG+buasNzcgurBl+LIHoAJuSA2ifPEBtGrm8V+G2w2CbbOk+0tCQX+E7kksRFMwuetElYsPifu+sVaFyimI72ChxcaNZwnrFF+pqctBhjcoq8YFY2jNFYjycJ5i3kiFhn83MoKqDOsFY/POe1Mg+JxHYZq+APRS/UA3gyob+16CFMX3pZU4T3Djo20y3tp0HRtBV9Irp+eg0Q5X9CShIUz4LVwxeP/GX80AY4UxEXBftzXmlSrFGHpvdnRYlzQI/gHucDBwrbDq0VF97R2oqGCefudrjWsEy2nF9BIF3yGK2pT8WXxPqGZa1b6pnibqFmcgbHKX+DpUlGfIjEvOJ04kXMnM62EkF4kvHKUZaxKpgrHrBROfc2t7BBcGdN8F3BuJqgf9EjpN+h74xPiUTkBfa15+7gKEIfFpHz4AUtDatp7+w15oe6wTZLk4x+2l12E9QCuPz5QcBgrPhuAJLH7d9iFPax+3ZUiLE6jbQKfFlIxu8ygcFJspiqY8kki1yu2XG/RZYGqoefgvijfrDQonp47pD5+K5+eM2ErCjcnDcIbYtReFqyDtoqvcx1YIu76naCAcYFOFO5YCeI8SeYYFckna/QnkwVr151vKZjjyhHmhnD4XVTBroHAKGq5YRrC9+IBzYIPrUeQQwT8KfYlHb7FDuW3Qr7wlCTk9D58ZbvUqoSwLsN6/G9BTiVO0W8vqgnPipJODhzDQ63fWVSKsNzcGA/oJylBe1ln4BS87s55anvDzny5KQdOwjjLhuwwb+2AwsQ6+KpuNqfwxXsUCD/law0P4BumtXlbpyQh5BWIV/YSEacJALgsPn+xEk+3TlhCtnCBpBmddqcYffjxgtWkgvQaSXQrS0T6swm40AF7CmaDQl4kgwaawXuFBxTvwT0se94MGmgOS0RjaBbs0HKRDm5l1ABeE+XGHHwVXreVkk9CWBdhHizJ//7ewM9GKRZYGFAZxYletEf4Pn4r3MZMK0dYeXcNXhTn5CFshWilvKBIAx3gW9Fikw7LmTY2pI+3RaU9Bx8EDino7BlSNaDQx3wdC93MGjm6VYUFhel94HBkz0EK9gH88UdiIEk6TAAFzPp0kqUgzsLi9fQd0mSKw6tqcOerEiLcsPGW+/R5t7LFiLrsMlFAzsGHtMN6+Ruc9iNxmugG+mclVHg+IHlEFct/3buRvjBrew4+q43r6fCXl9Gg1vB5oTcKn4bJ+orWpDUpYeEEdky+lykHjqFxSBET42C/sFGSKO9svGu4zRBOJQkr2kvfHf8m2iszYDXCjALGd+QOLeEjMcFPDhyBQdbvpTIatjveKyr+D+FHFIEU8tQhT4jCYmgq/g8smgNQ/8KMCjgH/wFtlApvMHhBfzguzscf3UJHO02GE315QUZWqiy6NzmEdyhGivef3YX8ICsX14fGss75gbXwq8Qzdzhk4iAnzc0Gj6712Zn4mORC8SLcwjJdhVRnZ+PCuJUruhcMTvYAd8d/SooTHGJHB1WUKWFNwy2gwEGfCTvRSOeT7zCVwgbhvyWBqadwjIwvtYKElXsNWh8HJ0SiyIa1KDSwkrMZsvKCfCV3BHRP21ajDZX0aXBF7Mk9WIWilCgagbxQAKyW+EM/sqxu6vy0b0n2Rw7+MbCDEmE9nEfXUPyj6Fa4z87T1XT+qabmlm8UFlPZzpG5pKPRLiXU6Mu3ISnCOZlv2GTqWMaExfkExMJpSSXow8FTnbFlGdz7NAlIgX8lOTW3a6Msp/UKqsD2E20geeTGtnZ6TN4Bo/FJyfHcgAIYD3mExXkFxOBD+b+9DzvRZH1NZw42qo3GwY7CkFa4BS+FVyttwnJzY2rCM5IC7BnwMxujd8ovjFrAm5Ig3wxYNlDWDQHcEb4V1f9H+C6sRd2dpSzkgXTwteSGxB42wNoe7Zr7mc6W0NtiPeMsZXEeej1eJToVHsGeLj2cz63GaUxRVtK8lKxV8zuZw7PxVWzLjJxmRhUSTBPoBuG27OTMh0k/t7LGoHr6F7E0if9pSGUbO5ZLiNGwrfVv4CMSO8W/2hGclUSxulZQmDU0G37TBiqRs9CQm8qkUC28De9YvrtWlLBypRF2NpzPP9rZcBDTbq0MDqkMnCfbFAQ4Ijka2fAtAjkWJKUJy81N1xzeF6PecwnmD5gW5qD8yHlhPXwqqvG54/oLhcuLXeM8g/uwhyS3EjJgE4oJ83fiUHtDBKyR9OaurYAWxhv1g4OSdbmJv2WjGSf6wFRi++C1EiK+DkYlwo+Tq/DEUhinRXvWr2QeGWXsMMLH8vqlNiMDyBt0h53PzqBv87XLmLAMmp4t9PPFcLrc79NF+AB3D6hl7zfHUJWNgiViHqvcdhamWyOg0Nw7jXcLE57BeKVSrOpbwyZJPy5CXFQleYTl5hZYF94HMacRvqxbzPYYaadwz7kH1MUcXoQvSY7mHViOguRZj5QnLM5Tj+DLwpTSuRkL8Fyt3lDV3ufoGuPheL1o+8yjddagk+1VNfjhqfCflLLwfpwMnRypZ8x54VZ4PN4qGVUWfItsxn/rquPZcFxCWRmwC81CjCNxWQbvyLZoFuyUzO11/J5WgVBsTpOC6V6HqtacphvI+2QmGWIKiW9mqDO00iA/Q+24xqZAMojEkXl0pR1ym1TG+s8YzXmUNWW5h7SCV0U70uOj9Qe8BJHy7xgaKgeEa1+F7ZJtnBsm8AJjJdYGu+OJBbmh8uwZbzA1lRpTP6/QIWJ0UC4Z/oej5RIW56lnCmNp8nq2U0dxZ/kHCvlCL/wq7JNIebnf/ZUolJFJyMoTVt64tLC8SNnPG7Bem8Qycj8TnHtQPRgGn8BBiUyeDTvZsSE17FGcGX80Dk4VCda9AKvxDNTSTupsjifAp/iohHiyYLM2ItBDxkgaYKMkBCb3l2dgLZrWv7k9bieDpn8zPE77BT4vmddb8DnWKmHIN1Xm37acxE+GIf6ycIzupr+QTWQtXUM2kZ/oLuGIcNGJZ2aSJaayL77MeEa2CHgBX5RWd8M34F/4FAUzHra/mKHd8CK8H98schgua8eztZE1/1wX2C2x7qxALZCCN90GVAmZDZmSanUrmObyCMvNracntJVcacmVs67AbviQDbJ9tDlfiID34Ai+WaSU+kPt8ghG/v05VxBWbuoT1A4+KEKj6fgS/AlzdZ1tGwG6VoMJsAFO4nuSkT2E31B/vd0GfKay5Fp2gZx1EX4HQd9OjjnC4NUdgMIvcBbfLWKN+h4Fh8iaZU6jrQ4pRfZ8Tm4f2C0wi5FV15DzwTp4gd2BzxeZ0YfsmiiGUcCbZnTnOeGmw9TiqnabzDT6lTllGdwjq7Mj4XeJFv54E12BX+B5FBMSwqFezSLqF7TwBtFtONCGgwE+xnvxdZwhEfFzC0lu0EWH+1nbLoOasoUXOnJgV3j/gQq7TPUNYaGkxOZN/FJkFXmE9TgvF3yET0soOHc7n4PN8Aoah6P6Q792hbMRUb97sygdikQjYD7swFdwepFqxA/hH5wcVtceS5hrCCt3XKgpvATHi/QwG9/HF2ADPIt66rr0bRfeoHBcPZpyKCwYRaGp8AkcxbeLfJKy80rDByOH1PjISmFDYCvcLTJT2fgePgXrIRX11IUNYKJbS+a4Qc8WHAoJQVFoHLwJ29grRYgz9xN7Ht5BHeyJ7AqvhofDz8X2fDa+i0/BKkhD/boGDEBRDaXr3L9DHxZFoj5oKsyHrfgCvl+k/1lwEs8Nq29QQLriNDMY4XS5o6s8ykoaMMHTrezR1wfr2cX4VJFN+fiopsN52A2rYZnY1sEWOACXcVaRBXtMcv/iV3VMX6vbOKQOniu543YOTVa+bEE/D10X+F1SiPUEmowqyiMsN7e+HoHNYRregu8WG2EOzoZrcBg2SWZjOWyBHXC22PZ97He9wq6GPn3t/Ca5irByMdI/pD8sxZeKHPfcceXgDDgEW+AHychWwk44lzeu4iNLh20wg3FCPejnqe8Er+EDRVw++T2BB3AWtsCGIj3ZArvhPE7H2SX6koNvwDowMHantMMaFAIL4KyZPZ+D78Jp+AuWS/qwDH6CI3AKbpuZjxx8nf0VYnsqFG48uxXdZq1yTlk2ej4p0K18ILYOHshuwpdwZokFsd2y82SQZfoBtiKpkD+KkySyuwbPo1quGE2erUSsqpN3IXZo8XKrlgjrsUmX1bNv4wP4frHDLafl4Ex8k/0N4gY6kBPAlYSVOy5tQ0jEvxZTW+W2LHwPH4VPIcz560tMdeiPv8Qn8QOHevJYsrqL9+GXsUNG+1xEVIen8AZ8waE9/3ils/B12I1MvdobFDJI87XpEitXnsu65dDf+AblhLIM7j1bwxz4Af7DN+zYRJn4MhyEpTCZqW/bq6LvCVvFb9pd+BS3ctVoUG14Bgo9dZmwNjCwaHSMNcLK620VbbTufdiOzxWxVNjawrfgKGyG58NZx2JxXEtY+SNvh5+HP/D5YiqR9XGl48uwE38Ig5WTiJk6MAo+hYP4VmFhN5nEeQefgs34Teja36lILs5d34Sdya6AA/iqnX3IwdfhCGyC51AXRrEZMVYlKcLFcktXue0ufc1Yy628gPFFoB/DPg+r8CGbxzQbX8Xb4TOdSTsEtZATYzSyYuAg+AiWPm7se8GRrqwgp20Fz8E3BW+DD4L6jPS1h7ByMbQmROEZ8AH+A18uoTwUbw/wUfgBvxQwFukd38Kggw8e9xh/Eu6yMvNdK0IYngkf4l/wiSIBD+bp4ShshUU4DUfr6yudq5NpyA7WPw+f4D9lzHDu5/ES3gtfaV/WT8KBoVWUqGpt8AlpxQ4CCl/gPbI+1Q/xWbwXlsPz7AiEGQXTEXEephh6uFzTVW67wE/hPN3KDww+oTVRe+gO42AerMDb4JzkOkOuMzvXi7gev6+Ng6EQgpr2qm7wlLsgulqoeUELauja2rGcB1u38G2oub5G0cMmh7ByTaChFVFjCITB2qn4TVgJB8WSnQVxPCdhBywLeFE7EXqjzkG1nEt1xviiho/7i5saXFjViNOEVERNQAt9tZPx27AaDuEbRWkKLsB2WAlvwTToA4Goibaqa+JwDB79qz2e4cA57HxYBX9Lckzku03gb7wNVsA8diYMhgjUomuNEX5KUifniauj5hCOR7HJsBA2wi64WkxNvAf74Sf4Rve6fjoMgAjUGtVSujy7sT353kIedzOBC/QsvSHrHqCMkAV6iR6jF2QGPWTT341BbuUPjDtTE7UEgDDcG0eLrQ9EQSBqC3XLFcs6ohjJIiwpAUIt1AoCIEoyG9G4F3QBDM27VzV4PJnzwHlAbdQaAouNqzeEA0ArphZTauts8NHVQa1AB12K9CQaR4EOALVkaka5+Aoupwn2RfWhHWCIxH2kfYAeoIcOqFmXGgYX1VYyViNUxmWZO/T71GlCHxpJwmiU0CvVQN5zXCqjp8mXqZOE3jSCBNNwoRdJJp/R6zZ/d4++b6znpqJ8E5YKFa4E6Uh/tElWa0lf0mCyxG5n8DLWNLVLnU1vCDl2ms/PpQmpwNedIHFZGCvxdWgX8o1w0/rT6E88VldMJSwV/48xpbKRWPEPptNdRkNCDfOVl6f4pfakP9nhXXxId5ABST7mYvt599lV0/rTX63cNnxI5o3zU1dMJSwV/6/Bt6ZLLdiRbvIfGm0kdebb0SU2E/4VXGVez+ttKKhNyLvCNbNyVhb9mdeqq6USlor/9zD1orvNBI2e5ufJyYPPd6TfycjCkEW38AG2n2aoakqlx0v0JoceM41WV0olLBUq3DivNAP9tyhJ0H/IZLmVrUgI3WUzSv4c6S2zN978GPp7MevVReMczltdKZWwVKjIK1iWNpLuFUknnf5MBvN2BMeSBBvXpnPIm3apqWF0jXBfpKszxnhDZXWVVMJSoaJArvHkI+nyx7IQ/3qazmjXxSNjbbrPqofvBm9XsmOjh7GjSaB5NQvpFjJ8kmpsVwlLhYoiUo3G2Do1nswno1Jr2x8eS16wFgBKviZ25lflNEnVCEfmmWYYO/Ne6uqohKVCRXHFUDPD11TN6NCl7nidcM+yQpg8YpoDgcBGL1PVRF9Oo66MSlgqVCgKY2XhmsWAzyukszpDKmGpUFFuQHzJTxYJax9pqc6QSlgqVJQfwqpAPrJIWKtJQ3WGVMJSoaLcgPcmcy2a3N8x1VRnSCUsFSrKDUxefKJFwnreWEWdIZWwVKgoN5jhkTzAEmGlzZpRJI6K8xlXj+dIPHmJvissEpbQBXQ+IWRsSvCo6k96+iiVsFSoeAIwVDM7wBJhpY4a6imlqyRseouspwfpBSFDyMrNwyA8oMfoDv5bkzCns0pZKmGpUOFy8C2p2cAGeov0kP7d2LrGVOGikC5kFrl/mJlHWzuSh42tpM6lSlgqVLgYpBH92yxhHSHB0r8z6shbwi0L/sQz/HPG+upcqoSlQoWrCasW+cYsCW0k7YtIYn3JD5bS0dCL5CO+lTqXKmGpUOFiJPuYppv1Eb6UXK0IYQ2hOy0WvbhNvuPbqXOpEpYKFS4Gp0nuQD6kP9Nj9LqQJeQIt+hJ+jv5JC28aN0jMoketZg9K53uJAHqXKqEpeKJpYEZtfm+dLrwivAWnUvGmkIdrThdCn11j6/Gs4SjBiFOmEHHkoF84JxaRemK8+JThKtWCk0cT4tSugqlCpWwVJQS0nxNs+gh4XKeEpUhnKFb0iKe5PGMrmZ82VqyP3o8MWa0mlu0HBFWNQw4OK/poK46Hyqsg1TNT6tX0G6R2U/yeFJa8QusE5ZxZoqaXVSFiicTfF16vmi9ZLKM831yx2PsyH9klbBO8ClTG6o5sFSoeCIR36HEkf59iP+TOx4+nHxnrdI0vUEWTG+lEpYKFU8g4jRzupU40jvjmj2p4+HcTb3or9ZKr9KbZPHMNiphqVDxBMKk4aeUONSHTGFPLGFVSIulO20Q1rqETiphqVDxBIK4k9dKFjglo55cwjJOokcsho3mtgf0z4TgkWpggwoVTx6oOy2ZePg2ffZJHc8of+PTlu4RijLW2VnRBjVjgwoVT+ABryScLXGks+kXpV0FmfOJrRvjdBYFznNmC/4DK9V1HrcM4+QxVZx/18jqI9XsWipUOIuYyjM6p/YxVJfzt6mBwg0zMsiPqbKKOoxraIyJbcD5OH34KySBKS2151P1nHtObMWkgfRHm4T1iHw52cn7hJzHjCbGscZx0zsafNQdp0KFowdJM70h+Ui4Ri+R5am9p1Q2WDUuD6rEv2AurwE9ZnzK4Gv9PVNrmsbSv4Sb9LAx1Zm4pkQvUyeep1vpCXqAn5fadXxVg8P2pQlV04zCTasVoh+Pb78xxuDh6Fue8oxrbJpAVtBj9BhZZZpkqjXeQ915KlTYT1fus9qQ9Xk5NnOP5YVU4/S6limLc49nyQ6z14TTyYo0ZJmEDB4JTfn3hTv5f32Tnze7kSOUZdBMqZrShyyjJ/P8etn0PPkpLX5W2wQfR5422TsplK6zRVaPG//KlFaOzXCKf0Iw/xY9TG/l2/sO8/NnaGMrqPcTVaiw8zDNaUOWSV369Hza08aOsWbtUQbv2e3IUksBAPSa6aWEpualEKNPSoDpkyLR5A/41xLq2ksyBs2UmsnDyUp6RfKkh/Q/Mj85fGJl+582uxGfRg/IIyyy3TTEfmWO85hW1ziEfk+vFi3jys+boRumlsFQocIejPA3PVfCInWXrknpwXmVpKs5XfjFwnUratNV45vxrYqrZ5wmoQaJpZtLEN1J41MJfnZSjG/yYLrBjMXpDPkolZtS1T7KmuOTPJKsEe7LIyx6hV84B9tLV7OaGSfR1SV6nEPP8a/NQpyqGKpQIR9J7chGM4czm/5pmp7SeVTlxx4tTjPEL76paRS/Trhr41BfMy0ydXuqRoHHkPMeU90Uwc8TTpj966/5Rvb1NzWSfGOBYK7Tn41TJtex52kmTFbQq/LoSngkZNEDvCmpgXwvn8F7DvBz6V6zuUyz6TGTkKJmMlWhQj5mt+C/Ex6aOU45wmWy0TSPTyDjyXgy0fQC/w09YvYvSwZZ7jItMKXm/W68KcX0Ht1hIfnwfeOrSbXs6a2xFfmIXrb45nS6zzgrta283FxchdQO5H16WjZdPVY+95oS4pvKoSxOM7m6sTv/Hj1pMSQ1g+7jE2bVV6UsFSpkywD8U8IpSxKFcFe4JJwVzgrnhJuyyKqA7O4LV/N+d1a4Kty35IGjf6SF2ON34yqYptH9Vv15GfQoLyT3MFS1Oe5qKb34BfSykGEXYeVRFk9nsbZtWZOaGCeQT+kpqxH0t8m6pH6xfuo+VKFCJuJq8QttRyEp3+hFY3ycHWGfAyokYRn2pmx6ml9sHDWn7TCLYayDvcfUS+b4z+ll28EMZlomPci/HB8wonqMBXvZKM2wimObGKeT34XbBd5Xi729wr84o9kAVcZSoUKm3KKZXJP/2FLFGBe1HHouzTTFLnVwTI20aXSvVXmlQL7LoCfJoqQBca3mVBonLZaqGedl9EusmRTMC/RP4Y5DdPWYZi6T7aa4+Fa8f6LPKI9CQ79BM9N7Zs24TmmTyWrhlg2yKpiJn2f3GKMGkqpQIR/jG9KtpUpYd/g3DdXsJNYKczBZJVsWvEuPko2mxDk9SauCNqfz7GjTLPIFPaaEREmvkb/4l1KfmhWe0r7gDalM8jD+NbKVnpVBrHnUJ9zmX5veRLViqVBhB9LcTQbhQqnRVSb9OS3QAXtbNVMc3Wexto0ZCxE9Sg/SX+iPZD1ZT3+kv9BD9JgYuuq8lHiDXqL/0t30F7qRrCc/0F/on/RfesZaopoSNqzVSdGjVRuWChX2YWoN/jnZauF9ep7uIcv5z/iPyQL+E/5zup4eoVfkGrDp6bR+jl2UTmzDf2gtM6hFQ/lNao/TwP52j96kt+xWMbPoMVPajAaqfKVChd2WrJSO9E+bRyydHqE/Gl8hY0hUUhND9ZH+XIXYKmNrGNuRAaappnl0Iz1n03KTRRY6mteB807qQ/8ofQeBi9p1/uNEvUpXKlQ4gNlVjLwNH9wt/gsjx6O4mubuGhq8EmrxnVNHkRXWVSJ6JbGHE5JgdT6F7v+foKv79FtjH0MFdeepUOEAhnolx9CzlsNByWYyNrWJrSR2hgqmFsRI/7NyI2/v5CaO9zLOfVZ7/jl67omnq2z6R1pMXC1136lQ4aBSyAfRXZZ8bvz78YxRpjSQXDmRoz9b8pOR75Odqq8T652oJUtsZQgt5y2HnjWlTmqmZmtQocJhEB3dbvZ43eRTTH72ZJya4cG3op+YDx4gy4iTXrHR3ilRZN0TTFnZ9BK/YEorg0pXKlQoTlgXedOkmvY/zdiSfGSOVMhqUtHZnhoqpgyiv5ZysKtyMf6XyLqZjEGtwaNChTMqoTGU7itxvK4SMrO+I6nxOM/kDvTzklIW2T6rmvO9TW5gmki3ywzPLF/tLtmSNjRZjW1XocIZjPROHk6LB48+5JektnD8malh5Jfi8U/0wJQWzveW84xvY3pWuKIYjaQLd+gFeoD+k9e20y10b/5/H6Hn6XXlqJHuSouf0UCtcahChXMySw3Ty8UDEujOtN4GJ2rhGPyM44TzxS1iqTFK9Nfgl9aL/i7rvp6tsNJL9CTdQZaTj0xzkmOTY1OGpfRIDkvpmzw6OTZ1Av8cWUi+pwfpSXrDVjYwGe0WWZjYWS0YpkKFc8ffIzG8RKrg2+RZo5NltIw16JpipJJNlhtqKNHnmfVNJnreSfP3ZfonecM4zhjBd+LbptY3+Bv8R/lxXrltTCWDf1w1UzO+HYHUnqYE8gk95OzFHron9akZNdT9pkKFM3SliWvPry2m9jzkV81q5/yzZ4fRYtlG6XXjM0pQFucxozP5zeGcC4/oUfKhMW5W1xmtJlWzpaJxHqlVE9olRqZOK5ZP3k7F0/RxXFODGtuuQoXDx14T6z6lLr+gxE3Ai2SGEkdrvBf5pEQU0kXT0xOrOF/6PaYyWWAlA6nlHAk36M/kDdO4ODSuxmhPzl2eRYlzH+RlaDAnko8nH9K/hQd2XMMuUD7/Nk6I8VX3nAoVDpLVHJ+ERgld+NUlrtPk0IPG7sq8xTi0pKWJXjG+Ea+dU3uql3PPTutP9tkXsincojv5N01DZjab7DXebtP3ME28+xi/ZGwaS5bSY3Za0NLJ8jmotOtjq1DxpNOUR6xvWi2+BQFTD9MU8jk9bubgPeSXyasDLcPW1MnslZ8HdB95xziahJMOfOPE6qN8HIn7ntqe/GVXhPklstI0dk4Lzkmi5HzSdPzTdJ9dmbVum163nbxZhQoV+SpNYk2ipdGm8WlJ5C26wupxu0deVuq9pDq1Qir0Ov2VfsG/lDaLH0O68WiCXSrT9Np0pR1WqyP8GymhSsk4k2sYx5OVwlXZZHmBGNVdqEKFTCRXM82gW+hpWTFFV/hRSr2Xr0Tek3WkH9B/6Y/T2tpFhv5khcy6gg/of7wwp4NyKlluXZzUaPKZzPyiWfQAiVN3oQoVcg93a7pBtixyOr69Uu+N90odJ18KSulrJ2F9S6/JSuayO23WrM6DFbUgce5TayRGmN6iJ2RQlkpYKlTYAxpAT8kmrBOGRkq91+A5Z7B8wuITXEBYD+ju1ITpDWIUN3hz7iN9ZoFpPj1p02eoEpYKFfZA6Cr/ggk9NkQx8/AQ96Qe8gnLPjsP8Sff2xxVOt2TNmt6A1dlRzB4zexsIjazR+QI51TCUqFCPmFFyQ+ypEcH+Sv13kHuyd1cRVhTGpA1NqPZD/MktbUrsyMYPCa1JB/atKXdIs+qKWVUqJCrEgbTC0+ASphoz7Nn6sleG3R1hE+Z02GQi6OfBvilRpFPbSS8uW2aP1m99qxChUz1qS3dLJuwTsW1Vuq9cV4pY+QTVuoAe55tGk0PW33eNf5tJT2DljHKP60/+c1qbZ675JukYE7N4q5ChRyk1uJ5uk+4JCs++zIfo9R7+YrkDVlklUGv0b1xHeU/mfMi86zajrLIJuXirmz0RTO1lmkWPW61HuPfaaNVwlKhQt6Rck9sQHrwU/nnTW/Rr+jP9D8rKsxdMlcxya46/d1qudPddB351PSG6Wk+ju8+oZJ8uprVxnqcOz3Nzyi9qzCcJqkNWSzctFp36PUZ9dXCXipUyD9Wnpx3bOW0pjxLepHx/HN0NT1rRubKIF8Zqijzxvi2ZsMp0um/9Cs+jYwm4XzHxPqjKnLe9l3OGV3TGCdcskIPd8gns9uV5twmVEyLoVuslDnLpFuSokdXVHehChUOyVxzKid1Mk2lf5WgrBy6LamDQqooZ6Ym9C2yIm14Ssupvo4aoQ1Vk/qQH6zZjOhfpomTSzUVMadJac2/SE9avUEwP0GrViNUocJh0kqpNAeRbSWO1hkSq8Tz52jIPDNlwz6c02K2r+Mes4HeyV35T+hVa4Ea5NP4wCmlHEYwuWJqX7rNqtfyoOmF+JYD1fAGFSocxSj3hFCyvVis9gP+s6n1nX92XPsSmUwf8N9ObeqMe9/oYezEv08vWaMr+q9pRmLlUqd/zcQ6xhfoFSs9y6KHTXOMNYarlKVChaMweMzpUcLDdZZMNTqpvBgrkW+LRaJnk42GOk70VDPT3xTAf2AjcV8WWTxTH+tVBjNZJak3+dFqeMMj+p8pcWZLg5oZS4UKR5Fai3+rRIWbn1ODnSmYYKhgHCKcKW4KTxvt+BPHVUxukjyULKOnrQZpZtKLpqSpdcumsvLoGvxi4ZbVWwW36WH+5TkRibVUa5YKFY6phRWSR9HiPrebpvlJjR1/ZpKOrCtRiefwlFYOKVueo/0NVedE8alkrc20yHfJb8k9uDKqTcP5mlLoYRvRbtn0CFlunJHQ2VB1uJ8a/a5Chb3HzD0tgv5T4mCdI/G8g5Ygvgl9r2RYJ9k+064CFJyG8+F8Rlae2TJlcNoz9Ad60Hb+K3qNLJjVucwIy9PYg/xo80p2Nr1BD/JfpiUndZ3cIMaP81GTJ6tQYQcslKo/RqZMcqBWM9+IviKYkYTIOjml6jnPUdUS2xox34PnjNNMs01v8F/SX60as6WEdcE4e2p1rszM2vEN+S+tW7EkhSmOkfX8YtNzxjjTWD7aFGbEcU2HVFJlLhUqHCOsR8Jp03ijnYefr0dfNp88mCwjfhZIqsLoOilafjAfS5L4Z00L+M/Il+R7+if9mx4V7gjpQrrMOjUZdC8/iCtDLxznQV6iF2XenszMG9l1up/uIT+Rb8mXpkX8uySFzOSHmfoktB9eXY2MV6HCHGHpLRDWI+EsnzaxgVzSmuEVr6dfWLrjR741mZWwBlRIieKfI9+RH+kBekq4LdzPbw+FTDur09wnP/AhZTuX/Hiyzc4iYJlCppAhjvoa/ZfuJBv4xaaU+NYD1BAIFSqKIsYzpb+VGO0b5Cu+e2oVW/mcDB6mmryBbLdswSE7Jjcw98spufFLF/PIKdvx4qj5FqwveF3ZzqYxkvzoZFH7bCFbyBQe0sOJQ6eovkQVKorJRf5picJdq0Rw3fRuSqCp3pSK5pLhGTwSKvONk7rx62zEIF2cFWZWJgkjy61eHJZPWJf5V5Kble1sJgeSxUqMJXfWyUK+pro/VaiQWl00qW2pbZngPt1PFqbO5LsTSKpj8B/py3nFVhxb2diYBBsHGFPpNzLKMWSReeb8dySG7raRAE9uO5k6Xamaio7C0IQsUoywNpMG6g5VoUKCVF9TouyioHfoCfor/55xrkkwpRmfM75IPqN76XmZdJNDj6aGmiGsSfScTM/aE0FY/DxlCEu4T4+SZuoOVaGi0OKi4UOspp5TtmXQlXyJTBB0pnWF1B7C+r/2zj0uqjKN458ZQPCKiqaoqa1CVhtmZmtWtmVlaXVCBbkfRRAdbsPMMOfyvs/zZqWf2tpay1yttXuLlZm0djHbNfPjqmWXrcysbLuYuCY4mqIo0H6Y1BSYOTOAM8Q83/OPfj4w58z7nvPjeZ/ze59Hy0vrFtwRTevLWesycafFWPtwGN2jBHGKWf3hpYDJlTuFz+fLjeyowul7Tx8jwdKzg13XU+rO9bYSLHFUxNM9ShAnH64otkAcDKhg1eEOLVM6Y2uy0Nvs0zuaYP0szqe7lCDcZHVjd+LeNny4fDtqcbuWmnWarKDVx5bzvgjWrMSo4I5qYo+2EyysxOF0nxLEL76pKbjDY+vPGvGTOCAOiGpxxC/z5jFxRBxy/+Zhj4n0enxTH/WrQQIL0NVGj3h7SLoP5vPa6NvU4TYYQncqQTT09RvMy5opYNwgVgfwA17G54MCCizky2CdqPBJtI7hTr6KL4Z7G36TP8BX4pceROuQphWdqhsP6fgp2RqatTVsgnPpTiWIBjtDAv6r+b/qfL46Lr33L44pyZTUvXgEL4KNhpJSw1ezqTP6n8whSZFZ5zAJykSzO+tgGTtV0xRuhLfET23yiP+g64WxwR3XwgvhiTYTrOXQj+5UgmiogtWD3d8k4V6NG7TkpsVO5KjSm2CtV8ly8RdLRsmNNutKJmssqritSSRXwSyOU/YD5wi2GCvbJufD/8YSgjuu+jWwqo0Ea7dW6uxOdypBuMu4OK6ENadLCf7IFrGrMptNWstRzj+e+dONuu4tsV3UfIVS3lNP5CvPiKCO8idKhv9aUyG1m5qCq/Fd/C+6fLaweqjnCSv52OCOK0uEDa3MXLnwR/wM34UXS65MDac7lSBOxk3j8D8nE8T4o35v0XmetzhLYY7r8ONm08k1+IY21nNRFznCngDPnZKiGnjBkXC6uElh+f1t1+m5/EF4Gt/BL04ce7EKq/xcKlbjO3B9cEcVHLjdr2uub/ieWIW7Tnzvz6AclvJ5aob9aksvqo5FEKdJhf1GeN3d2nSTnls80HtFhuRovqjZVqHfs6K5XmuTSmZbPEf8WtSLSr6oZGRjcZPMGZFKTz6QD4YR6mjbBFVm+XAfPALl8E/82g/TQx1+o8tSEKMSKYov9ce3j/vxf7AFymAhR5ZfmmS/mifAMD6I9bd2T+lEckUQZzAzvDiOFzFhHeGMMno8JJM+sblaV7hBG+nD73Ytvpwr+u2WfnKY959MD3NE5cbMHpA3yDI0f0ThFU6J348fioOixtgugHv4AnVQ8MZTuwxe9mFfZJ2oEXvhLe60TSi8omD43CF5A3Ni86PzOyVR/SuC8CpZJmbWw2Sf/pZnRouKZpY0ZUk+mTWzTSxM8fOBTDHJpqSoGYOUq1keLMOvPGbRfm1SX+4YF7Sa7maegR8ZWEDqhQvf5UtYSsmlGX2nh2dRFEUQZwc048amniq8JxDnTuumjdeduNnAXnEEdyqp0zoHYzElmZOj2SO426CccxWUadNLL6DGEwRxlgEzLGxaRBmyAnN2ObwojufhOoOcVrV+V+7wYLxdk6IKL4F/GCwI98OT6qRgm1sJIiRgJl7Q5BH8nF0buCuw99YzjCQL1ytJJZ0DPzpp3bU53rsSYiWUO8endKY7iSACQLGp9KYmD+H7xQHcoCuZ8/vpFtzc7NvKUyZWuLcw4A5xKdyWAC96u64GuVKnzCYrKEEETLISmjyGG6dHB1QYzEXn6wru8JYpwlXqjc4At8hy9mOz8ROv2bW1SoalD1kVCCJg6ANxf6M67aulLoG9BjkifwR/yVuuCL/lutwzoDIaVnopPCWqvFzT/zQ+N1Ym2wJBBA7ohW+cGTfAQ4GPGaZ2VSfi5958TrBRnxzI61L7ce42xnrumFhmGzWV3gwSRCBhXbgQFeKge0F2vKFrMZscjOu4vQu86DXG2gvLCgYFqgd0TmdlEm704nCvx+81Z1ZPun8IIqBIpsKBPBPvFs+LV/BZcLLJUpAqfHILfut1h943zGHpH4hm72mdHJfB81435ByB15QJEjVFJYhQxXk9fGRQTvAdfXpB7NmWLCli5iB+B1Z4ryLBlxaPkKjyAkGEKnPi4G3DLorlztvOdtuvtL6lifipUdkb/ie5K80ZQYQs1hgsN9xkvI8/Zb9GPouLVrln6c3wisFmnJ/FPiilGSOIEAa6w0rDFmW1uJs/bbtKPktv5+RoJQNWG15FHX4J+TRjBBHagrXCh8LKdVgBz1nHTY9ObGOTw+0R6ecoGbBOHDQselOL20iwCCLUBeulRiZWT+8Lf4RyPSU7pi19WZmRuUOdyfC6T8X6SLAIggTLhxzWr76sNfqMwnPbypc1K8oxls/3uRRyHX4FVpoxgghhSmJhrV/9pj/k85yj7D1bK1pSuNpfuRlewN3+NMfg98jkwiKI0MV+jYEPq6lkfQdl+gzl4oJz5BZ6s6Tw0v7OMUzD9f7UbRc/i8P8icJhUhjNGkGEJFIkV/BrPxtoHcdKfA8WqlmWoVO6+Oc7l8xSVGoP20iWB8/gTr/bvtbgevUWcroTRIiS0R9Wtqi9/TGxGz9mS9TE9AG+C4hkSupRMFKzwErcLvYbuq6afVep35HRg+aNIEIxvopSb/dae+pnQw/8Fr6C38lusf3OaMOMFKWO4ql8AazBHV7LBhp0TIQVjtG0OYcgQg7ZpI6CZ1rZI/q4OIw7YTOUw1+5jd2qTciJz4nPPjezd3rvrJic4TnxRSP1m1gqADwNr+In+J043oLI6ozN2BzUATR7BBFa0ZUpN1bLFd+2Sq5ONtyqE7VYid/DVtgAZVAGf4eH+d3wuPvfq2AzbsNd4rCoFXXGHRF9kKw1jltm07KQIEIJS7Q6Ecr96Abdbg7cA8+VXmmhZSFBhMxyMEIdB0vEnt+eXLkl6zu+wDpApqruBBESy0Gz7Xx2P37lQzP49nlU41Y1T+5CM0kQIZC9KhzA1N+wXP0iWf9WJspULJkgOrpczeqlpeCm37RcuS0V/HHbaDKREkSHRgnXJsHy32Kyvcnbwu+4plxAM0oQHTi+mhsP93YAuTpR0E+35vSlWSWIDkpODNPwB799VsfdR/1ZFJ9a9xlqW7C3MDG7G3WBJogOiBypS7DBD6f5MXFUuHAPfuI+vhFVwiUOtGH2q15UC5dwib24w32Gz93/O+S7cGElLLOPnU6ZLILocMvBsII4vhT3+BgpHROHcTuUs/tAgdwTh6rfB0/hu7i/TUTrCP4Aq/liNh+sJz5/Lp/HFsIruMtnyarBL3TbnL4UYxFEByMtWk3GLeK4T0JwCLewpdqc0j9kx5z+GbP6aCPVqewufAN3+/hJnsRqDzyvKcp11hGnN+6SO+UPVW7UVXgZd/oqWriqZGwaNa8niI5Fag91Km72QWaO4kewTM0pjEvuLDURAskkRVr6Oiawe/ADUdNCuarCtzRmHzOzlxTZuPKCFCZFpnezj2QOLPcp23YUlpdcnkqCRRAdbUmYP4A/hBUGS8Kj+Kqu2C+xxsgRHj/JnNa56Pe6jlv9TpM3HPthtSJbBk7zIjJSuNrXfgM8iu8bVJOowU+1grw+tCQkiI4nWWY2CdZ7S7pjFWzWkwrO9SxWpxZvEQWDdRk/9FuuDsByZaKlj2xYEz6ni30013GzN8nCSnjMfnkyJd0JoiOiR/Ji3OpBsmqxApYXj1UjfYtXJJMaxTLxY7+iLBc867xK7urbGfLCivoqmbhOuDxEhdXwFruhJILiK4LooOSexxT8qhmRqcYtTBQkzPSrxcPsfozhBz5L1mF4Wb11ql8t76dHOsfzxc2m4A/BOjVnZi+aU4LosMjmuXGM4bYz3O51woWv6emWOOOlYKNPCyu6GP7sqxUVP2A2OcbvK+5hu4Q7cFuj2vPV8IbzNpnkiiA6uGSFF8YzK24SLnfUUi9+wm94mZZojW1JA63Sbto0fNs3wYKHHZe25IqlTkq8NgfW4r4T1eCP4j5Yq0whuSKIEEAyOwbybFiB34taUQubGTivbml1KclcNIQ/4pPB4RCb2/KCMNm91Umw1N0l+ih+Co/yG2b1ppkkiBDB2sdxPWP4JixxZhQNaU0fGrm7Mhu3G0sWbrGPb1Vk2MU2RivEFVCmWWxjrOS8IohQirLSO+cPsk0ojM/q2rpeytMj7VfAC8bdd2DBrEGtumJTcqe8PtYx1svz+iRH0ptBggg50cqMnNrqxu+SafY57EEjwUKXI0mObP250iLSyMZAEETLmRKllxhsqq7DvbbJWWE0VgRBBDtSi9Qycau3fs7ogvdsoykyIggi+IIVoU/FTQaC9VLxRSRYBEG0A/g18KrXPX8uWFoQR4JFEEQ7gF0GTwuXF8HazRdYziPBIgiiHaBfyB/zKlhfc4eV6oISBNEeyB/I/uJdsJwz8qlTM0EQ7YFpXdjdBoI1aVo4jRNBEO0AyQRzxC4vLqwv+FU0SgRBtBNgBn7ksV78QXgdEmiMCIJoJ/BbYL2nDdBYCU/yOBojgiDaCexaeEoc8iBYu/gDbAiNEUEQ7QRrHF/gKe2OX2j5VqpeRRBEeyElWkvG97ASq06Ls+pxP1ZhBbxSekMKdbYhCKK9IIXNjbVNhkWwBnfgvoaK8ejCvfAevKDrJePzqXMgQRDtSrLM2Z14DAyAoThMxInzcTgOg8HQT+mRFh58ufo/nb1tnD2U8rwAAAAASUVORK5CYII=;imageBackground=none;" parent="1" vertex="1">
                    <mxGeometry x="501.14" y="420" width="48.19" height="20" as="geometry"/>
                </mxCell>
                <mxCell id="57" value="" style="shape=image;verticalLabelPosition=bottom;verticalAlign=top;imageAspect=0;aspect=fixed;image=data:image/png,iVBORw0KGgoAAAANSUhEUgAAAggAAAE+CAYAAADoN+hOAAAAAXNSR0IArs4c6QAAIABJREFUeF7sfQl8XFX1//e8N5M0bZO2lLbslB0qtM1M2oroH9xQcfdnUcTSLCUtIJssCqIGBQH5QRGkTdNmgcpat58gKm4VRYTmTUqBCoiAbLIVutA2y7x7/p/7ZiZJS5J5M5k3897Muf76a0nuPffc73kz851zz0KQIQgIAoKAIOA5AtXV1bMMw7gBwAl6M6XUdAA7urq63vB8c9lAEMgCAcpijSwRBAQBQUAQyBCBaDTaByC027LnmfkM27Yfe/TRR1/OUKRMFwQ8RUAIgqfwinBBQBAQBBIIRKNRHgaLbiK6TynVEovF7gcw3DyBUhDIKwJCEPIKt2wmCAgCpYrACAQhBclzRPQUM/+PZVk7ShUnObd/EBCC4B9biCaCgCBQxAi4IAip079JRD/p7Ow8v4jhkKMFAAEhCAEwkqgoCAgCwUcgA4LgHJYT43OhUOiRdevWvRp8BOQEQUNACELQLCb6CgKCQCARyJQgpA7JzBsBXBAOh//+8MMPbw3k4UXpQCIgBCGQZhOlBQFBIGgIZEsQkud8G8DPlFJtXV1d/5BAxqBZP5j6CkEIpt1Ea0FAEAgYAqMkCKnTPgXgZcuyPhyw44u6AURACEIAjSYqCwKCQPAQyBFBSB18CzP/PRaLnRQ8JETjoCAgBCEolhI9BQFBINAI5JggpLB4jpm/vX379l899dRT2wINkCjvOwSEIPjOJKKQICAIFCMCHhGEFFQ3EdHfOzs775L4hGJ8egpzJiEIhcFddhUEBIESQ8BjgqDRVMz8IwB/i8ViPy8xeOW4HiAgBMEDUEWkICAICAK7I5AHgpDa8hVmflQpdeb69eufF0sIAtkiIAQhW+RknSAgCAgCGSCQR4KgtdL9HHoAfM+yrKsyUFOmCgL9CAhBkIdBEBAEBIE8IJBngjD4RE8opU5n5n+uX79+cx6OKlsUCQJCEIrEkHIMQUAQ8DcCBSQIKWBWAnjQsqxb/I2UaOcXBIQg+MUSoocgIAgUNQI+IAgOvsy8NBaLfb2owZbD5QQBIQg5gVGECAKCgCAwMgJ+IQg624GIVnV2di4WmwkCIyEgBEGeD0FAEBAE8oCAjwiCPu12Zr48Fotdm4ejyxYBRUAIQkANJ2oLAoJAsBDwGUEAEd3Q2dl5frBQFG3ziYAQhHyiLXsJAoJAySIgBKFkTR/YgwtBCKzpRHFBQBAIEgJCEIJkLdFVIyAEQZ4DQUAQEATygIAQhDyALFvkFAEhCDmFU4QJAoKAIDA0AkIQ5MkIGgJCEIJmMdFXEBAEAomAEIRAmq2klRaCUNLml8MLAoJAvhAQgpAvpGWfXCEgBCFXSIocQUAQEARGQEAIgjweQUNACELQLCb6CgKCQCAREIIQSLOVtNJCEEra/HJ4QUAQyBcCQhDyhbTskysEhCDkCkmRIwgIAoKAXDHIM1BECAhBKCJjylEEAUHAvwiIB8G/thHNhkZACII8GYKAICAI5AEBIQh5AFm2yCkCQhByCqcIEwQEAUFgaASEIMiTETQEhCAEzWKiryAgCAQSASEIgTRbSSstBKGkzS+HFwQEgXwhIAQhX0jLPrlCQAhCrpAUOYKAICAIjICAEAR5PIKGgBCEoFlM9BUEBIFAIiAEIZBmK2mlhSCUtPnl8IKAIJAvBIQg5Atp2SdXCAhByBWSIkcQEAQEAblikGegiBAQglBExpSjCAKCgH8REA+Cf20jmg2NgBAEeTIEAUFAEMgDAkIQ8gCybJFTBIQg5BROESYICAKCwNAICEGQJyNoCAhBCJrFRF9BQBAIJAJCEAJptpJWWghCSZtfDi8ICAL5QkAIQr6Qln1yhYAQhFwhKXIEAUFAEBgBASEI8ngEDQEhCEGzmOgrCAgCgURACEIgzVbSSgtBKGnzy+EFAUEgXwgIQcgX0rJPrhAQgpArJEWOICAICAJyxSDPQBEhIAShiIwpRxEEBAH/IiAeBP/aRjQbGgEhCPJkCAKCgCCQBwSEIOQBZNkipwgIQcgpnCJMEBAEBIGhERCCIE9G0BAQghA0i4m+goAgEEgEhCAE0mwlrbQQhJI2vxxeEBAE8oWAEIR8IS375AoBIQi5QlLkCAKCgCAwAgJCEOTxCBoCQhCCZjHRVxAQBAKJgBCEQJqtpJUWglDS5pfDCwKCQL4QEIKQL6Rln1whIAQhV0iKHEFAEBAE5IpBnoEiQkAIQhEZU44iCAgC/kVAPAj+tY1oNjQCQhDkyRAEBAFBIA8ICEHIA8iyRU4REIKQUzhFmCAgCAgCQyMgBEGejKAhIAQhaBYTfQUBQSCQCAhBCKTZSlppIQglbX45vCAgCOQLASEI+UJa9skVAkIQcoWkyBEEBAFBYAQEhCDI4xE0BIQgBM1ioq8gIAgEEgEhCIE0W0krLQShpM0vhxcEBIF8ISAEIV9Iyz65QkAIQq6QFDmCgCAgCMgVgzwDRYSAEIQiMqYcRRAQBPyLgHgQ/Gsb0WxoBIQgyJMhCAgCgkAeEBCCkAeQZYucIiAEIadwijBBQBAQBIZGQAiCPBlBQ0AIQtAsJvoKAoJAIBEQghBIs5W00kVLEKLR6InM/AUi6mHmW2OxmFXSlpbDCwKCQEEREIJQUPhl8ywQKDqCEIlEvkVE8wFMBbAXAAXgJQBbLMualQVGsqRIEWhsbTwRW/FYy/kt/y3SI8qxfISAEAQfGWOUqlRXV3/GMIzvAghpUUR0amdn5+OjFOu75cVCEGjWrFmHmaZ5OxFF06D8CID3W5ZlJ8mD74wiCnmDQOOKxvDk/csn9uw0XgODmBlgoKe7D33b7b+ENpufn9YzbUtTU5MmlTJKEIH58+ebTzzxhFlRUfEygD2TEGwAUAfgMcuy+rKFRQhCtsj5Y90JJ5wQev31142KioqeoTQiogcAnNXZ2fkEnHeW4I/AE4RIJDKTiPYHcK9bczDz2wCuIqJ2y7LedLtO5gUTgdr22jF7Tqg61FbGbSbxTAZBk4MUQVDM2Lm1B8oGyOBLbWWsbVuy4qFgnla0zgaBQw89tLyysjJiGMYSAKcNJYOZ/wlgwdatWx9/5plnhvyQGGlvIQjZWKbwa2bMmDG+vLz8EMMw2gFUp9OImetCodBTjzzySODfQwJLECKRyFGGYXyYmS8CcEA6ow3z+1uJaF1nZ+ePs1wvy3yOwMX3nb0f7zQWA/QVNnAwFGvnwS4EQf8k3muj+50+7SvU5N82QOf17uSHO85buc7nRxT1RolAJBL5EID/R0SXATDTiHubmW8EcE+mcU1CEEZpqAIsP/roo6eVl5dfDOBLAPbNQAXtQTgLwMOWZcUyWOerqYEkCJFI5HQAtUT0XgDGKBFVzHwbgN/FYjH9t4wiQeCb93z9FqWwN8AfZZvB+mkfhiAoW6F3p414rwLI4Qk2K9pgAtfs/erea+TaoUgeikHH0F6DCRMmnM/M9UR0WIYn1G/6G8rKys586KGHdrpZKwTBDUr+mRONRtuZeRoRfSJLrfR11AZmvryqquo3a9eujWcpp2DLAkUQZsyYUVZRUaGzEfSVwoQco/YWgL9o1mdZlgSt5RjcfIq74GfnnG2Wh+tNhdlKEwJipCMI+roh3qPQ2x0H6wiEBEkAMW0C4Q1F9gmrTl/1Wj7PIXt5h0B1dfWHDcO4GcB+AMZluZP+lvg0gNssy/p+OhlCENIh5I/fR6PRcwE0ADg68U4w6vE6gLcsyzpq1JLyLCAXh/daZWPmzJkVZWVl1zNzo9ebaflEdGQ4HH7B7TeDfOgke6RFgC65+5I9jbD9TVVmf10xYDCgHM+BO4Kgw4q6t/fB7kswBEr6pshhC87+z0Hx0W9PertnzclrdJCrjAAhoIPM3nrrrfJwOPwKgKocq35vKBRadMABB7y5Zs3Qz4YQhBwjnmNxs2bN2jcUCl0JYGGORfeLY+a/EtHHLcvqDkKQvK8Jwpw5c/ZSSn0MwDIAY70y2jByH1NKfc227Sc3bNigGaAMnyLwrV9fXEMm76mYf6M/5LU3IFuCoD0OOhbB8SJompAiCU5sgkMbXqI4rjfHmrfevPDmTT6FRNTaDYHZs2dPNwxjERF9HUCFhwCdB8CyLOtvg/eYPXv2bNM0uzzcN2PRRHRDZ2fn+RkvLLIFNTU1OvBwAjP/OU9He5qZr+vu7r5948aN7+Rpz6y28S1BqKmpOUUp9Rki+nJWJ8vNIpuI7rBt+/aurq7f5EakSMkVAufdcd70MVXmRwzTuNxk7GM77GCUBIGBeHccfT3aQZDwHCS4ASX/djxM+u6hHaw2rli08n9zdR6Rk3sEdAR6RUWFzkw4EcBHc7/DuyUys85wuMAwjD90dnY+FY1G9ZcbHbNwRD72d7tHqROEuXPnHmTb9scB6ED3g9zilsN51xPRS52dnUtzKDOnonxHEKqrq/+faZpnMvOHB+Uh5/TQmQpj5ud1juuWLVsas0lvynQ/mZ8egab7LpkRp/gyJo4CNF5fJ+SKIBAzdmzV8UX6inngqiFFEhyC4PyWYRDdoeL4S8vi5hXptZYZ+USgurr6e0Q0i4g+k899k3v1EpGOl3qBmccA+JSLDIm8qlnKBGHmzJnzysrKfsjMcwFo+xRqOEHyRPRzy7J+WSglhtvXVwQhGo1qF8+MZBVEv2GlPy2eZ+ZVsVjsB35TrpT0+c7vL36GGRUM3ifhMUjEG+SSINhxRveOvmTowaB4hNRVQ/JvkALB3Kriqg3b+MqWC1ukrkaBH8bq6uoDieg6Ivpkgd/8C4zEyNuXKkGIRqOPJb986kq7fhj6s0Wnz15RVVW1fO3atTo+wRej4ARBu9+Y+b1EpF34Zb5AJb0S24jo+M2bN28Uj0J6sEY7o6mpycCM18faE8b9CCYtJIapX1GpQkdeEAQts7cn7qQ9OkGKu8Uj6JRJIxXgTFobA6QVM+0j+rrptZbFLVtGe25ZnxkCxxxzzKRwOHwiEd2Z2crSnF1CBME47rjjxnV3d18B4Gs5SI339IHp7e3do7e3N/7UU09t83QjF8ILRhBmzpw5rqys7H3MfAaAz7vQ1XdTmPnHzHxLV1dXp++UKxKFHHJw7M6TFfhrFKLj9Ae3dhnkgyDEbYW+nXbCRZGKQRgUj5C6anCuIpy4BP1/+t/G60rRl+PofqqtoU1HzMvwEIFoNKqr3On75PtpwCge7lgcokuBIOjU+HHjxn1eKfWdpHc6KMZbbxjGWX19fRvXr1+/uVBKF4QgRCIRXZVKew10vmlBdMgh4M8ycyuAX8RiMV2KVUaOEGj64zcXEWFvEL7ntE1wyiPnjyAoMOwe5QQs7hKo6AQuJh9bSvoXSNdnNHTwYjJ2wdgB8H1G3Lhy6itTN0ihpRw9FIPERKPRsFLqeMMwLtGVEFONc3K/U3FKLHaCEIlETtWkgIguDaIFmfl1HZuglPp+V1dXQb5o5PXDORqN6lSSS4lI55lOC6LRRtBZN4GKWZalPSIyRoHAt++96ANmhXk6GdDBZU5BrEIRBNhwiifp9MdEFeZkNoMmBqlXj+M5cDIbHJKg6y7oXzkkgrmLDPP5ZbU3f2EUkMjS3RCYN29eVV9f32oi0jFLhwpAmSNQrAQhGo3OY+bziEgHuk/JHBnfrVgL4L+WZX0l35rljSDU1NR8lpl1PQPdIS0osQaZ2kOX0vw3EZ3S2dnpq5znTA9SkPkMuvS+C08pHxu6EYxJia/kiVEogkCKEO+zk2mPqboISXKgycKgOgnORcRgkpDyLiSuIHQ0+73Ndc26PruMUSAQiUT+SEQ6ZTCT2vij2LE4lxYjQYhGo98AcCGAyUXgnR784Om3l38DuMmyLN0LJC/DU4Kg4wx0GdNQKPQCEZXn5UQ+2UTHJ4TD4StGqqzmE1ULrkbTfWdXhcsqK+KmenU4ZQpJEHTEQ88OXYI56UVIeQdSHoXBJIEYhvYi6JZQ+rqBdChjovOr9iiwwnrYOGfay9MelGsH94+e7pswceLETzPzDwuUs+5e2YDMLBaCkOy2WGUYhr7izXWFTN9Zk5lXmKb5w3Xr1j3rtXJeEQSjpqZmhlLq60S0oJTvBomogYgeW7dunXQF3O1pvvB3F46rMCliGualBHx8pGiUQhMEVgo9OxLVlfvjETQxcDhAKh5h8FUDOc2hUmWaNUlIZT44VxBxYyFCeHHZwmX5qt7m9XuJZ/Kj0egnmflYIvqWZ5uUoOCgE4QTTjhhzJYtW45Ltuj+Ygma8FPMvCkWi/3Dq7PnnCAce+yxOkVDd0j7GBHN8UrxgMn9F4AfhkKhux9++OGtAdPdE3WvXnH1hO7D3v6+YpxsGpQ2HqXQBEHfcehmTvF4ogbzLiRh9yqLzoRE6mMiLiEV1JjMdkj+3iDjbbbV0jir+1vqWx72BOgAC41EIp8mIl0G9/IAH8O3qgeZICSrIOqURd3Zt9K3IHuv2HMAbgDwS8uyXsj1djklCDU1NW3MPB3AB3OtaBHI04UwLGb+TldX10NFcJ6sj3D5n795A5iOBjnVMl0NPxAE3Z+hZ6eusJgKUByhFLNDAhL/jyjZ/CkR5Zi4akj+nnSlJfA/7bj6Mce5tWVxi96gpMfcuXMn27atG7PpEsm6c2tO36dKGtxBhw8qQYhGo99Lls1+r9jSQWA7Mz/KzKd3dXVtzCUmOXnhzZkz53illL4bjPqtnGguwcqRLJ3T+o5lWfqNr6TGd+6/6BTDNK81DExlIJzJ4f1AEPQdQV/cht2b9CI4VwwDJCF1neD4DhL9GpwrBnaCFXXBpYRHQV8xDMQp9L8Ed8CgbcsWLPNLdbdMzJOzuTo7IR6PP5P8VljIErg5O5NfBQWNINTU1JyUTCmfBKCkYtpcPkNvAXjTsqyc9fwYFUGIRqMHAPgcgB+5PIBMG0BAN3S51rbt69avX6+r7iUi2YpwXPGXb+2/c3v3tWUVYV3/IqvhF4Jgs4LqVbDtZODhYJIwuG/Du1IfU0WUHMrQH7yYSIlMFVnSfMP5r3uo11jyWuVrb645eU1vVoAFaJGuphqPxyeFQiHdAVF7IGXkAYEgEIT58+ebTz/99F7hcPh2Zta1LmSkR0B7IW8sKyv7wUMPPaS/kCZ706ZfuPuMrAhCJBKJEpH+BvyLzLeUFbshcC8zry4vL7/noYce2llM6DT9+aLZRGUHEds/0x+JozmbXwiCgoLqY8T7Bl5zzs1Bqi7CiKmPybLNDglIIJLwMPTfRvSTBShshsE/sJlvaT6tuVjbjdPcuXOn27Z9LjPrYN7xo3lGZG1mCPidIFRXV88wTfO9zKy/gMqzkZl5dWG5PxBRu2VZt2e4tH96Rm/ayUJHOnBI55q+R+4Gs4V9yHU36WZQlmVdn1OpBRDW9LsLp8IwG8nE50EUyYUKfiIIujZCb28cyk7EE6QCFodtDZ0qxdwfjzAQvJisvjSoMuNA5oPGjWHcYRhq3Y9PXebblrDZ2jcajf5AByEys265KyPPCPiVICSLYOkMuI8AOC7PsBTddsysmwv+KxaLdWR6ONcEYebMmVPLysrWMPNRRVKdKlOs8jF/B4A12j1kWZbuHx+48c3VF54wZt/QlQDPJaJQrg7gN4JgK0ZfbzyRrDASSUhdNSQ9BgN1ETSxSPV40F6EVFOoROyCI3OAx+8g4r8phRXLTlv281xhWig5NTU1FyfbuZ9YKB1kXyez5obOzs7z/YRFsjyyzkz4AFGqDJmfNAysLpsA/I6Zr4nFYhvcnsIVQYhGo08nScFEt4JlXtYIaN/1dqVUXVdXl77Cyfr+KGsNslx4+Z8vuR/gY71wB/qNICjdXrrPhm2r/m//u6Y+DqqB0F+TOVksyYk70CTAdIIXU1kRSneD7C+yNBCXoH+ugxoB3qHi+LO51fyfm865ScewBGrMnTv3cNu2VwB4XxFXUw2MTfxEEHQhrKqqqtuI6CQAFYEBMViK6jebd5RSX+jq6vqjG9WHIwg0e/bsCYZhnEtEumyl3P+4QdODOYZhHBKPx7d1dXW94YH4UYtsuu/i/XgMfcUgumbUwkYQ4EeCoKslxnviThnoXa4admsNrY+VaO6UisTQraETxGDwFYOe0U8G+jMgnGoK/UWXUhkQ4R107I7yvmeDEJ8wb968/fr6+g4nIldvSl4+RyJ7AAE/EITq6uoDiUi36G4R2+QVgbdM06zZuXPn5scee+zt4XYekiAk3Tw61iDrqPO8HrW4N1PM/LdkFTndDEpfQxR8nHn3meOnTa36hOpR1xtlxn5eK+RXgqAdAM5VQ4IFuI9HSAUqOnEJqVLMukSzSl4vDFw1OKIHkQyd6eCQBoP+CoWbeqn3zy1faXnTaxtkKl+3YQagY1B0/IT0TcgUQI/nF5IgVFdXTyGi9wNoIyLxTHts62HE628pP1NKLTUMo9OyrHfVYNmFINTU1NQDOJKZLyqMvrLrCAg8w8y6Sc03LMvSaZEFG5f/6RufZcYndRnpwQ2VvFTIrwSBWDdzSnV7TLycdm8NnbpC6G8R7RRL0oGKerYmBKl+DQmC0Z/VkGQGqTTIhOxBZZ31XMA2mO6K96rVy+qW/dZLG2Qg24hEIp8lIt3Z9ENSGyUD5PI4tVAEoaam5qNKqXoi0inyUusijzYfZqsnAdyvm1ztThKcdxvdVx1AA4Arkl2wCq+yaDAkAsz8dyLaUIi20lf88VsHxinemuyk57nXYDAAfiYIylaw4yrZoClJEpL3AoO7Pe76AZ9sDe2QhaT3wZGQKLKUIgmp/g0J5pH4k6ATyUDGFMVn+g8M/vPkp6Y0FLIJlL5LnjBhgiYqh4nXwN9vYvkmCMccc8yksrKynyVrXRzkb3RKTzsieoCZH7Qs69LU6Z23l0gk8iki0tHRGVW3Kz0IfXPiPmZuicViuhZ5XkbjNxon2PvQKwfMnDQ2LxvutomfCQIzO8GKmiikrhpSNQ6cz/VBTZ1SDZwS8/R8s7/iYiIlIrVABz9qPmAk4xL6iyg5LgotUscrpLwLCT7ilG3eQVAX3XjK8uZ826mmpmYFM+ue9RKzlG/ws9gvnwTh8MMP37OysvJ53d03C1VlSf4QiAO4ecyYMd9+8MEHt+lgxOmmaeqGDzIChIAO+DIM40uPPPKITl/xdJzWdNrhqjysU2PKq6aMwbRD8t8bxe8EwSEJ2ovAieZMyU935wN8IFkrcYUwcNWQaOqUKMGsrwN18GIq9VF/4Cd+54Q3DiIDyRaSybiEhFch0RrKcObt2NSnerf2fmj1pe1/8fTBSApP1ke5gojyRljzca5i3yNfBOHoo4/ev7y8XHezTduUrdgxD8r5mPl8IrqZdLESAJcERXHRcxcEvm1Zlr4W8myccuWiaSbhPhA7BY8qKsOYenAlyipMz/YcSnAQCALbgFK7XTUk2ELyGmHwv5N1DgZVURz44E8FLeqrhqSXIBl/kCy7MNAIatBVg/4dx4Edb/Wid4da2Xvo1jPWnLwm0aPau6HjDb4nrZi9A9gryfkgCDNmzCirqKjQ1wqf8uocItcbBJRSszVBKNoeAN7A5iupnhOEU6+sP5sIV4CoKnXyyQeMw6S9xyaD8fKDRyAIgvYi9OnYgIEP+IFMxgGSsEugoTNh+NbQTuqjrqeYuG9IjFQRpf5SzQPNn3q329qD4Ezr6dlavqbJ214OyeZKBQ2azc8TWHy75IMgJFt2/xiA7tsjI1gI3CcEIVgG211bzwnCgqsXLWXm8wZvHCo3sM8RE1A+NmeFEtNaISgEwdEzrq8EBsUj9NdFGEiD7E9GGJyV4PRlSFxRDJCIgfoJTnDioPoISedEsp8DA3HCttd7oOIJgpIPghCJRB4iImm7m/YJ9t+EfBCEaDR6GYDv++/0opEbBIQguEHJv3MKQhA0HJP2qcCe+48fZQsm98AGhSDoE+lYBGIdD7B7lcXkB//ga4fU1UF/C2g9ZyD1UWcrGKTrIyTCGhJZDongRU0WUtcSOkhx5/Y+dL81cKMQZjW1/dJ2TwtsiQfS/TPst5lCEPxmEf/pIwTBfzbJRKOCEQSt5IGzJqGsIj9ehCARBFbsNHJyxqCgxF3qIzhehUE1DZyJiayGlBchcZXATspjKrVRexYS/62pQeraggCbseWVXasvU0/vtNVNqz3tBCkEIZOXq7/mCkHwlz38qI0QBD9axb1OBSUIoXLCQdV7utd2FDODRhBYJxw6X/sHZTWkiigNbg2drG0wcKWQrI+wy1WDjmtI5UomyUJ/SmQi5fGdN3oR79k1nEgIwigeuBJYKgShBIw8yiMKQRglgAVeXlCCoM8+ef9x2GNf70sjBI4g6FgElchASFwFDFwvpGoXvMujMCgeIZH5MNCvIdHcacDjMDgeQQcm7tys05d3HUIQCvzq9Pn2QhB8biAfqCcEwQdGGIUKBScIOlDxgJmTRnEEd0uDSRB0/sFAOmOKJKSIQSrDIUUYUlUUE3EFiUZOuttj4toh0dQz1fQp8XciA2LHm33v8h44c+WKwd3DVaKzhCCUqOEzOLYQhAzA8uHUghMEjUk+iicFkiAwJwsn6WqJyQ/4xKd88sYg1dJ5UJ2EZOpi4mpCex8SJKG/iFKyb0Oi6yOhZ4uNnu1DlzoQguDDV6yPVBKC4CNj+FQVIQg+NYxLtXxBEMZNKsO0gythhvVtuDcjyARBI2K8ywuQvDEYHI+QhG/3OgmJlMmURyHZg0HXR2B2CELfzgT52H0IQfDmWSwWqUIQisWS3p2jWAnC47rpRAo2ItJl/74AYA/voCyIZF8QBH3yPQ8Yh4keFk8KMkFI5iL0l0JOOBEyaA3dH4+QKMWs/6e7QcZ3KOzc8u7Yg/7nXq4YCvKiDMqmQhBGZSndXfcBAH1E1JhspTYqgX5cXGwEYRMzr2bmu7u6uh4aBLiZbD+7P4Ab/GiILHXyDUHQsQh7H16F8BhvSjAHmSAYbDof6k76ohM7MJDZsHs8wuCyzInoBe0xSFRi2Cv0AAAgAElEQVRacgIVHbLAUAro3hyH3Tt8IVTxIGT5qtKoM/+TiK4HMJaZv0RE78temj9XCkHIzi7MvIKI7qqsrPzr2rVr49XV1Q2GYRwI4NvZSfTvqqIhCMy8kZnnjx079kXdhWooyE844YTQ1q1bP0JElwOY61+zuNbMNwRBazxx7zGYcqA3jZyCThAU7P5rgkTJ5BRZSCUnDN/UaaAFtCYWmjCYiO+Mo3vLyG0WhCC4fh3tPvEMAL+3LOvf8+fPN5999tl9AVwF4EuAbr9ZHEMIQsZ23MLMH1ZK/Xv9+vWbB68+9thjK7q7u48josuI6PiMJft0QdAJgr58VZZllSW+arkfkUjkx0R0OgC9NqjDVwRBg3jo3D0HCgDlENWgEwQb8WTXxlT3xiFSH/tLMg+UWh5cHyERqJhIfXzntUS/hZGGEIR0CO3ye822fmFZ1vyRVkWjUQ28pniBJwpCEFw9H/qFqp+NcyzLWu5mRXV19W2GYZwMID9V5NwoleWcoBIE/S75MjP/sLy8vPWhhx7ameX5UVNT83dm1rEJR2Qro4DrPCcIp15dv5QY57mtqWyECYdEc188qSgIApuJcslOCeZULcRkVkOqscJufRt2TX1M/LJ7cy/sXYsmDvkICkFw9crsZeZHTdNsXLdu3Xo3K6qrqz9sGMZ1AA7TVxBu1vhxjhCEtFZ5FcCfNm3a1PD88893p5296wSqqal5kJn3AnBQhmt9Mz2oBOF6Zv59LBb7bS6QjEQiM4noSmY+gYjG50JmnmTkhyAA5+kP6ESZnlRLweFPuNdhVaicXJ5TCIqGIDgQJjMRnN4KQ1w1JEscpOIRBnsR7F6gWwcmuvCXCUFI+wj+Q18lALjasqwdaWcPmlBdXb0PEdUCuJCIvC8EkolyLucKQRgWKP0FVLeoXmNZ1hqXcA45LRqNvp+ZzyeiEwEE6bMl8W4fsFrq3wPwrGVZt4zGaEOtnTNnzv7MPI+ZdWCSDmYMwvCcICy4pn4pg85jTubl65x81uFzwxMFL4onFQtB0PWXdQ+GgdTFxGOWIgEJx8K7W0Onfq/JwUiBiYMfWiEIQ7+EmfltAF8HEIvFYhtG80KPRqOfI6LDmfma0cgpxFohCEOi/jelVAuA33Z1deWk0dm8efOm2bb9AWZeBWBCIWyd7Z5BIQgxAN8pKyv702iuE9yANGfOnIOZeQIz6z39PjwnCKdeW7sUyjgvGU/vfPnVQ3/zHY4o6A/ASXtXOGWYczWKhSA4RIvI6cio+usbJP0yTvXEZNCiJgkpspCsj6DrHfTt0ATNHapCEN6Nk45AV0pdt379+n+5QzH9rBkzZpRVVFToK8pvADg1/Qp/zBCCsKsdlFIfBbCxq6vrFS8sNHfu3MOVUhFmvsML+V7I9DtB2MHMf47FYp/y4vAjyZw3b15VPB7/DoBzfRxs4jlBWHDtoqWK7fOctsOc+KRK9CDS8fTJAj1DeBQq9yx3iif1dywcpQGLiSBokmCaZiKJsb/fwqCmTgmekPAqJCY5ZKF3u0J8mKJIQ8ErBKEfFR1ktkUpdXJXV9cfR/kojri8pqamPumF9P03RSEIjil1DMpD3d3dJ27cuLE3i2cj9d3J9dJoNBpm5mYiWgAg7Hphnicy8w4/E4QNZWVl7/XaY5AO82g0ehmAS3wajOQ5QTj12lSQYtJrkLxCT36cDRAF51tt6uIhcf2w54HjMHGvsf09htJhPdLvi40gaLJFIU2y7ETA4nCpj8l4BLubHYKQyRCC4JCsh5h5rWVZl2aC3WjnRqPR3wE4AMCRo5Xl1foSJwj6y2enYRg3dXZ2/jRTjM9sr91LMc1g4jKQuWNFbasumpTRqK6uXmAYhi6ypGtseFeGNiOtBiYrpfb1K0FgpdQJXV1dGYOeJRYjLotEIpfqIEYvZI9SZh4IQu1SIJHFkPAa6NF/z9BPClJBjLr8b4omVFSGsdehVQiXjz4jrBgJgn5L0NxgoNtj4mlIeQ4GB4X2bVeuYw9Sz1SJE4QXiehXvb2939iwYcP2Ub7OsloejUa1O7mOiL4IQEez+2qUMkEgom90dnb+MBuDLG5vONcpnMWsUxkTr1nwBQrqsRV1HTro1fVI1tloS15Njf6N0vXOaSf+MhQKLfQrQegAcJFlWW+mPUYeJiSNOHxN2zzoMMwW3hOE62qXgvm81LVC0vntxCL0kwUnwyHxVdeJyu+/fiBM2qsiJ8WTipEgOFiFEthpkmDASAYvJlIfU/EIOnOh753MvAfOm1aJllpmZh2Bvqy7u/tvWbqNc/aK1u5kAB8EcI/faq6UKkFg5ntjsdinMzXyGe2LPsDgJcMWzCI8Q8ztvTY1ty5qfcut/Llz505WSl2ryaTbNV7O068f27bPffTRR1/2K0E417KsG70EIVPZyQIpfit8kReCQDDO09H3uhpgwpMw4A1LeRX0b3eNUUgibACHzZmaKdzvml+UBEEfSnsRzIGSyv0kIVGD2eEJPZuVhj/jUaoEQVdK7ezsbMoYMA8XRCKRnxGR7gfjm1GqBMEwjAPWrVv3oltDzL97vjl5e+V3mamRCNPSrNtBwGs9e/Csts+2DVnRd6j10Wj0HAA/cquTR/M2K6U+Fw6HH3/kkUc2Oe8/Pk1z9B1BiEQi1xDRxR4ZJluxeSAIC/uvGAwyoZSdDE4ciigkGgntHsxohBiHREdHEoqVIDiFkHQ3aEN7DxKlkxOdGxNXDTprQWUTOlXCHgQ/EoRoNKq/8Jyd7Qvdi3WlShD6+vrGu7l2OvvGU6v6qsYcA8bfssOfYmqc8aG38fbONSevGfFVXGCCsF0XC4vFYsftfk4hCC4tX11dfY5hGIVmeLtr6zlBWLC0dik7hZISdwr9VwnOV1on2dG5UkjFKGgFEz9NhSokvgkfMGMSxozPPmC3mAmCbr6kvQgGJa4YEuyAwTbQt73/LsflkzowTTwIGUPm2QIhCJ5Bm7HgdATB8RhsrYrC5J8DpPtwjGb0Anw9zLKlzac1vz6coAIRBN3csMswjKbOzs7+7seDdRSC4NL0pU4QEp/5yY9+hyjo6DonA0+3vuuPPRgumHHMuDAOeE/23baLmiAoAoWT1w3JOATdu7FvB0PFs7hbSD7TQhBcvrjzME0IQh5AdrlFOoKwuH3RSQRuzm3BPLqtuW7VV31EEO5n5jtjsVj7SLAJQXD5UJUsQbgh4UFIxBokvAYJskC6JW6/R0H/TPXXRUgSiEFeBO1G33O/8Zg4NbvS9cVOEJwgxbAuomQ6XgTuA3RqYzaxB6lHWgiCyxd3HqYJQcgDyC63SEcQlnTU/whMOiYgp6O5rnXY8rN59CD0MPM5pmn+Yd26dc+mO6AQhHQIJX9fsgThxtql7DRr0n0zE/fiqeuGRBEf7UBIdSY0AaVphEp6FHQwY/I1wUDV5ApMnV4JQ5cRzHAUO0HQiGkShZDOZjBh92Se1rg7pEIQMnzIPJwuBMFDcDMUXaoEgYhu1g0OKysrX1m7dq2rrDwhCC4frtIlCPVLwThvoGriQNOmwUSh/9866E5/C96FKAyk9049oDIrL0IpEATtpTHK9bWCgt2dOYkSgpBAQIIU3b2pSZDi0DgVmQdBE4Hnu7u75z3xxBOuUy/7vZCSxeDuxVS6BEEXSqKEB8G5XRgIQOxv2DTo57sHMybWDJRkrqgqw97TJyBUlllNkFIhCMzaTQOoPnfP5UizxIMwegxzJUE8CLlCcvRySsiD0AXgAcuyEu/fWQzxILgErWQJwo/1FQOft0tjpncVSXK+tw0QiEGEwamZ4JRZNOB8+AHYY9p4Jx4hk1E6BCGRvZC6tskEI/EgiAchk+dFPAhF60F4DsDqeDx+96OPPvpEJs/Eu95DxIPgDr5SJghOqeVB1RETaY3JsYtXQQctJrMb+oMZE16HVCok7ESr6EPnTHEHfGqbZKxDIrsyGS6ZTL106g0xoCs0pGIiVPJnymanSiE7f+s4Ckcb5wM45e1wcjCSsvQ6cn6nQy4YpJLBmc7vyQnE1D/T8/qrRiZlpT7UneuVfn11XQgTNuIgNvv31bUiHB00tdLyUhUo9c90w0a9wSiHeBBGCWAOl4sHIYdgjlJUkXsQrlNK/ayrq+uhUcLkLBcPgksUS5cg6EJJ+oohFWyYSGkcXPdAQ5iIU0x+qCkdjZ/s/Oh84iZAdrzncUP3OUaozMBBkcku0U/IT3yoFz9BcDJCEgxkVEMIwqjgy+liIQg5hXNUwoqUIOwA8KGysrINuWxwKATB5aNWsgRh2cLkFYP+nE/EDST6MDjfeZP/nWIAg1tAJ0lEco7zjdgmQBOE5Dg4Ohlm2F0Ts1IjCM55R+lFEILg8sWdh2lCEPIAssstiogg6DfZ/wJYblnWFS6Pn9E0IQgu4SpVgrCwuXapUuwEuSTc8IkrgpQHIdWfIUEcBlIaU8GMOu5Ap+05H3Y9uwYmjhkXwv7HTHJlgVIjCKmrEqmD4Orx2GWSZDG4w0xiEIbGKSBZDG8w8x/Ly8vrc+kx2B0RIQjuXksoVYKwoHnhUqhEu+f+/o1JouCQgmTMQeJGfjCBGNwVWpMDAuxdvQWhsIEpB4/H+Enlaa0gBCEtRO+aIB6EzDHzaoV4ELxCNnO5AfcgaK/BGmb+VSwWuy3z02e2QgiCS7xKmiAgkcUwcCeug/xS7Yd106aERyFVezmR1pj6edLzsGPotMbKPcsx9aDxMMyRrxpKlSCkKla6fEx3/SZdou2exYPg7mkRD0LgPAiPMfNFRLTBsix9teD5EILgEuJSJQgLV9QuVazOS7ADTRIGiIIORNTdHZ2R6s8wRDAjtpvDBtzpdsZTD65E1ZQxI1pCCILLB3XQNPEgZI6ZVyvEg+AVspnLTe9BaLhep3aT02w9N4OZ1Yr6tmGLv6QrtczMXyKi31mWtSU3GrmTIgTBHU4le8WwcMVCpxeD801Wk4HUa2YXj8Kuefs6nU8PHcyoehjoG7koUnlVCHsfWoXwCMWThCC4fFCFIEglRZePingQhgfq7La6KX1EDzLoQALKXEK6+zSdzrWZWF2xE2pZR11H93ByIpHIUTrYkIj+30B9emwF8JJpmp965JFHdG2DvA8hCC4hL1UPwoKVC5dCs+lkgybHWTA4cm4QURj4cTKDwTbAO3VaY3qQp0wfj4l7VQw7UQhCegx3nyEehMwx82qFeBC8QjZzuek8CIMlLm5ruJaIjwdoTiY7JRvd3kHAL5fXta5xs7a6uvrLhmF8GkA4+T57XywW63Cz1qs5QhBcIluqBGHhyoQHYTApcGIOUjcOKVYwlEdhpwn0uUtjJBMjFk8SguDyQRUPgngQXD4q4kFwB9SSWxuOhsJJYHzNVQto4huh+OXm+vYfutvBv7OEILi0TakSBO1BIOeKITHeRRScHw7u0ZAkD32U8B4MrrqYBuuxE8qw71EThpwlBMHlgyoEQQiCy0elVAkCM18Zi8UucwlT/7TFrfU1RPQhEK4Z+k0KjzLz9X3AL9oa2rZlKt+P84UguLRKyRKE1gVLoRLNmlLNmXbvE9CfxaBLBJNuJADwzhDQ4857kDKBDm84dN7QJZiFILh8UIUg+JIg1NTU3KkDzTK3oncrSpUgAIhbluW48TMdTU1NodcOfKlGgf9IwNhBX5w6eUro+H2sfbqbmppcXKpmunNh5gtBcIl7SRMETnoQknEI6YgC9xB4e2bkIGWGMeND2P/odxdPEoLg8kEVgqC9XD9WSt04ceLE59z2vc8cXXcrotHoWNM0p9m2vRHAyKk67kTmbFYJEwSN4bPM/Km+vr5XH3vssbezAXVJ+6ImAp+yvLb1SB3DnY0Mv68RguDSQqVKEBa2Jkotp/ovJO8Tkv6ERBbQrtcOgHorK3LuyAqPMbHXoZUYM35XGUIQXD6oQhBSCNjMfK5S6tfr169/PnP0Rr9i7ty5B8Xj8QYiagSQWXey0W+fVkKJEwQHHyJaDeA3Bx100N1r1qxJ5mynha5kJghBcGnqUiUIC/QVQzIGQV8lpEoo98PWX3o58ROlPQc69mAUQxdPmnLQeJiDiicJQcgc0FLNYhiMFDP/hoh+bllW60Btz8yxzHRFJBJZSkQ6de1jma7N13whCP1I6yuBmwF0WJYVyxf+QdhHCIJLK5UqQVjYrj0I6rxUsoJzvZBq2qhbH/f/d6KIEm8KuUR0+GlGiDDt4EqM32OgBLMQhMxhFYLQj9lbAJ5QSn0jV21wh7NGNBq9iojex8w6n93XQwjCu8zzJDP/JBaL/SCfZNLPD4kQBJfWKW2CkGjW5PRqTJKDoYgCbw4DfbkpPlY2zsQ+h09AuDxRZEkIgssHddA0IQjvwqwXwMuWZR2cOZojr4hGo3szs/YazAd0gxL/DyEIQ9pIXzP0MfMHY7HYP/xvRW81FILgEt9SJQj1ty5cqnQMgs5Q6A/D4f5/p4iC0tcK+nohg7TGdNDvfXhVvxdBCEI6tN79eyEIw2L2FjMvZOaHu7q63sgc2YEVyQp4hxLRr0YjpxBrhSCkRX2baZo1Y8eOfWHt2rXDVkFMKyXAE4QguDReqRKE2luTlRQd/wFjMFHQwYk6NZHjBGwLgXtz4z1ImWRw2qMQBJcPqngQXAOlYxOUUvdUVVXdmekHwJw5c95j2/ZsIloJYPgSoK61yf9EIQiuMH8TwI26g6JlWU+6WlFEk4QguDRmqRKE+ltrlzI4GYPATsyB82GdJAsaPl0QibeO3G/BJczvmqbLL+syzEIQMkdQPAjuMGPmNgD/iMVi+sM+3TCrq6vfbxjGlQDmpsriplvkx98LQXBvFSJ6AMBjnZ2d5+hYbPcrgz1TCIJL+5UqQaj9SaoXg75WdWhBsnNjgijo/k1qkwnYufUe7O5FEILg8kEVD0LmQCVW6GuHW15//fVvvfTSSzuHExKNRh8GMBXA9Gw38ss6IQhZWeIRAA9ZltVfXTYrKQFZJATBpaFKlyAsWEpM56XCDww2HJKgoKD/bb9DUB55D1KmGVMZxn4zJjr1Fpw4CP13qv6C5isMGAzYSfKi5+lgSv0zZTOYGOz8rbm/XqvJjZaVIDsO7Un+W6+j5D5Kz1TJ1E7n9+ScW/9Mz3Mk6cyNpKxUPQjWezh6JeQabMJGHLrL5cDPjMS/dfCnljdIVuJwqfoSCfnZDPEgZIyaBloR0Sc6Ozt/P3h1NBr9HYAPA/DGVZaxqqNfIAQhawyZiH5h2/aS0cawZK1BnhYKQXAJdKkShPqfJJs16Q9Gpw6C/gDVFw0Euw+wX/f+/bKswsReh1U5RZSEILh8YLWdenqnrW5a/br7FZnPjEaj2bGXzLcqxIoogGMANBWDx2B3AIUgjP6RYuYFRLSxWOsnCEFw+YyULEG4feFSVjrNMXWFkPh2rP+r7+Vwf00ElzBmPU0XT9rzwHEgQ2dKiAfBDZBCENygVLpzhCDkzvZE1KCUejQWi1m5k1p4SUIQXNqgpAkCJ+ogJAokJYiC2mrA3pK/dG+zzMDUg8ajoqpMCILLZ1YIgkugSnSaEIScGl7XT3iUiC4bP3787wvdAyRXJxOC4BLJUiYIqVLLA3fs+moh92mN6UxRXmli2sETEAonrjr6YwgkBmFI6IQgpHuiSvv3QhA8sf8rAF6zLCviifQ8CxWC4BLwUiUIi+6sXaqcK4aBEX/LgNqWP+/B4L33O3oiynQsghCEtE+uEIS0EJX0BCEInpv/4YMPPvi4NWvW6LTIQMbqCEFw+YyULkFIBCk6hZYVQ+0kxDcZnqU1ujHHwTWThSC4AEoIgguQSniKEATvjc/MOkj4qnA43Pbwww9v9X7H3O4gBMElnpFIZDERNbucnq9p37Ys6wovN1t0ly6UhPOc9EBOkAP1jjc1D9yeQwcrVk4ZI1cMaQATguD2iSrNeUIQ8mp3XY3xScuylud111FuJgTBJYDV1dUzDMN4wuX0fE3LC0EA4TynBkAv0PtSYa4WBgNKBmF6ZA8hCGmesp6e8so1Tcve8fJhLPI0Ry+hK7hsIQh5N4G+ZriFmf8Qi8Vuy/vuWWzoR4LwMDM3xmKxDVmcx7MlM2fOHBcOhz19s81Cee8JwprapWB9xQD0vGCC+7LQ0oMl4yeXY8/p45IFhaRQ0lAQ9/RsLV/TtEZ3MPRsCEHwDFrPBQtB8Bzi4TbYxMz39Pb2fvPxxx9/rWBauNjYbwSBmbk9Fos1uNA9r1OSBEH3lS/L68Yjb+Y9Qbiz9r0w1Oq+bXSozlzwy9DFk6YeMh6hskTxJKmkuKtlGIj39mwd5zVBiEQi24hovF+eC9HDPQL5IAgzZ86cGg6H7wTwQfealc7M7u7uycz8zsaNGz0l8tki6jeCsN4wjP9Zt27ds9keyMt1c+bMma2U+hmAnPeTz1JvzwmC1mvR3XXLup81FoP91edeexH22H8siEgIwm4PkPbC3XZJ2yqnCaeHY/r06WMmT548bO8CD7cW0aNDYAeA71uWdfXoxKRfHY1GfwDgAp99uUqveP5mPA7gjL6+vqc3bNjgaeXTTI/kJ4KwnJnXxmKxuzM9RD7nz5kz53illA5WPDKf+w6zV14Iwvy755vl/666FsD5PjhzvwpmmDD5wHGoqCwTgjDIMET4s8nh+o5Lmp/32l7z5883n3vuuduY+Ute7yXyc4pAF4BPWpb135xKHVqYEY1GbwBwdh72CuoWugfI7bZtd3R1df3RL4fwA0F4WmcH7Nix42a/ull2N1ZNTc1x2ovAzLcW2JB5IQj6jJoklD1bdQGYr9F9GPwyxlSFsOeB4xE2DWnWBH5ZMV1i2PzIT77d9lS+bFRdXT3FNM3rmfmr+dpT9hkVAr1E9KndG1KNSmKaxbNnz55omuYpAJZ5uU8RyH4GwN8sy6rzw1kKShCY+VemaX5NKfWqZVk+CX9zbRaqrq4+iojOIqIzXa/K7cS8EQSHJDTNLzPKJk4PkbqMgAW5PUqW0gjY58gJKC/XHROT3RlLsJujUvZ3lIHVd17S8Z9CFGU55phjJpWVlbUC+HyWlpRl+UHgItu2/2/9+vX/ys92A7tob9Ozzz57WNKTUKj3zHwfO5v99LXgv3T78Vgspq9nCjYKQRD03VfcsqwJBTt1jjeORCKNRHQlgD2AvN7T55UgDIat/pr6yl5Fz4EwEVz4FrgHzd6jFAlCHzNvM8Anrb60/eEcP9bZitPu5LeT981jshUi63KKgO4T8Jr+ItPZ2fl/OZWcpbBIJPIhIuoAsF9/g5csZRX5sm5mfj8RbSjEl+h8EoRuANrt+TXLsh4sxLccrx+kmpqa1cx8EAB9BZGPUTCCkDrcV6+rW4leQ5/3qHwceLg99j60EuHxoWTaI+u6Tk5cgrIZTAx2/tZdpnQnSHJqKPT3csDAv/U6cn4HKD1T6Sg/7ZnQfwhKt71W5Mh3JOkW2ElZA70qEutTPzdYezfiINYZF4m9DDYS/9bvjlreIFmJMpHJXhNJXYc49wME/Hb1Ja1XFRL3YfY2qqurP28Yhi7ipb8xet8T3Icg+ESltQAesyzrHJ/os4sa0Wj0HgAHAJjpR/38ohMzX0tEd+a7rXS+CIJOD9RBbr+0LOtJv4DuhR7z5s2risfjOjL4owAO9WKPQTILThC0LguuqK9hk74IwgIw9vH4zEOK18WT9jtmAnR8hP7gLVaCQIwXQXy32aMu62jq0KTbt2POnDlzlFKf0RHaACb7VtHiVEy/z/5eZw8U4ptnJpAmi9DpO/cv+ChDLJMj5Guuzu5rUUrd09XVtTEfm3pOEIhooVLq9Vgs9tt8HMgPe0Sj0bFEVK2U+gERfcBDF5ovCEIK8wVXLfqQYfL7bRuX590OBFRNHYOJe1UUM0G4JQTqmN6z3wNNTU26AUwgRiQS+Rgz72sYho5RkOEtArqWjH6v/d7WrVu7nnnmmR5vt8uZdCMSiWhP5BeIaJfmcDnboXgE6etE7RU63esjeUkQdLTqTZZlPa0du14fxI/ydXR3OBweb9u2V3UdfEUQtA1qm2rH9I6h44nop6TyW0AnXGFiyoHjYJYZxeVBAD9HffTh7rDx1ppvtmzx47PuQidz9uzZ8wzDuJyIPuJivkzJHAHbNE19pbP1kUce2ZT58sKvSBakOzrp/agsvEa+1UDHlTxt2/bC9evXr/NKSy8IwgsArrEsS9JZBqymMx4+bhjGHQB01blc3cn6jiAMflC/+oOGa0FcB1De3MuVk8sxYZ8K5xo/0DEIOlqCeWtvWe/77jp/9T+9egMohNxoNHqzTooBMKUQ+xfZnvqD4h3btk9av37934vpbNFo9BIAXy9A8HegYCSimzdv3nyBF96inBEEZl5nGMamzs7OTwQK3Twqq+/aiOhcItL54mNzsLWvCYI+X2NjY3jHQfavQHw4mDyvQGmGCJP2r0D5+ETxpIAGKb4KxgOGaXy348KWoo3ZiUaj2hWuSUIkB6+FUhSxhZl1Zdcf+a13Ta6MMagQl/YqvCdXcotNDjN/ORaL3ZXrc+WCIDzLzP+nWYxlWf/OtYLFKC8Sieg7tgOIaLSVCX1PEFL2++r/1n4Ufca5TDiJmDyttFQxMYyJ+4xFyKDgEQTFOu95w60Xr8r5i92HryWKRCJHElETgI8DqPKhjn5VSWeIvGxZlt9a0HuC16xZs+aapnk+EelARj/1w/HkvJkK9SVBYOYHmPmbPT09VlCqIGYKvFfzZ8yYUTZ27NhPa8MC+GKW+wSGIOjzfeWKhgONMM+CoqWeRisTMO2wKpTpWISApDlC8f+xQatv+frKn3vdPyHLZ82zZXPmzNlLKaXT3HRe/N6ebVQEgpn55wDu8ntJei+gnjdv3rR4PF4DQJOj2V7sEVSZviMIhmEc3d3d/cpjjz2mi6LIyA4BmjdvXmU8Hl+ko44BjMtQTKAIQupsC5oWTKXysn0VEMvwvK6nGyHCvkdO8D9BYI00eV8AACAASURBVIoz8RVjeowbWr7ZsrUY64O4NZr+AOjt7Z1sGMYTbteUyjxm7tFe2lAodPnDDz+8rZSfk2g0uufOnTvHVlRU6KqhMoDmsrKyrz/00EM5b5qWyRWDzkR4E8CVlmXdKFbJPQKRSOQlIqpIBuW42SCQBKGfKFy76CBiXqlsHJujmIxdMNvnyCqn06NPCyW9zoznOs5f+V43hi6lOclaIjpATTf30bE6nl5J+RxbnY3Qa1lWQeqL+BkbnU4O4MLkHx38XWrPyavM/GAsFsvWA53WvG4JwmYAukTnJXnq/pVW8WKdUF1dXaNTwQBoV9rUNOcMNEFIne2rVzV8LVlYShfVydnQxZP2PrzSKX7tl0qKYH6LgfUw46d2nNXxas4OW4SCampqGpj5kyXa30ETg0eZ+WuxWKyoslhy/ajW1NT8j1LqFCLS7x/hXMv3oTwduPzvysrKz61duzbupX5pCQIzryaiByzLWuWlIiJ7AAEdnzBmzJj5RLQEwPtHwKYoCELqfKde3fAdg3A0KycFbtRDh0JWTRuDcXuU+YMgwHwCzNd19xj33HFhi/bGyXCBQDQa/Q6AwwGc6mJ64Kcw8/M6cNM0zXuDWs+gEEaoqam5mJl1b4dibSu9XRfBIqIbKisr/+E1OdA21Pn5pxmGccsQBv0HEX3ftu11XV1dbxTC4KW+ZzQaPZKZa4ho9RBY6CufyyzL8mMt/qxN99WljXsjHj8fNp0FHn0qaGiMgUn7ViAUMgrci6H3k4SyV9u/1uJZ3EXWoAdg4cyZM6eGw2HtStWZP16XMC8YIsysvwW/EYvF/lEwJQK88YwZM8aPGTPms0Sky3vnqydOPhDbppT6vFLqyUcfffTlfGzoEATdp9swjDWDq5sx86fD4fADDz/8sA6aklFYBHTjGx24dXHyrs3Rhpl/Q0RftCxLd8csqnH2jWeXv9nbU2n22X8BMGO0hxs/uRyVe5YVhCBAqYsVjVndcdYyuU4YpSFPOOGE0KZNmyrD4fCDRFTQ5mCjPMpQy78PYLlc4eYEWWPevHnj+/r62ohItx83ciK1QEIMwziOiJ4qhDepP6gjGo1O2LJlCz/zzDMlHSFboGfA9bYzZ848YsOGDborZkmMxsbGsTsOsp8CYRI44ywPByMjBKdHQ5nu9pifbo42M/8T4Ctbz2i9syQMledDHnvssXv09vZ2AdBt44PcOl7HGXwvFovp9EUZHiAQjUafT2aI7emBeC9E6kKw+gvFSsuydHabrpZZkFFqUZ8FAVk2HR0CtUtrJ3KfWWcr525xutOvOcOh4xDG71nmLPS03TPj18x4edWSlsUZqijTM0RAexS2bt36JSK6AMAxAEIZiijk9LXMvMnLCPRCHs5ve8+ZM+d4pdSlAOb5nFC+TkR/jsfj31y/fr0mNgUdGb/RFlRb2bykEfjqD2s/DtucBUC30854TDl4HHQpZm8IAjYA6p6dm3detfqi1dszVk4WZI1ATU1NNTN/EMB1WQvJ30Ldpven8Xi8JZ93yfk7nn93mjt37mSl1OeYWVfu1MGMfhraa6Cv+n/R2dnpG6+jEAQ/PSKiiysETruq/iOKMBdMV7pakJykuz1O3l83ciKnJbT+o7s6sf5f8t+KAXJ+p1uQMkhpQqEn6T8EBeX8TM9L/FwnSKg/GTbO32fSPk81ndzUm4lOMjd3CMyZM+cjzDyPmXWlPT+O3yulLjIMY6NlWX1+VLAUdKqpqZkL4Ghm9kv78Y1KqXOSz8V//WQDIQh+sobo4hqBxhWN4e53+j6m+mgpmFxHte91+PicEoQe6p5U1lvW27K4JTDBomfeuugoW/H9YKezaP8wgC2s+PzmhrZfuDaEzyZGo9GwbdvTTdNsS5MinFfNDcPYWym1tRiDivMKZI42002gnnzyyapwOHwVERXsOnDnzp26tPg7GzdufCdHR8upGCEIOYVThBUCgVOvrr+PFB0OwiHp9tfFk6YckqhonY0HwYbqI8broTgtvrFh2X1EpF2Dvh9nt9VN6SWeSDB10Z207cYZ9uFkqB3NC2/NW0pVrkGsrq5eZhiGbgJ1UK5lu5CnC9j8l5m/G4vFdI+JQDwnLs5VdFMikchRRLQGwGF5aASl09M3MfO1yQaHvv5iIQSh6B730jyQTo3cvH3HaoCPYdCRw6GgiydV7lWOMePDGRMEZuywoVay6mltqet4LAhIn3nzmePj5T3HmyGcw4wTM9KZ+XEycb5dEVrXcnLLlozW+mTyMcccMykcDi8jIh3EmK92wbomfrtt2zesX7/+Xz6BQtRIg0A0Gv3fZO0Er8qf6+ymW4joLsuy7g+CQYQgBMFKoqMrBPS1w84tfe8D6DK26YThotpD5Qaq9iqHGdY1mN3FIDDwfbB6cdlpzStdKeODSYtWLppmhtSVAH2egD2yVOkVAL+Px+myVaeveilLGYVeRjU1Ne9jZl2JsQ7AGA8V0mRkQ2dn5woP9xDRHiEwa9as94RCIe110uXfp+dwm+sBvGBZ1o9yKNNzUUIQPIdYNsg3ArVLa6fbPcZ+zPTXofbWXoSxe5Rh7KRweoLA+LmKY4W51fzLTefc1JPvs2S735L2hpvhBHI6PT1yMChGxFuW17Z+KAfCCiJCF4ULh8MzlFL3ApiUYyXWKqWuMAyj07KsQHpbcoxHoMXNmTNntm3b7yeim0Z5EP2sXb9z5851fo0zGOl8QhBGaX1Z7l8EGpsax+4ot/8fgN/sriWZhKpp5SirMIfLYugzmG98peyNS9ecvCYwmQln3rLoS0qpFoB0AGLOK8gx4y1ivra5oS2rVFM/PC3HHntsRU9Pz2eIKCfpZMx88datW2985plnAkMg/WCHAOhg1NTUzGDmXwLp45t2Ow8rpU7s6el5YOPGjYF5/3jX+2QAjCQqCgKjQqDu5rr94+8YVzLjfwb3d9CFkyqqwol20Kk0R+BFKN5601duPnpUm+ZxcVNTk/HKga8cTrCvI+CkfGytgDZSvHxFQ1tnPvbzYo9DDz20fMKECTcD+LSLzqm7q/AaM78aj8eP27Bhg9S98MJAPpIZjUYvA3AKAF3ie6Qv1jow9S+xWEzPDfwQD0LgTSgHcIvAqUsXfou6w+8BuP/Fu8cBY2GEdQVm3kSMv7Bh/ODGk2+03Mos9Lwz20+fo1hFQNCu0Ly3uiVGLRFeW1bX+ttCY5Ht/pFI5NNEdBozf4GI0nlddDqazl7p6OzsfJdnKlsdZF0wEKipqWljZh2boAtzDR66Pfe9hmG0r1u3TveQKYohBKEozCiHcIvAJ248u3yPbdsbDYLJIT5y/JTysWMqQuvirF7vNeO/DUq0fl1b3ZQyMi4wQB9j8Gy35991Hr/ITO0g1q2nryJQIv8zw0HAKyAst2He0VLb8u8Ml/ti+nHHHVe5c+fO04hId1McLttD90DR3VPXSD0DX5itIErMnDnzoHA4/KnBmzPz67FY7K6CKOThpkIQPARXRPsXAWamU5efOrE8Xh5qP6c9UO3MG1vrTzRMuhoKx4Cy6z/AwD0M81u96P1XR11H9+Jb62tg0xcJ+EY2ViOinYr5WWZ1Wkt9e2BbWkej0QNs297PNE3tHahKYrGema9i5se7urp0qWQZgkBJICAEoSTMLIcsFgSWtNf/EaDj3RQ7Gu7Me/1n/zC+C9VETbpoS//QsQyb9vjX+L7KMTr7Y2aWmOnOczua61pTH65ZiinsMt0IKqXBlClTeM2aNRorKXZUWLPI7nlGQAhCngGX7QSBTBE4o7X+CEX0BSL8INO1znyiOJhfYtAFK+pW6TLKaT/oFrfXnw3Q1yhRXS6b9wlNFG4B7O8/+Z/nX1rbtFZXFpQhCAgCAUIgmxd+gI4nqgoCwUWg8e7GCeY79udA+D4D+2d5krfAWM3MP8k04+CsVQ0H2iYuAaCLTh2R1f6ETmK+7Z//efbHQhKyQlAWCQIFQ0AIQsGgl40FgeERWNJR/z/MNJ90ambWcQZ8Dtj474r6VT8dDdant9UdbxIdC5AO0MtqELiVyfhnc+2qILRkzuqMskgQKDYEhCAUm0XlPIFGYNHKRfuFQvwzMA4EYVo2h2Hgt4bB10177oA/NTXtGmeQjTy9Zv7d88umbJ84S5FaNorqjNsAWAT6zvK6VUNWucxWP1knCAgCuUdACELuMRWJgkA2CNCStvprQXRBNouTa/rAWNFc33r2KGSkXbq4veFMAn6cZWxCSn5Dc21rOyh9PERahWSCICAIeIKAEARPYBWhgoA7BBpWNewRCuFoUrgBhGp3q3adxcDTRNjcXNs6L5v12a5Z0t5wGwM1BByejQwGtpOBDxm2+u+y+vYXs5EhawQBQcA7BIQgeIetSBYERkRgSXtDPQjHgrEoG6gY2KyrP0LhsuZFrY9nI2O0a07vOP09Jvg7YNaFY8ZmJY/5DwxjBfcZ97UsbtmRlQxZJAgIAjlHQAhCziEVgYLAyAgsbq2fZRjGEgbr1sPlWeKle0acbxjqwWV1Ha9mKSMny7QXJGziRBC+BsZxWQklvAnGH8KszrmpPliFq7I6rywSBAKAgBCEABhJVCwOBHQhotcOfOEcBp0L4ICsuy0amGcYeGvZgtZn/ITMop8s2s/otacaZIyml4UuZ/xAc11ro5/OJroIAqWIgBCEUrS6nDmvCDSuaAxTWe90gvl01hs7xY7wQ9VrXOl3N/wJTSeEjtj/4B8Q0fnZpmgC6CPg1GnT9/9F0webpMhS1g+OLBQEskdACEL22MlKQWBEBJrunl/25vZJR/Qh3kGgyCjg+iMzdayoX/WTUcjI+9LFbYs+axh8LjO/F6CKbBRg4OfM6of7vHDgulylbGajh6wRBEoRASEIpWh1ObPnCDR2LDzEROhUALXMOCirDQm6HsJLzXWt52W13ieLFnc0XGIoPoyJdMxFNmMHM75rQv19WX3737MRIGsEAUEgcwSEIGSOmawQBEZE4IyOhtXMtD/AuqlSxoOApxVjpT2GVq/6yqrXMhbgwwVn3jx/vF1RtYSAxSAcmpWKhMfBeIDKyi5bfuryt7OSIYsEAUHANQJCEFxDJRMFgZEROKOtbiGTcT6AWaPA6h99Nr68tWrrf9ecvKZ3FHJ8t1RXY5y6tWrvuIkbCPhsNoWWiCjO4OdtpRatrG//i+8OKQoJAkWEgBCEIjKmHKUACDDorFvP2sO2u5ucNL8sBgO9ROhVPeZ+LYtbtmQhIpBLlnQ0bINCGJR1qufvjR3lX5j6xsbuphx2izz/+vkVPeVTTDW2R9eWOHAwuAS8ARt1Y6qq/jRh44QeiYsI5KMnSrtEQAiCS6BkmiCwOwJLbmmYyzYdQMRrskKHEYeBJ4nommnP7Xd7qX3Y6LTP/x740scB/mGyrXRZNjgS49s21H0t9e2xbNYPXnNGW/3BbNBdut8EEf68uzxmNkC0L5h7Abr6yf/8+w7pUjla1GW9XxEQguBXy4hevkWgvrV+nzAZHyNSVwM0NUtFe4hwjc32T1vqOh7LUkZRLNOFo2DSZ8E4n4CJ2R2KnwfTddvKum+97au3bc1GxuL22sMIRjODthqEZ5bXtl60u5z5d88399hRdRwxvg/G+wi4fHl96xXZ7CdrBAG/IyAEwe8WEv18hcCSWxqqWeFaAmoATMhOOfoBI26tqOv4eXbri3PV4vZFJxmEaczcls0JGdxLjPuJ6Nblda0ZeXUab2/c0+ixfwngRRh9FzYvvPXlkXQ4c+Wio5Spvg2ikxl004q6VTr2RIYgUFQICEEoKnPKYbxE4IyORVFmvhfAXtntw39RUGePGzfpmaUnL92ZnYziXqWvHV7d78UaGPwtEH0my9O+zbC/tKKu4/du1y9pb/gPiJ4OK/srqVLPS9ob/j3E+hf2+s+/P6pjHs5Y9pVJXDHmeYBeU73me1oWt/S53U/mCQJBQEAIQhCsJDoWHIHGjsZDDLazK21M9DYU2prrV11Y8IMESIHF7fU6NmFhttc4zOo9K+rbN6Y78oW3Lhj3jl22lZh+srx+1cLU/CXtDczANoBfBmgsAeMATCbgruV1rV/un9fRoMC4o7muVde9kCEIFA0CQhCKxpRyEK8QOLP99NmK1e9B2DOjPQjPEOMZu9f8cillJ2SEkYvJZ3Q0/I4VpmTTDtsw+APLFrb9baRtFrc3/JqA9zTXtU4fPE8TBABrmutaTx5MGnYnCIvb6v9EhrF5vNGz4H9PW73dxZFkiiAQCASEIATCTKJkIRFY3N7wCwI+l4EOumXxaoDubK5btTaDdTJ1GAQaV9QeaZaHLmHwSeCMiNoLzXWtu6Qq7r7FkvaG1wHsSEcQFrc3nEnAzbsThNNvOf1wU6n7FeGsltrWX4sRBYFiQUAIQrFYUs7hCQKLb1n0RVJ8I4C9XW7wIoOW9Cn117aGtm0u18g0Fwicdctpk5UdqmaiVbvXJxhh+TZmtXhFffsdw80ZmSDQyyA8otcS84kMbDJgfHFZ3cp1KXlJgvAkGBc017cudXEUmSIIBAIBIQiBMJMoWSgEFrc1XEaE77vZnxi1RPbvltV1vOpmvszJDoEz22v3skPGNIrT+rQSCAzGz5vrWr+YHUHYbRXjmb1e2P+IwTUrkgThKQZfsKKu7fq0OskEQSAgCAhBCIihRM3CIJCWIDAUg3+yor6tP7itMJqW3q5n33h2eV/l9ovB9K0RqzESftVc26pLOw853F4xLGlveF57Lt4Vg9BaP4sM/NJWOHNlQ9tvSs8ScuJiRUAIQrFaVs6VEwTSEgTglea61n1zspkIyQqBtDEi6QmCvn443rRx7M2LWv+TUmL3IMUzf1I7R/WZjwyRxfBTMHokiyEr88kiHyMgBMHHxhHVCo+AEITC2yCdBqMlCCc0nRA64sBDthuEGwdXT3STxaDjImwV1h0325rrWhvT6Sq/FwSChIAQhCBZS3TNOwJCEAYg1x+G6AuP7zPtKsM0Gbb9Tnhb31s3nZNdaeNcGXO0BEHrsbit4UIiXADic5tr2+7WPxuOIAD4v+1m76mrT1u9fUlb/X0MOgZQH3NTcyFXZxY5gkA+EBCCkA+UZY/AIlCKBGFxR8OHiXHb7kYjwGDAQOKPHmrQn8HTmZnu76H44o66jm6vjZ8LgrCkvXY6YD6p0x0J9meX13X8ddHKRdOMCUZ3y8kDHTb1z8aH4j1La9u3nNmx6KcK/Hk2+qa3LFz9gtfnFPmCQL4REIKQb8Rlv0Ah4AeCoKP2FUz9rfYDQ4HHrL7SXNd+J+mI/QxHfWt95RjiiTYQITJ0LwIPBm8wmD+lQuU9yxcsf4OIMtZzJKVyQRC0/DPbGz6ugNt1jw0Fe3aZMja9VrnttTUnr7FT+2svSjwe2o+ILodBx0JRQ3P9Sl1+W4YgUHQICEEoOpPKgXKJgB8IQiqNbqRzVYzbOnbpyWtc93fQ5YW39oWrDaJFIF3OOC/jKQK+R6z+uqy+/cVc7ZgrgqD1WdJ2+sfIUF9lxsnMeIehLiUy30jpSuDzGJhHoEdVb7yhZXFpd+LMlQ1Fjj8REILgT7uIVj5BoBgJQuPqxr2NPvvbIP4EQLuUF84L7Ixfgbizua7NVX2JdDrlkiCk9lrS1nA+EVcAxsGsrxHA5QR6jMD3AMaOONHvV9aufCKdbvJ7QSDICAhBCLL1RHfPEShCgkBLOhoeBONYz8EbaQNGnAn3rqhr/fxo9fCCIKR0aljVsEeZab+HETLjcby26vRV/xytvrJeEAgKAkIQgmIp0bMgCBQTQTjhzyeEjnr+kFcYmFIQMN+9qe6WqElCtm2dHYleEgSf4CRqCAIFQUAIQkFgl02DgkCxEITG2xv3NLrtP4Awy4fYrzR2lH992VnL3slGNyEI2aAmawSB9AgIQUiPkcwoYQSKgSAkyEF8OYiG7UeQ1sSMHhC2gvEmDGyHgkmEiQqYBKCSADOtjGEmMFj/3ykr6tvvykaGEIRsUJM1gkB6BIQgpMdIZpQwAsVAEM5ob/gcM1pB2CMDU3YwYyAIj3R9ALxFoJeVUluZ2CQypoJ4KpgmgREekM2HEVFGVQUZ+DX3mrUti1vezEBHuWLIFCyZLwhkgIAQhAzAkqmlh0DQCULjisYJRti+AoSvubIe83Ug417VazyezYe13uOM274yiXvHzgKpz4NJ75sqrDSiCgr2US11HbpYUUZDPAgZwSWTBQHXCAhBcA2VTCxFBAJPENprjzHYjIEQSmO/boBvUL2h77QsbunLha0bVzSGQ/FQuRrb0wngCBcydzTXtY5zMW+XKUIQMkVM5gsC7hAQguAOJ5lVoggEnSCcccuimaz40bTmY6xprm89Oe28LCcsaW/QXRIPSLc8vG3smJvOuakn3bzBvxeCkAlaMlcQcI+AEAT3WMnMEkQg6ARhcfuikwj863Sma65r9fS9wC1RUeDzW+rabkinrxCETBCSuYJAdgh4+qaQnUqyShDwDwKBJwht9bcT0SnpEPWaIOjrBqPcvh48ciwEA2+tqGudnE5fIQiZICRzBYHsEBCCkB1usqpEEAg6QTijveFZBg5KY663m+taM8lwyMr6Z7SdfjyTWjvSYgY2r6hr1amTrodcMbiGSiYKAhkhIAQhI7hkcqkhUAQE4SkGDh/RbgRurm11lWkwGvs3tta/3zDoDwDKh5MjBGE0CMtaQSC3CAhByC2eIq3IEAg6QVjcXr+KQA3pzGLA3ntZXcer6eaN5vdNTU3Gawe+eBEDVwtBGA2SslYQyA8CQhDyg7PsElAEAk8QOho+TAz9rX3k8f/bO/soucr6jn9/d/Ytb5DEgMFKKFZ5EVqpHMCK9ngEgSMvCpItBENm5u7OzCYGCAW0KqcLR8RIJZHA7sxk3hISC9kKntYUqmCkrSJiPLWHF1vepYWAkESyJvs2z6/nLoukJLv3ZWdmZ+d+7z8czv29PM/n9+zw5T73/h7V+2DJTelo/iduppO5n8jHz4pY1rhfS6jqvnQ8v9JPDm4x+KFFWxLwToACwTsrWoaQwHQXCF6/Hhgr7RMQPGQZeagnngvU9ngqlggFwlRQZ84wEKBACEOVOcfABEImEMY46auA5fQtgKqOAObWnbP77+1r7ysHBllFRwqEKsJl6FAToEAIdfk5eTcC010gOPNLFjpiIlpwm6uv+0ZvmDFnz+o17X37fPlVwZgCoQpQGZIEAFAgcBmQwAQEGkIgFO3zBZID9PBqF1vV3GxG9F4rYqmTy/lnedB6MpvM7q1WbgqEapFl3LAToEAI+wrg/Cck0AgCYfQpQjGeErG+DlVfPQYmvTwUBqLfUOBFJ5ZR/c/18eJPJx13vwAUCJWkyVgk8DYBCgSuBhJo8CcIzvTGTnX8sopeK5Cp+7sXPAaDn4uI9sZyHZVYfBQIlaDIGCRwIIGp+6FgNUhgGhBolCcIDuqritG5e1XeZ4m1vU7Q/wqCR9PRfOdkxkOBMBl69CWB8QlQIHB1kEAIniDsP8Wu9R1/Zpr0EQFanNcE6mABGFXz+Uy8eJfz4YTf8VAg+CVGexLwRoACwRsnWoWUQCM9QXhnCZPF+NUCuQhAM4BTp7rEArT3xvJ9fsdBgeCXGO1JwBsBCgRvnGgVUgKNLBDeKmkik5hptY7c7Py7qpwE4CNjTxdqX3VFKh3PZ/wkpkDwQ4u2JOCdAAWCd1a0DCGBMAiE/cuaKEaPsxA5SY062w+wRFqMYKkAH6vJdoTIPlFd5udJAgVCCP8wOeWaEKBAqAlmJpmuBMImEN5ZJ+eApZf+5KV3YwSHNo2YA34vyk2ICfTaitVXnHcQdGs6Wjjfa0wKBK+kaEcC/ghQIPjjReuQEQi7QAhS7sW3Lp4xf94hv33LV4AZPp8+PAOVRDqe+5GX/BQIXijRhgT8E6BA8M+MHiEiQIEw+WJ3lTo2qOrREPw5FLO9RBRgdW8s/yUvthQIXijRhgT8E6BA8M+MHiEiQIFQmWInMolmq7X8BSguAPAJt6gUCG6EeJ8Eqk+AAqH6jJlhGhOYzgKhq2TfqYqm8fArpJCJ5X5Yy/J05ePHqiV5AKdPlFcht2SiuS9i9J2EiS8+QXAjxPskEIwABUIwbvQKCYHpKhC6ivYSBTYCiIxbKpXl6Xiut9alTBXtzQCWuOT9jmmNXJldkn3NbXwUCG6EeJ8EghGgQAjGjV4hITBdBcLyUvwsA9mKCZ8g4KojXjhyXXd3t6llOb0IBAG2WmWsuKMj/4Lb2CgQ3AjxPgkEI0CBEIwbvUJCYLoKhK7NS+bp0IxXxrokHrRaqvqUirkgGyv9upbl9CIQANyFSPOV6cvTr7qNjQLBjRDvk0AwAhQIwbjRKyQEpqtAcMqTKtqDePO8hXEvC+VTe2KlR2tZTi8CQaFrdajpumwyO+w2NgoEN0K8TwLBCFAgBONGr5AQaHSBAMiP0rHcmUEOSQq6BLwIBH7FEJQu/UigcgQoECrHkpEakEDjCwSnnbKe3RMt/KAW5evaYHfAYK0CsybKR4FQi2owBwlMTIACgSuEBCYgMJ0Fwtg2g+tngo6dkcj7R8ojrxbswp6qLAiFJEv2eaK4BzL+p5dv5tZ9EO1OR4vf9DIWbjF4oUQbEvBPgALBPzN6hIjAtBcIJfsJKI53K5lzAIKIbIWR25v79z687orNb7j5eL2fytmno9k6XE35uwJx/80ReSAdzX3Ka3wKBK+kaEcC/gi4/7H6i0drEmgoAtNdIHQV7c8qcK+PogxDkBNgh1G81mQN333Hso2v+/AfNe1Yv/TopkjTEog4jZo6AfkjjzEGVCSZieacHg6eLgoET5hoRAK+CVAg+EZGhzARmO4CYeWmyw4ZHm67EcCVAeq2RxS/gKDfr68qFgA4DQLLj68CuzOx/Dw/PhQIfmjRlgS8E6BA8M6KliEkMN0FglOyRCH2YUusLICT672Era2y8NtLck7/Bs8XBYJnVDQkUASXBwAACuNJREFUAV8EKBB84aJx2Ag0gkBwapYq2KtE8DcKHFaPNVTFTpHyyelY6Xm/46NA8EuM9iTgjQAFgjdOtAopgUYRCE75koXYpWJZl4ydqFg/FVU8bVRjWbvw70EGRYEQhBp9SMCdAAWCOyNahJhAIwkEp4zd2z7R9PLz718r0BVTXlbBEAyyauF7mWj+waDjoUAISo5+JDAxAQoErhASmIBAowkEZ6rxfHxOi+hHYUW+ANXzpmIBqOB/LKMxmd32s572Ht8vQe4/ZgqEqaggc4aBAAVCGKrMOQYm0IgC4S0Y12xcOmufSpsxzdsVOCowJD+OIg9gRK9ri5SfWxsr7fbjOp4tBUIlKDIGCRxIgAKBq4IEQvYEYbzpjjY0iuhNAlnk2CikBVDnc8VW/4tE3wBkpzhhnE6NEbkmc3nuHv9x3D0oENwZ0YIEghCgQAhCjT6hIdDITxDcimjn7KOaLXTCkg+42e5/X1VVoPc375n19+uuWOecKFnViwKhqngZPMQEKBBCXHxO3Z1AmAWCO536sKBAqI86cBSNR4ACofFqyhlVkIAHgTCoqncbMWvWx0r/UcHUfwjVuaHzmIgx/zVR7Bmz3pi5pr1vXzXy12vMRDF6nEjkK5bi7An7Owj+MR3Nf6Ze58FxkUC9EqBAqNfKcFx1QcCDQHDGaQAMQK2L0vH1/1LpgVMgHEg0lVt6IiItjwBoA1zaOVMgVHpJMl5ICFAghKTQnGYwAql83NmDvwXAoV4jRCzrWDXDb/TESju8+kxkR4HwJh07Z89va7YWlI3ZBuA9Htn+TgSX9UbzWz3a04wESGCMAAUClwIJuBBw3eM+0N+I4KERY746LPrLUqw0MBnIyZJ9higemChGI28xLN6yOHJY/9zTjJgVUFzi5wAoEXm8N5o7cTL86UsCYSVAgRDWynPengkki/b5FrBRgbmenRxDxZMK/bfIvra/7lkRvBlQqmg7LYhPD6NAcMTBu/YeshaqZwJynC/+AAS4sDeW/55fP9qTAAmM/v3wIgEScCOwvNh5ioH5uZvdwe4L8IgCv0nH8u1B/FNFe7SXQNgEQqrYcSNEPwmdWByNx8UAF2YpDtyWDu+TwLgEKBC4OEjAIwF7s31U8xB8nzY4Ft5pDvC/org2Hcvf5TElkkV7hwDvdrNvpC2GVMk+HYp7AcwHEHGb+0Hvi16cXla4B/JmoyZeJEAC/glQIPhnRo8QE0jm7L8UC3dARlsTzwmEQs1XVeX7O+fsebKvvW/oYDGWF6MLy9J0i6he6vYfSVXco8ORS7LJ7HCg8dSJU1c+fqyJyF+J4oZAQ1KMQPA4FL3peD4TKAadSIAE/kCAAoGLgQR8EnD2xRf8/tCVEP2cKj7m0/1tc8UXFfJbFR0US59TY/otYx2vYs2CaLsA53iJbYx+POhRyV7iV9smtdE+UUfkFBHzDUAOD5jvnwE8lY7lrwroTzcSIIF3EKBA4JIggYAElq/vOL4c0c+KhRuhaAoYxnEbgOBpAHtg8KcQzPYaS6EqIh9PR/M/8epTL3bdWxa3vPL7OdcorHMB/WigcSl+pyJFHbK+mU1mXw4Ug04kQAIHJUCBwIVBApMgkMgkmmXGyIfESBKKjkmECuQqwK0yq/VvJ3tkcqDkk3Bamlm6aFZry3eh+CCAmYFCKR62xFo+YMrPFOzCnkAx6EQCJDAuAQoELg4SqAQBhSSyiXdZzeUnIXBOQKzJZaCrsrHC2pokq1CSVLFjEzD6boUVNGTznpltt628bUhE+BJiUIj0IwEXAhQIXCIkUGECiYK92hJcDOB9FQ79djjFIES+lY7lvlK1HBUMnCpG/xhWxPlkMRNkO2Z0K0XF2UL4uwEp9062+VQFp8ZQJNCwBCgQGra0nNhUEugsRk+KIJIC8GkAR1Z8LIoNzf0vJdddcV/Vj1OezNidLZimZnOREb0awKmBYikGRSRnoN/PxPL3B4pBJxIgAd8EKBB8I6MDCXgnkCza5wj0JEBu9u41saUqro/AbOiJF1+sVMxqxOkqxM9UkcsAXOjnLIv/Pxa9QQ2ezdiFjdUYI2OSAAmMT4ACgauDBKpMYPGWxS3z+mefKLDOFsHXJ5NOFJ1NC2feue7T6+r2ycHK21a2Ds/Z+0MIjobivUHmq6q/lEjka6+/vvv+vqvDdYx1EF70IYFqEKBAqAZVxiSBCQik8vE7IGLDQgQ6+qLeeC/rGcjoUdJQg7sy8fzSegbr9IeY3z/7YhHLc6fIA+bjNDsCfpCO58+t57lybCQQBgIUCGGoMudYlwRWbVk8Y1//7BTEOugZDSrYqoOR1fXeITGej89ptawTFHr92DsX/nkrXhDBjt5Y/iP+nelBAiRQDQIUCNWgypgkEBICXUV7iQFOFsB5CTHINQDoT43B13bN2fOvfe195SBB6EMCJFB5AhQIlWfKiCTQ8ATi+fh7WiOyShWdgV9AFNkH1biivD0TKz3V8NA4QRKYZgQoEKZZwThcEjgYgWTB/pnTolkE2wa0fH0pVtpdLVLJQuxSsSynvfQiAC1B8ijk3GZYz94ey/46iD99SIAEqk+AAqH6jJmBBCpOQFWlfU172/y5h1wrol8CZMb+SYzRTw5Z5uFKNRRy+hmMNI20tYjshgTugOhsH/RZKK/qiZV2VBwKA5IACVSUAAVCRXEyGAlUl8DKQuywckSOVSOLFFjvco7BTgvWOa2zdj+2pj3Yp4Ld3d3WS0c9f4wl1mqoXBB8dvIQgB+nY7nu4DHoSQIkUEsCFAi1pM1cJBCQwPIty2eX+4fOENHPAVgCIOIplOA1AdabiN6dWVr4lSefMaPlxejCMiLLAOfoafmwH9/9bJ1+CI+lo/mgLzEGTEs3EiCByRKgQJgsQfqTQA0IJDKJmVZL2TmUyXkp0P+l+IVCnzgitijWLd2jvRUmulJFuwToQkDOdrM96H3Ba1DNGSnnstENzzqtHALFoRMJkMCUEaBAmDL0TEwC/ggkvpNYYA2OnAdIJuDLgQrFM0Y1kbUL2w6WPVmyzxCVGxXmLwQS7PdhVBw0n2KGzKvZZHavv1nSmgRIoF4IBPsBqJfRcxwkEFICyZL9oijmu7yDMC4dUdlYHrau2DVvV7/Te6Brc9c8HRzqhGB1QKRDgA4YNJ2W5ZcJARHSjQTqiwAFQn3Vg6MhAc8Exg5D6obiQ84njp4d3zYsQ2WlWvrfongggD8gcJ5KPKeK3kEp316pryYCjYVOJEACFSVAgVBRnAxGArUlcFUxOndAmi6H0eshWFDb7HA2IW42I3gw05F/sNa5mY8ESKC6BCgQqsuX0UmgJgQS+fhZEcv6oELX1CQh0KNqtmXixX+oUT6mIQESqDEBCoQaA2c6EqgWAaeZkbbqMRE1NwBwPoes/KV4WmB1yOzm7T3tPf2VT8CIJEAC9UKAAqFeKsFxkEAFCXQV7W8p9POAHF6hsLsguj0dLXyqQvEYhgRIoM4JUCDUeYE4PBKYDIGuon0fBEeq4oSAcV4U4HGoruiNF5x+BrxIgARCQoACISSF5jTDScA5s6FrY8cpKOPLEDj/9z/TB4k+Ed3Uu6zwT6NfK/AiARIIFQEKhFCVm5MNK4GVmzreO2zkBC2XtwrErU3zLjEaLY8MPZpNbno5rMw4bxIIOwEKhLCvAM4/VAQSdyaOwMjQAtHITSI4/x2T/7GF8nXNrU2/+faS3CuhAsPJkgAJHEDg/wBr9BU1dQnChgAAAABJRU5ErkJggg==" parent="1" vertex="1">
                    <mxGeometry x="501.14" y="386.25" width="47.01" height="28.75" as="geometry"/>
                </mxCell>
                <mxCell id="75" value="" style="sketch=0;aspect=fixed;html=1;points=[];align=center;image;fontSize=12;image=img/lib/mscae/Docker.svg;fontColor=#000000;strokeColor=default;strokeWidth=0;fillColor=none;" parent="1" vertex="1">
                    <mxGeometry x="495" y="559.5" width="50" height="41" as="geometry"/>
                </mxCell>
                <mxCell id="84" value="" style="verticalLabelPosition=bottom;html=1;verticalAlign=top;align=center;strokeColor=none;fillColor=#000405;shape=mxgraph.azure.git_repository;fontColor=#000000;" parent="1" vertex="1">
                    <mxGeometry x="755" y="560" width="50" height="50" as="geometry"/>
                </mxCell>
                <mxCell id="88" value="" style="endArrow=none;dashed=1;html=1;strokeColor=#B3B3B3;" parent="1" edge="1">
                    <mxGeometry width="50" height="50" relative="1" as="geometry">
                        <mxPoint x="450" y="520" as="sourcePoint"/>
                        <mxPoint x="450" y="290" as="targetPoint"/>
                    </mxGeometry>
                </mxCell>
                <mxCell id="32" style="edgeStyle=entityRelationEdgeStyle;html=1;startArrow=classic;startFill=1;strokeWidth=2;fontColor=#FFFFFF;labelBackgroundColor=#FFFFFF;labelBorderColor=default;shadow=0;sketch=0;" parent="1" source="2" target="8" edge="1">
                    <mxGeometry relative="1" as="geometry"/>
                </mxCell>
                <mxCell id="33" style="edgeStyle=entityRelationEdgeStyle;html=1;startArrow=classic;startFill=1;strokeWidth=2;fontColor=#FFFFFF;labelBackgroundColor=#FFFFFF;labelBorderColor=default;shadow=0;sketch=0;" parent="1" source="8" target="55" edge="1">
                    <mxGeometry relative="1" as="geometry">
                        <mxPoint x="280" y="695" as="targetPoint"/>
                    </mxGeometry>
                </mxCell>
                <mxCell id="38" style="edgeStyle=entityRelationEdgeStyle;html=1;entryX=0;entryY=0.5;entryDx=0;entryDy=0;fontColor=#FFFFFF;startArrow=classic;startFill=1;strokeWidth=2;exitX=1;exitY=0.5;exitDx=0;exitDy=0;labelBackgroundColor=#FFFFFF;labelBorderColor=default;shadow=0;sketch=0;" parent="1" source="18" target="22" edge="1">
                    <mxGeometry relative="1" as="geometry">
                        <mxPoint x="720" y="550" as="sourcePoint"/>
                    </mxGeometry>
                </mxCell>
                <mxCell id="35" style="edgeStyle=entityRelationEdgeStyle;html=1;entryX=0;entryY=0.5;entryDx=0;entryDy=0;startArrow=classic;startFill=1;strokeWidth=2;fontColor=#FFFFFF;labelBackgroundColor=#FFFFFF;labelBorderColor=default;shadow=0;sketch=0;" parent="1" source="55" target="18" edge="1">
                    <mxGeometry relative="1" as="geometry">
                        <mxPoint x="420" y="698" as="sourcePoint"/>
                    </mxGeometry>
                </mxCell>
                <mxCell id="89" value="" style="shape=image;verticalLabelPosition=bottom;verticalAlign=top;imageAspect=0;aspect=fixed;image=data:image/png,iVBORw0KGgoAAAANSUhEUgAAC7gAAAfQCAMAAABlzOIIAAAABGdBTUEAALGPC/xhBQAAAAFzUkdCAK7OHOkAAALZUExURUdwTKQdEEMyMmNjZmJjZWJjZmJkZmNjZWJkZmNjZqMdEGNjZWNkZqxbW2RkZGJjZmJjZWJjZmJkZmNjZ11oaKhNPGJkZmJkZWJjZmJkZmJjZWJiYmJjZmNjZmJiZmNlZmNjZWJjZWNjZWJjZWNjZmJjZWNkZmJjZmJjZmJkZmJkZmJkZmJjZWJkZaQdEGJjZmJjZqMdEGNjZmNkZWJjZWJjZmNjZWJiZWJkZmNjZmNkZmNjZmRkZGNjZWNjZWNkZcAnGmJkZmNjZmJjZmNkZWNjZsMkHa8kF9grH2JjZmNkZWJkZmJjZdgrH8YmG6QdELchE9gsINcrH9gsIGFmZtksINgrH2NjZdgrH9grH6MeENcrH2NkZqMcEdgrH6MdEKMdEKMdENgrH6QdEWNjZaUeEdcsINgrH6QdEKQdEaMdEaUdEdcrH6UdD9grH9crIKMdEaQbEKMdEaMdEKQeENgrH6QdEKUdEKQdEKMdENgrH9grIKMdEaIdEKQeEtgrIdgrH9krH9grH6UeD9crH9gsH6QeEdgsH6UeD6QdENgrH9grH9csH9crH8knG9grH6UdENgrH9crH6gfEqMeEaQdEMcmG8ElGLYiFa0dEWNkZtgsIKQeEf///60hFXoMANcrH88pHdYrH7IhFdMqHqgeErwkGMQmGsElGcooHKwgE8cnG7UjFqUeEaYeEaUdEb4lGLAhFNUrH7MhFc0pHNQrHq4gFLgjF7gkF6ofEskoG6kfEtApHsImGbokF8UmGtgtIq0gE//+/tEqHvXHxP77+9o3K+uOiOVyauiAed5JP9s7MO2dl/TAvd9QRv739+BWTPfPzNxBNud6cvri4OJkW/nc2vK5tdkxJPjW0++kn/3z8tEqHe+rpumIgeyWkORrYvGyruJeVfzu7tozKPvq6ZYWCn8NAfvm5N1FOrUiFYwSBYUPA58ZDbkhFawdEeFZT/CuqeyalDCobq4AAACadFJOUwDVAfbv3Hd7jqR7mP4BBcX9+hoPCATM1rLSiAu3vBImTUDfwaDjO0Ri6SuDUed4kdr6rTNy7B4vN5xYqhYjf2YOb1Ve8scKBvyVSGmnHhb0Ene8VSBEqlvOMbuIixuZiHCZ191rRGbf6e6iVilN5vazJICqy5LFZuKQ8EzQXik78160M2/5OO0gLoDDpOlXxz2fe5Y6YfCs4/HiCO7pAAAgAElEQVR42uzBAQEAAACAkP6v7ggKAAAAAAAAAAAAAAAAAAAAAAAAAAAAAAAAAAAAAAAAAAAAAAAAAAAAAAAAAAAAAAAAAAAAAAAAAAAAAAAAAAAAAAAAAAAAAAAAAAAAAAAAAAAAAAAAAAAAAAAAAAAAAAAAAAAAAAAAAAAAAAAAAAAAAAAAAAAAAAAAAAAAAAAAAAAAAAAAAAAAAAAAAAAAAAAAAAAAAAAAAAAAAAAAAAAAAAAAAAAAAAAAAAAAAAAAAAAAAAAAAAAAAAAAAAAAAAAAAAAAAAAAAAAAAAAAAAAAAAAAAAAAAAAAAAAAAAAAAAAAAAAAAAAAAAAAAAAAAAAAAAAAAAAAAAAAAAAAAAAAAAAAAAAAAAAAAAAAAAAAAAAAAAAAAAAAAAAAAAAAAAAAAAAAAAAAAAAAAAAAAAAAAAAAAAAAAAAAAAAAAAAAAAAAAAAAAAAAAAAAAAAAAAAAAAAAAAAAAAAAAAAAAAAAAAAAAAAAAAAAAAAAAAAAAAAAAAAAAAAAAAAAAAAAAAAAAAAAAAAAAAAAAAAAAAAAAAAAAAAAAAAAAAAAAAAAAAAAAAAAAAAAAAAAAAAAAAAAAAAAAAAAAAAAAAAAAAAAAAAAAAAAAAAAAAAAAAAAAAAAAAAAAAAAAAAAAAAAAAAAAAAAAAAAAAAAAAAAAAAAAAAAAAAAAAAAAAAAAAAAgNmDAwEAAAAAIP/XRlBVVVVVVVVVVVVVVVVVVVVVVVVVVVVVVVVVVVVVVVVVVVVVVVVVVVVVVVVVVVVVVVVVVVVVVVVVVVVVVVVVVVVVVVVVVVVVVVVVVVVVVVVVVVVVVVVVVVVVVVVVVVVVVVVVVVVVVVVVVVVVVVVVVVVVVVVVVVVVVVVVVVVVVVVVVVVVVVVVVVVVVVVVVVVVVVVVVVVVVVVVVVVVVVVVVVVVVVVVVVVVVVVVVVVVVVVVVVVVVVVVVVVVVVVVVVVVVVVVVVVVVVVVVVVVVVVVVVVVVVVVVVVVVVVVVVVVVVVVVVVVVVVVVVVVVVVVVVVVVVVVVVVVVVVVVVVVVVVVVVVVVVVVVVVVVVVVVVVVVVVVVVVVVVVVVVVVVVVVVVVVVVVVVVVVVVVVVVVVVVVVVVVVVVVVVVVVVVVVVVVVVVVVVVVVVVVVVVVVVVVVVVVVVVVVVVVVVVVVVVVVVVVVVVVVVVVVVVVVVVVVVVVVVVVVVVVVVVVVVVVVVVVVVVVVVVVVVVVVVVVVVVVVVVVVVVVVVVVVVVVVVVVVVVVVVVVVVVVVVVVVVVVVVVVVVVVVVVVVVVVVVVVVVVVVVVVVVVVVVVVVVVVVVVVVVVVVVVVVVVVVVVVVVVVVVVVVVVVVVVVVVVVVVVVVVVVVVVVVVVVVVVVVVVVVVVVVVVVVVVVVYQ8OBAAAAACA/F8bQVVVVVVVVVVVVVVVVVVVVVVVVVVVVVVVVVVVVVVVVVVVVVVVVVVVVVVVVVVVVVVVVVVVVVVVVVVVVVVVVVVVVVVVVVVVVVVVVVVVVVVVVVVVVVVVVVVVVVVVVVVVVVVVVVVVVVVVVVVVVVVVVVVVVVVVVVVVVVVVVVVVVVVVVVVVVVVVVVVVVVVVVVVVVVVVVVVVVVVVVVVVVVVVVVVVVVVVVVVVVVVVVVVVVVVVVVVVVVVVVVVVVVVVVVVVVVVVVVVVVVVVVVVVVVVVVVVVVVVVVVVVVVVVVVVVVVVVVVVVVVVVVVVVVVVVVVVVVVVVVVVVVVVVVVVVVVVVVVVVVVVVVVVVVVVVVVVVVVVVVVVVVVVVVVVVVVVVVVVVVVVVVVVVVVVVVVVVVVVVVVVVVVVVVVVVVVVVVVVVVVVVVVVVVVVVVVVVVVVVVVVVVVVVVVVVVVVVVVVVVVVVVVVVVVVVVVVVVVVVVVVVVVVVVVVVVVVVVVVVVVVVVVVVVVVVVVVVVVVVVVVVVVVVVVVVVVVVVVVVVVVVVVVVVVVVVVVVVVVVVVVVVVVVVVVVVVVVVVVVVVVVVVVVVVVVVVVVVVVVVVVVVVVVVVVVVVVVVVVVVVVVVVVVVVVVVVVVVVVVVVVVVVVVVVVVVVVVVVVVVVVVVVVVVVVVVVVVVVVVVVWFvfvXTRuK4gD8BB55HybwYhRsgYyQGBhgQcnkBQYHBKoEQVW63pfJo7Wqqqrqv5SUALa/b7LXczwcXZ37MwAAAAAAAAAAAAAAAAAAAAAAAAAAAAAAAAAAAAAAAAAAAAAAAAAAAAAAAAAAAAAAAAAAAAAAAAAAAAAAAAAAAAAAAAAAAAAAAAAAAAAAAAAAAAAAAAAAAAAAAAAAAAAAAAAAAAAAAAAAAAAAAAAAAAAAAAAAAAAAAAAAAAAAAAAAAAAAAAAAAAAAAAAAAAAAAAAAAAAAAAAAAAAAAAAAAAAAAAAAAAAAAAAAAAAAAAAAAAAAAAAAAAAAAAAAAAAAAAAAAAAAAAAAAAAAAAAAAAAAAAAAAAAAAAAAAAAAAAAAAAAAAAAAAAAAAAAAAAAAAAAAAAAAAAAAAAAAAAAAAAAAAAAAAAAAAAAAAAAAAAAAAAAAAAAAAAAAAAAAAAAAAAAAAAAAAAAAAAAAAAAAAHBeraRc9/fF0+aQf/Vx81Tst+tB0lIbAAC4vqi36j8f5nH45vvDt5fddFNsy7ZCAQDAtWb2xbpIP4RXvXyZ4KfD/sD0DgAAF9YdbYfHcJp4OsnulA4AAC40tA/GH3fhbeK8WHWVEAAA3leUzIbL+CX8j4d0m6gkAAC8l072fB/OYzouIwUFAICz662Hj+Gcjk8rWZEAAHBOo30eh/O7LwZmdwAAONPUPp6Hd3Ms7MwAAMB/W+ynP/1V6ezmxUidAQDgzaJ3PWv/US5nBgAA3ibpT8PlxOm6o+YAAHDi1L49xOHClpNS4QEA4J+115tduIppv6f8AADwD7qr4ZWm9q92Q+nuAADwmsX4GK7tw0TKDAAA/FHU2+bhNuRbKzMAAPA73dUwDrfDygwAAPxqVBzDrbkfLzQGAAC+u2xi+wnZ7i/5rK09AADwRWedxuFWxeHxWbg7AACNF5WTx3DrhLsDANBsSX8eKiFOMzdVAQBopvYtr8j87qZqEmkaAAAN01o9PYSqSbOOzgEA0CCVWZH52dI/VQEAaIpOVqkVmV9vqt7pIQAAtTeqQIrMKx6GA9vuAADUWW+bh1qY7hPdBACgnlqD4S7URpxmXT0FAKB2FuNjqJn78UJfAQCok/bsEOoozmcCIgEAqImorP591L8FRJZaDABA9VU2sv2UgMiePgMAUGXdbBOHBtgJiAQAoLrKYhkaY/qpZ3YHAKB67mZ5aJY4zVr6DgBAlUS1imw/JSAycewOAEBVLPbz0FgHAZEAAFRBJ0vj0GjLychnAADATYvK58dAOKwduwMAfGbvXnuiuvY4jidiaxscI16K1Gu9VeGctLEHa/W0h/aoTGshMDhTCIYHpMEnhHnEE33gJSUm59g3sHdWwkuZTMDhPsAg1wDDLdFn9byCgz3aY3GAmb3X2nut7fcTH9b5Z++1tvl1Za31h7Zqf2kls9OXCQAAAFo7+I6eR92qL1Md0wIAAAB6eafPo24qTl8mAAAAaET+edTp8eAsu9cyQQAAAKCDps5H8vPuVE/fNH2ZAAAAADlCVWr6oyYGesXa7EiA+jIxVwAAAOBfbI8+jqvKuvNi3Uz/anCW3auZMAAAAPBDTb3K86jj6ZfJXczNjwZm2b2znUkDAAAAj1XfjSnuj/of8cpM/xNPgvW4+gOxjW30ZQIAAICH2pt/VR5yn6y9Cu5JkZ56mlBc7fnCWHrQk75MTUwfAAAAeKLqQcSTFfAF8YbJ1KDS1J4U4oVHW2Ya26qYRAAAAFCtqeW+RwF3euLN5C56h/uULLsP/J7a13m3mT4eizKRAAAAoFDtL422d/rEBmtDzyWXGEm9Su1CjCU8fDT6MgEAAECZUFT1edSNl7nPbEzuIimzL9PI4uQbP53x+JKZrlg0xKQCAACAbGovf8xtWeQgqS/Tn1O7ECs+3Bh/m75MAAAAkOp6QyRs+6BH5OT6gsiRxYmNvznkV1+mg0wvAAAAyNHe/MinnkUjydzJ3U1fpsTy0MTbP5gc8K0vU3MNW2YAAADgWlVbo+2fJbEpRxdEJpZn13L+2rCPDxmOPKAvEwAAANwI3WuJ2356nt48uRfcl2nT1L4u2+3rc9KXCQAAAM75cR51o1mxpfyX3ddT+8rmvzOR8PtBw41tLLsDAACgcNV3Y12273HWHlzZOrnn15dpNbs0t+WvpLpt/91puce8AwAAQEHam3+19ZAS29qmL9O2qV2I9KAmT9taX8fkA2CqfSf+Vnzqo/fO7zxZdu1KxeXyHR7WPrZe+2jZeu0zn3905IMbnx5mOAC8G/y6/DF37H62fXLfoi9THql93QttHteO05cJgIkOfFdcam1w/sdzx7yoHfrks7K9G2qXXPv47A6GBUDQNbXctzXS3S/ykZybf7sv02DfUjqvvz2q0xPbrfW1TEMARjn71U4rp5ILJ/Yorn381pncta2TFccZGgABVufr5Y+5T5VOijz9uS/TYGY4nedfHEto9sxdD+nLBMAYoRPXrC2c/PaAwuJfnt69Re29h75gfAAE9N/eaKzL1k9W5O2Pvkzrqb03/7+W0fCpO5prmJEATHCi1NrGycuqah8/tF3t3Ye+ZogABI8Olz/m1iMKMJkaLCy1C7GyquVjhyMN1UxLAJq7uW10fumIkvR8uKIkj9pF3xxgmAAESrVO51E37pX5LVlIDBfpwv5zIYZ0fXK7o7OduQlAZ/8osvJSdEN+7fLS/GpbZeUMFIDg0Ofyx9ymhErJAZ2fnb5MAPS1/0Mrbxf2Sy7+z6K8axedY6wABENV279tzQ30qgzuw5o//Z2WJmYpAB3dLLUKUHpRZu3Q94XUtm5xNSSAANDs8sdNzKsM7tlu7Z+/sa2KqQpAN+VnCsrO1l8l7ljZ82Nhta3TexgwAEYL1da32kYYnFOX2ycSJryBeCzKhAWglUs7C8zOVuWX0nL7kUJrW1dI7gAMdjAaC9umWFQX3FPdhrwD+jIB0El5ZcHZ2TovqSHSjtOF17aKGTMAptL9POoGT9ZU5fb0oDlvIf44GmLqAtDCxTMOsrP1+d+lFP/MSW1rF6MGwETXNb78cRMLqoL7C7Pew236MgHQwYEyR9nZOiWjLfQ5Z7X3fsq4ATCOGedRN17mPqEouI+a9ibCkYaDTGIAPiu2HKpwX/v4VYe1z+9j4AAYpa6t0TZSn5rcPpYw8F10NNewZQaAny47ze0Slr2dLva/bODKyAEwRyj6OG4bKjGmJLhnzHwb4cgD+jIB8M2xSsfZ2Tpz2GXxXc5rW39h7AAYoqb+tm2wZRW5fWXV2PfxiL5MAPzylYvs7HazzMWrlo//1wAAXqhueBg2ObZPZ6eSCoL7kMnvJNzYxrI7AB+c3e0muJd87ar4FTe1uVkGgAEMu/zxLSNDaq6DTA7YZrvTco/ZDcBrR11lZ+u0m9rle13VrmTJHYDeqkw9j/rK85SqG2XEsG2+xrYq5jgAL11yl9utkpsuin/osvjPjB8AjRl5+eP/DWZ6kuq6pma7A5Dc7a4YfZkAeOiQy+xsfe+89s0Sl7VP8u8lAF3Vmb3YPp2d6hUKTSTsgGitr2W2A/DGvt1ug/tV5/tVdrmtbX3CCALQUSga6zI4iyaWZ1eEWik7OLoe0pcJgCfcZ2frJ8fFS13XLmYEAejH8MsfR4aeCdWSS6N2kHQ01zDvASjnPjs7b4T0hfvalXsYQgB6qb4bM/nyx/GFMeGNydR4kKJ7ONJQzewHoNRx99nZKtnvsPg3EopfYgwB6MTsyx9X+4Z7hXeSPZnVQC27d7bzBQBQ6IaE7Gz94LD4KQm132cMAWjjekPE4MX2xPJ8Oik8Nje/HKgtM/RlAqDQBRnB/Zaz2geKLB/36QCAZE2dj+iz5GTLzOLzIEX3Oy1NfAsA1DgvI7hfc1b7rIzalYwhAB2Y3WlpfGFG+ChoW2boywRAiWMysrN1dYej4uekFD/GKALwXVNLnD5LbrfMJAIU3eOxKF8FANmkLHpb1j5HxT+WUpvTqQB8Vmvy5Y/T2aW00EPAtszQlwmAbHIWvR22QboipfZPjCIAH4WiJl/+OKq8z9K7vGWmKxalvTcAid6XE9y/c1T8qJTaPzOKAHxjdKelkcUJoZ25padB2jLT+i/6MgGQpkJOcD/nqPg1KbW5DxKAT6pNvvxxsH8sKfQUrC0z4UjDQb4VAFJ8ICe4f+uoeJmU2hWMIgA/mNxpaTU71Ss0luzJPAlSX6bmGrbMAJCgWE5w3+Wo+HtSan/AKALwXNWDiMl9luaE9oK1ZSYceUBfJgAEd4I7AO81tdw3eGP7M2GIYG2ZeURfJgAEd4I7AG/VGdxpyec+S4VvmRnrD9CWmXBjG8vuAAjuAOCRUDTWZWpufJIZ7hXGCdaWmTssuwMguAOAFwy+/DHxVJs+SwUvu08sDgSqL1MdXxIAgjsAqFR91+ROS79lUkNLPZNrSTOze6AaM8XpywSA4A4A6ph8+ePrRff/3d8+sty3sDg/PDZh0r6ZZDJYW2Za62v5pgAQ3AFAvusmd1ra4jb3geVs/+LslCkZ/tlQgLbMdD2kLxMAgjsASNbU+cgOuj8y/KTWV7z3BuqWmY7mGr4uAAR3AJClyuDLHx1ePjPwei+NlqdZ514EaNk9HGmo5hsDQHAHAAmaWuL2u6j79z/26vhoNpOa1eJQa3pibGo2lXk6MB2sV93R3M53BoDgDgDu1Na32ni9l2Z85GlmYWhpeMbbDD83Mzy/2J8dHQ/uq6UvEwCCOwC4EYrGwsT1nP7L3r38RnXdARwfJVlEbUxLEghN86IJJGlTteorVUuFE/EwNLFsqF0QEQurMhuEpUps4gVg2UIKVFHbRRfm3hnZDtQyEjbYqdUaMRqP7fH7hd/y2+NHMRjyF3RmUggYG8/j3nN+d/z9LCKFBXe4Vx59+XHOuYNfz+EH/P3TduX6dH/7vUiuez2e9XBLeS8TAMIdAOLk4DctKTtaMlTU3m5rV8MEhyKrYToa1+EdPZSbys8dAMnh/pIl136ZpwjAUnuT8/BHO3RZsWxmpN//9WoY7/q+mXnZWfzwAZAb7ps1XhsAVrYeDn+0zmhCm03bxgJTLYMebuODsXthBj+BAISG+6uWXPsDniIAq6SeOUA9xqJ1OubVMO2j63U1TDSKsvN5LxMAkeH+M0uu/Q5PEYA1Dh89TTnGqDnaZPeP9050tHq5Y1EcEMl7mQAIDPdPLLn2Vp4iAAtkrLs3LVmzSzXK/amdrayIifZ4SN7LBEBiuO+05NrP8xQBJCol63wexWjn/tRJ7lRMznJAJABh4b7VikvveoqnCCAxHP6YiOGowv2u/D9Imax/E+C9TABkhftr37Xg0rt5iAASsSkru4j6TkBjMIpuH5L+p/BUXyxdXKqT9aE4IBKAoHC35DxIjnEHkIDjR/5Ceie4yr03inBvFj5sv1RqmqVut3v2TomsT5aTmc5PKQAZ4f6sBZfez0MEEKc9vGlJ0f7UEcmnP3qqL5ph4XB3uxevVMv6eEUFBzkgEoCEcN+f+JU3vsBDBBCX40d405I1OhrWCvdhuR++PjxsfyjcI2N3YSfgcEAkAAnhvuGXCV95C88QQBxSCzn8Ud3+VF+L1GF7ea35wINwFzh2Ly7ggEgAusPdtS/hK/+GZwggZrxpSe3+VL/QYfv1UtNcMdwlrnb/lAMiAWgO9+0JHwb5fZ4hgNikF+aQ2hZbY3/qhPRh+wrh7nYv3v63sM98KDeVn1+AcNcX7q7dCV74JzxCALFICR/+yI5Uqw36n9Tt816Bw/Yq01wj3ENuXauR9bnzsrNS+CkGCHdd4f5eYtd97nc8QgDR401LWvanNgkL95LHhu2rhbvbPXe7Qtit5oBIgHDXFu4pLyV03Y94ggCitfdgAaN2HftTG3pEfdK6yirTjDrcJY7di7LzOSASINy1hPsbCZ0F+TpPEEB0eNOStv2pk4I+5tWKy+ZqVgv38Nj9hrDbfeIkO1UBwl19uLtcryRw2U94gACiIfZNS4OtLV19gd6x8eF7AwMDfr+/e2ho6ObN0H+6Q/8T+qXRtqax3omprpZWr/ByX31/6pT8Yfsa4R4Zu5fJut9phwoz+MkGCHfV4f76xriv+i4vXwIQBXFvWhrs6ZpoHh9tHwr67h907vM9fOy5L/L/j/ySYYz0+yfbxgJTLYMiw9272v7UIQcM29cOd7d7brZS2C3PY8kMQLirDnfXL+K+6hs8PwBrSc09J6jYW/rGRv03fUZigv7RpkDXjEP2pzYLGbaba1kj3MNj96V6aUtmeKcqQLirDfentsR50X08PgBrEPOmpcapsXvdQcNKvpv+4WZJ+b7y/tSRRgHHyKw1bI8y3CNjd4+wdj+Uu4cfdIBwVxburh3b4rrm917k8QF4kozcQxLCqmeiabI/vPLFZ9ig4Wb7+ISIY1s8K+9PHdb+uaqfuLI9tnAPv5dpqU5Yun96nsPdAcJdWbi7fvhMHJf88R94egBWl5J1Pk97Uc1MjbePGAoEB8a69O9eXXF/aofez1Rz6ZoZpSjDXeTYPeczlswAhLuicHdtjX2D6tO/5uEBWJWANy019o37Ow11fJ3dbX2aF86ssD/Vr3fYftGMXtThHh67f1EtLN3TDpxhyQxAuCsJd9d7sZb7rrd5dgBWsfdgQZHmTah9bf0+Q4OG7iadk/cV9qcGdA7bS03TpnAPmb0jbex+lsPdAcJdSbi7tu6K6XrPbOfRAVjZ8c+O6T2zvTUwOWJoND0Z0LUf1Nv22BqeQUcM2+MJd7d78Yq0sXtxTmY6XwEA4W57uLu2vxvD5ba9z5MDsJK9ut+01PHVkM/QrsE/pme/6mP7U8f1TKXLYhy2xxfukbF7ibB0L+Jwd4Bwtz/cXTtejfpqbz7PgwOwgsMn9b5paWFsyJDC1z3WqmHkHlj2Nwgdf3/wlNea8Ygn3MNj93JpY/dj7FQFCHe7w9216eXnorrWxh9t4LkBeEzqmQN6V8j0+n2GKJ3tvcrXzCx7f+qA+udQf73UNBWGu8ixe1pBFt8IAOFua7i7XO/vjuJSm3/OUwPwGM1vWvL2tTcYAo2Mqj6N8dH9qVMOGbYnFu5u99ztCmljd97LBBDuNoe7a8Pv13oX07Z3eMsEgOXSC3P0nvzY3O/zGUJ1B9TuD314f2q/V/Gwvco0tYR7yK1rV4Wl+4nMDL4bAMLdxnB3uV7805PS/Qc7WSUDYJmUU0f1vmmppW3aEC04rnK1+8z8N1duVnjdkkSG7RaEe3jsfkNYup8+QroDhLud4e5ybXj7radXXtu+5UOyHcAy6brftNQx4DPE6xxWmO7f7E8dUbfEvi6xYbsl4R4Zu9dIS/dUviQAwt3GcA957Y9vLZ+7//TbH77A0wLwqE35BXoPfyxeGHVAtkdeq9qmLN297fevOqxq2F7xL9MCFoS7wLH72UzWugOEu63hHvar/R/s++0r39n85paPnt25dQdPCsByH+sethcvDHcajtHZpmr+3XL/rqjZGFtXWWWaYsI9PHb/sl7W6ZD5fFkAhLvN4Q4AT6L9TUvFxY1tDsr2yCtVmxXtFf3//lS/gktdrbhsWsWqcHe752YrJZ0NWVzAue4A4U64A9Dl+JGz2nNoYt5wnKG7KvenBryOGbZbHO7hsfuSpLH76UJOZAMId8IdgAYpWdlp2kuop91wIt+okvUykf2pwUHnDNutD/fI2N0jJ90PpPPNARDuhDsAxdL/dkxABgWmDYfqVzJ0D/+1ZtxBw3Y7wj1kcalOzqnuhxm6A4Q74Q5ApcPniwQ00Myw4VwNTfavdPe2dBoNPTYO2y9dM61nfbiLGrvnHeT7AyDcCXcAypwqSJNQQAtDhqMNzNh/j74yBuz6rT3VF01b2BHu4bH7lWohm1TP8BUCEO6EOwAlUvI/l9E/d4OGww312P+PEvN99vzGNbYM2+0M95DZOyLG7mlZfI0AhDvhDkBBth/MEbLiYKLTcLz5Fvv/euN10rDd5nCXMnY/y7GQAOFOuAOw3alzxXS7hYIdxc5TdqnUNB0a7pGxe4n2W3iODaoA4U64A7DXcRlr28P6GoykEFxwWLXbO2xXEe7hsXu57tvIBlWAcCfcAdgp42SRmG7vGDGSRH+rk7K93uZhu5pwD4/d/1uj9UZ+zvcJQLgT7gDsk39CTj+2zhtJo93rmGF7ea2pgopwd7vnblfovJmscgcId8IdgF1S/yopIQeMJDLmkGH79VLTTKJwD7l17SprZQAQ7gCSTdYxSQ0ZSKZuNzpbGLbrCffw2P2GpjuayZcKQLgT7gDskJKZJqkiZ+aTKtwNv/xhe5VpJmW4R8buOla7lxzlawUg3Al3ADbYky2rI5uMJDMludpLVA7bNYS7prH7P/heAQh3wh2ADd1+QFZJDgaTLdzb5WZ7XWWVaSZ5uIfH7kv1im/s3/liAQh3wh2A5faeE9aSgWTrdsPXI7Par1ZcNjXQEO5u92yZ2tVHf+abBSDcCXcAVkvJlpaTA0kX7jIPltExbNcU7otXqhXf3Mpv8dUCEO6EOwCr5UrrSe+Iz2CtTJIO27WE++wdj+rbW/MF4Q4Q7oQ7AKt9nCctKVuSb+BuTIsbtpsalSb3sD2s9gLhDhDuhDsAq50XNwueSMJwN1olHSOjcdiuOtxnL5bouMXlFwh3gHAn3AFYLb1IXLj3JmO4C3oHU1mtaa6PcF9cqtN0i/9DuAOEO+EOwHKF8vZMNidjuHfIet9SafKH+9zsPz26/kmj6gLhDhDuhDsAy8lbKZOEp0GGLMi6x57y2uQO9/+xd25NTWVpGJ7hELAgNOEQkkggISQGEgoqgAgiKTcSU0QAACAASURBVAJcEL2kyhsuqZqfM3dTU9mrpgIREBQFgdYWKGhAPAKiiGcERkEblCl/wajddnVrE7J39uHbO+9TXrvgW4taz373t9fa3X+hXHFHGcQdAIg7xB0AID7/pCfujzTo7bML5Mp8rj+iVXHf2R5W8hOCL94OcQcA4g5xBwCIzT/oiftdDYr7KsVz3MNjfVoUd/kvSf3zOZsRBnEHAOIOcQcASMG/CArlqvbEfZPmzanceP+otsR95/20wt8P/Mgg7gBA3CHuAICEEfdn2hP3WxxVlIjdJRP33dFxhcs50Msg7gBA3CHuAABp+DdBl9zSnLcvL3CEkT12j2gzbP9E/xCDuAMAcYe4AwAk4u/jBE1yRWvi/owjTvfwiMrFfXf0ivI3W11kDOIOAMQd4g4AkEzchwlqpNYOhLzxjiPPFRmvU42IH7ZfIFDCsUEGcQcA4g5xBwBIKO695wha5Ly2xP0jpwom5YrdRRb37Q89BKrX0zfEIO4AQNwh7gAAKcWdXSSokEs3tOTtbxc4lSBT7C6muO9dHiBRurGfGYO4AwBxh7gDAKQVd9ZP0CDXtdQos8WpCDli94jGwnaOCw8zBnEHAOIOcQcASC7uQwP09HFmUTvifpNTFz0XrqpD3PcujxEp2cAgg7gDAHGHuAMAZBB31ttNzx4Xnmrm7qUZTnVMTo2QF/ftD2Ei1Zr7hTGIOwAQd4g7AEAWcWcTBM39gUbuT118zamRnoFrlMV9r5dK2M6Fpy4xiDsAEHeIOwBALnFnE2P01PHdKrxd2SBZstg9TnHf2R4Ok6nS9UHGIO4AQNwh7gAA+cSdXbpAMHNfm1W9tz9Wr7d/DpMlit3jEve9/Uk6FeoeZQziDgDEHeIOAJBV3NkQoRDzK69V/4XqsxlO5cxNRSiJO6mwnZu7OsQg7gBA3CHuAAC5xZ2xCL2bmGbuqTpzX34Y5tRPeKCPirjv7s9ROvS+7xJjEHcAIO4QdwCAAuLOJq7Ts8aN/6rX29eWOI1wrj+ivLjvvB8m9TzTP8EYxB0AiDvEHQCgjLiTbJd5oNZ2mdmXC5x2CI/1KSvuu6PnaGn7T4xB3AGAuEPcAQCKiTtj/6F3uszM7edq9PbVLU5jjPePKiXuO++naT3GTA8yBnEHvCkqdtkCbr9fp2uyWCw6XY3f7/ba644fRWn4klt8whZo+VzKNIvFo9PpTrsDx6qLG/Mh7vRJaix3BQP+mi9/BukWS5quy+8OBOtyslAbAPiKO2PXrtAL3TdV1+l+495rTnuIFrtHeIbt4+rT9oQR9xxbTUZhmzk11dxW2F5jy5Ft4PycOps7rbLUZ/08+q8YHb5Ov52cBWcVB09bTjrMZYYD5c5QYbbWN7XYT+VhT4payg6723PEYa44sJTZFUZTvcdtF2ElUhX3o3a3xWc1VqUWGK1nPC0nVLNmknJcZ9PqC80VmQcWq7bAcaZTlNkDIHHEnU1M0zPGrRV1dck8vsNpFHFi9wifsJ3YQaUxNMkkjLjneTMKvt14S0rdRRIP2xHsqiysiiLBbRa7nkjCbm+udziz+Wie01rpdxVhZ/pusVX7261RZv07ks0+T6A4ngiXorjr7Za2b4uQ7PC4kmjPnr7Ym3bEmBx70VqNJz3e41j2AMQk7oz9MkfOF2cePVWPt8/f57TM5PCIbOJOLWznes5PMAZx/4KrPuUAcTadlSgDzK9zVzpSYtJfS7HC5enwekwlgmWvwpoegLZ8ffwJ6o4UGIQVMtlYf7pOYPsMPXEv73QeMEiJ4gv+QIob0h2twkpXZmqyIXwHIAZxZ0N99PplZjbW1KHtK1uc1rly4aIc4r53eYCjpu29jEHcvyRo3rao3pkmemacG/RY+Wz/2SaXYsUp7zrjFMH4Kkxp9twE36ByGtrN2fEWstVhsQkoJDVxtxdmRhkmU7kFfyBZdc2+snjrl5rR0AhTA+AQcWes93wPPXV/SF/dZ+cfcQlBfLF7LOK+/YHaEhwf5qHtGhd3u/lQV2oSsdU8z24xCrC3QgVCyKRqnSklJB6GHzyuRP1iL8ddmipaITONliDPJUlL3Osch45kLac0fR1+n1h/CZnmSluiP8ICcJi4M/YTwVZ3buvxDdIXLm0ucQlDPLF75PCwndzxRnPRr1tKKHHPORlTt8pZcfpujzcXtgq13k55P1TN9dZXhMSn1dRcnmgbk/6Ex5gpdiEN1ho+z3KUxL2oPZZqGCqJ6G2WPb1A5MlLLvQjeAcgqrgzNjJAUBcfvCJ7I9PqzbtcYiE4do8cFraTu0+g+yLji3bF3Vsb41Zrin+jLU+LT9+qqmUry6lmqyEkGamdLn3C7Eq53tIyqQpZ0GmP9Q0GIXG3x9p6VUKgXyYrmCHN9GU7ak7B2QCIIu6f1J3gVarc69srBE+HXF7cmOESj57r18QWd4JhOzc2yhjE/TfyeOhMmS0+FW6KP7UzNMvzEqLGGJKaioxgIjTN5NlOJktcyMrYHoLIiHtWU+xPrwadsgfM6O2lKVJOXlsXjlwCEPeo8kFS3bl367SOh5xdWb/LJSqTUyMiiju9znYufH2EMYj7V4ocvCIyneCBGrvaxGmVaJfcdov8juyQLKRkuLS9H+nt9SlyFNKZHsOrGCrinufjNV6pgo93xR6n5HNnMHlx2wGAuKtP3bmlV6tUtH3t1R0uoekZuCaOuO/tT5L75cLTPzMGcf+d42aeu2y9IIvQHzspXtuJT9JtPstrMoRkpCpNu8dEFnc65SukueawTi4i4p7r4DmgSaEryPLOOmSau9r28r8BAHFXnbrP/O/VU8U/VV2eX09wa//ty82pSLzivrN9nlxnOzce+7HtiSHuOfxP+fDxP0S7UZcq6jZfKF0EmeNxhuQm29qixcQx32vNlLeQBp9NT1/cc/k3YTmUWB+nLGVyTp4jkA99AxD3gxmc6qHpi3dvbT5XztrfbN5agLN/Tab5xO7fi/vu/guCjyN9vYxB3P/oEGYBOyxfc6/LEL3F+Yg033WK+l6AX8tMZYfWHgl1TiUK6WwqIi7uWYUCTk80yd4tU12aKffcVVhwRRmAuEehd/gKUWF8svVxZVl+aX++eHNpBrr+Tew+Ikzcd7aHCf463VdZXGhQ3POEdZ1n8HFhryRv2y0SVONoTWpIOQw+u4ZWlstnUKqQyfV1lMU96YygMdNlnT699wdl/gjqi6FwAOIeRd375sga45P7649lPCXyzeLN+5D2v4zdx/r4i/vuPsGVFb4eYQzi/g3tAvfX0zGni+4qaXb4TJvYtWj01IYUxuzWxiEzSUGHsoW0HqMr7jUCB/XKN39ZZwsUm7ps3wlIHIC4H8zQ1W7CzjizdHtzTfKe9+WVZw/fQdCjcK4/wkfcd95TvOirZ3qQMYj7tzQIDsZiOwolr0u6bolacVtLOiqTQwRwdqm/2T2rwax8IY1ePU1xrxb6JiJFrjYSJbX912b3IDQOQNyjMDpAWd258JOlh/cWJcren39ydnTHiBO7fxX33dFxis8ew72MQdy/I0f4OX0lMRxzkddcIeX2XihiJcqPGEJEqKg5qupFlXU6lUYhC1r0BMX9qPDqOGQ5zj0pUKD83LUdg8gBiLsav1P9A3c2br6cfyvaLU03VhefrT96EA7DyWM+jKV/9HBxpxm2cy/6LjEGcf8LzsSxtVYe9p/nu6X+NjEgWtpemh0iRG1armqXlL6lhE4hCwJJ5MTdE8ewDTJMoKuNxtw57FA5AHFXabP779n7p3+vlzbWX86vCc/fZ988/Wzsd55wyNlFjt0jn8N2kp87C7ojNTHEPRhXK2r0ZpmkhirJ93anONF0Y6UhRIyyLpX2utvMpOqYabYRE/dTycov+Gg/no/O5FnR6w4g7uptdv+Tv4fD3JN3W7fWP24uPl17E8PpM8/frq0svnx1e+P+A+i6ZLH7xcske67C/T8yBnE/wK2Nce2rPyif2+lEqEKupzVEkKr/s3duP1FlWRjvFPdQlBSUBXWhKCkouchUDYKI3AYHOxFIZh5ISDo8jIkP8zLJZCaZZB56nudvKDcdQOXiheAdVKLihbsCiqKO4KVNeuZp/oTpFieWKHXd55y91/6+l073Q1WfvTbn/Oo731r7sEm+HeX3ibeQvv1CgXuNQd8bk1xOoX7CmhubgXMQwD2Srt6SkiXXF+aX12Zn5+bmNmZmNhc/aGZmZuPn/zD7+u3y/AJgnatujn+F2q9OjAqZOro4NckYwH1HdzTJ5+rOHWTdXfpMgK5OupHTcrwuJKiOyJYVaC4Uch1zS/PEAffK5DJZFZp2Lu8rE6121kwPgA4CuEcMu49clJQm+7f989O/IMXOn4bPntuWkpkSM2nFLdpOFdztST5V7Tt8rq1Ft/ksnUkugd9hDomrQpmOZHJVWUVdx/YWlyjgnuyZRp3aFbDZLWLtUmstQDoI4B5JYxMDAFM5tbo292JJr7GWN8c/ncs0IehYIo7RdqLgvj/ph+rXM6h7dBxK4UhqBZpKRcb2n5WSIQ217CsReSFLvGKAe16yP26CWgWoctpSBK1dAWZDQgD3KGH3k9cBwXJlhX6ZuLPy8pc0/6butvulYTFf0gze+oExgHtkBZJ+pH7t/FRPtq4wXJn49e9uSw0Jr6Ac1CKmW/vZ24sDIoB7bdLfrFHDZrNP5Np1g+oggDvVxIxiWng7t/js6acZmc/Xdf36gfHxy4L20PKZ2k4c3C3Jh7vbvxhyYfqtzpFxZ+IvHBwhKZSVJ/5WEjclE7ZZ2yzGg7s96W/O1KKAJmHt9o9vnlps4DoI4B5lPOTETWCxHCZ7+BGwD7EyH35QTIwxBnCPqj0cHqjebZ9ZXKT3Iz3RrIzNaQ1JotRywXdSvSQ/gXYVGw3uxcl/c5kGWRlXo/C1K8BUdwjgHlUXzqKtUwKTPVwzWJ4TJ/pHLzHtRArcqzg8To9+9ok5Gfr7duYm0nb7x6iAyKa7FHb7R+O2LcdYcG8zNhy2U0xGhj8Gc3Y+0A4CuCMxI7/JHq4VzL08MTh8hzGAe2ziMWg9LfwD8w2ZBpjIYZIS2e1bqjsk7Daqd5glWkif21Bw53G6Efe5Mh2pctSueh/YDgK4xzBjBokZMUz2pSfT0Y6ZejSv/ErdHTrNGMA9VqOUC7uGWcGVQUMe5wlkfuWy27fUKOY8690t1pCKSgzcTTwaQLI4l7BTnh9ehXmgOwjgHktiBuRsmMn+cDaKyR6uOeWj7dfOMwZwj1nFXB6ln5KnXoPOHy2Mm57apGTNir0CbqIDvlAI4K7v31wJ1wqanDIte3tnDvgOArhH143xK2BoMU32cN1TOyjTf/YC00GUwN3L5Ul6/P8fV24UDQfjvG5PoaSsmFsl3Ex3b10I4K7331wuzwErti7JFn5XJQAPArjHMtr93GWwtH4m+5vnj+JC9g96+W+Vl+3UyCRjAPf4VMvlORr4+Gnphr1vt8aHs/4yeWmxSKykgC1gDgHc9f+bK+ZXQleRdCufUgvTHQK4x6SrtzBjRlutrsVtsofrscoZGe3GP1IG9youj9HSrQ/rNfBJHs+wiZwMqSPZQsVlmu2hEMA9LvEZaePlVsJ8KZNOvmYwHgRwjy0xM3QXdK2hyd6XlJaU/V3Vf/0k00+UwD3A5SG6lTDPNPI5HocN7SmSnBdzW0yi7J997SGAe5zik9Jq5VVCj6Q/vdo7TaA8COCOxIyEJnuY3q0quoQXpyYZA7gnpFI+6Q2j/fZ4kgMGzb3hqhqXELvHlJEbArjHKz4Gdy2nGjY5pF3+ogPAPAjgHmtiZngQvC2IyR6uWTXX8V9DY4wB3BNUFp9eMW6hG+3BXZZ51ZHl6BZg89iyQiGAe9yyG/jdX+Zk7BK3KLS3wnSHAO6x6jQSM0ma7C/ucTHZw/VGybXU9IhUgHvs4J5h8DM8xqgMGY+4wm/43jlgDwHcE1ABl+92cqmhS/JJnoUekB4EcI85MXNpFAAetx4sczbZw/R+Qb31HBw+wxjAXQRw7zHat4utOdVWSgYareUGbx1/dQjgnojSuHx3Jo8aWtyyl6DMD9SDAO5IzEhksodp+rVya6r9Eak76FcA9+3g3mH0mBZrTNPhmo5QwsYqQ3MCPdYQwF1ycM9pJPADtg2sBwHckZjhqoXl2c1nGpns4Xql2kSZgWvMKAHcv7C9DJ8tUhDLxXYHaXFjg4FnMdWawe3Sg7uTRBWcCLpDAPe49B8kZnbqPZ3X2mQP15MHimVkrjIGcBcG3I1XTQzXWk8u21FjM2jbmHpB7fKDezmVH7A4jAkCuMenMyMXQemGmOzhQZm3Ki3wlZEbjAHcAe7xtertIThy3JdvyK6xZAHa5Qf3PWTCTpnAPQjgHm9iZmIAtB5msvfpr0WVMjITY4wB3AHun8kb9UoPk8xkO/IM2DQuN5hdfnBvTqVTiHTwHgRwj79R9VY/THZ9TfZwPf1RlYXW94hUgLs0HWpRnedWokcFpelP7h47kF1+cLc5CHUpmL0APgjgHr9uqNmouj6/tvHKEJM9TPf/q8hq631EKsBdFh1RldtDoRK9j2LKB7dTAPcGUpVI7QbxQQB3jHYX3GQP16YarztuDo0xBnAHuCfwqryT8AyUoL6eO/x2EuBeTqwUPguQDwK4J9aoOjWoisn+vk8YPV9XISNjxBGpAHdJlHsg8lUeJz27UFdy9zjA6wTAvTKFWi0wzh0CuKNR9asm++NFQUz2MD16qEBGZvgOYwB3gPtOdluUnAzxmeM6kjv8dhLgbqFXxvY8MB8EcE9YF87CZNdTG+Sx3bAjUgHukuhQxGtsI39WUIEHfjvAPQ5V0auFuRTMBwHck9Dk+ClSJvvT+33iauU2cWwfvXSeMYA7wH1npUXMt/YocMan3aXLbkFfKg1w91P8kzAXA/oggHtSjarnRmGy6xOUmSdN7YO3fmDCCeAumMojXaHXqgJCuvXozbMVgdUpgLsrSLIaDYA+COCe7Gj34UGZTfbp6T4pNEcZ20+Nn2YM4A5wjxIUiQSte1LUYMgsk+Z7xdIIVCcB7k6a1bAi5Q4B3BVsVF2YebPysk8m3SMclLl8jokpgLtY6ohwfZWpqkDkUa23iikbpE4C3IutKAcEAdx3TMyclKxRdXXmJ6m4/eUqMjIAd8XBvSbC5TVXq0ORtRpvlSqAOg1wJxt4CoL6IIA7p0bVK1IB4+21pWl5wP0xMjIAd8XBvSLCC/KmNIUoMter6U45Dk6nAe6H6NbjILAPArjzalS9LBc1zi++k4Tbl2gemTpwjQktgLtAMkcIylh8SmFke6WGG6XDDE4nAe6uMrr1cAL7IIC7so2q67MrMnD7O4pBmcGzF5jg+gPAXY5ndaliHJmm3Th3dXoFqIN7OuF62IF9EMCdZ6Pq0F25+HH51SPhwX2WnuF+avwGE17fA9yFUWGEiTK1yoGkT6uhkJ4gKJ0GuHvqCNfD7AH3QQB3zo2qcnHmwsYTsbn9DcGMzHkmgf4BcBeGVG07X5pXwXCHRqNlFMscUQb3XtIF6QD3QQB3zjozIluj6jOBG1XfL9Ay3PvFz8hs6Y8mQncJucH9SASHrbJdRZQs12SXYBAkFXDPo32sQTq4DwK4o1F1dVPURtXp16Sw/crIJJNEf6d0l5Aa3N2uCJGAEiVRMkWLBlUMlCED7gHaBSkF90EAdy104ZZsjar3hAT3F7TOWjovC7azX/8T4C7IUzpCottUqChLFri475GDViA6EXD3EH8NdQTcBwHc0agqbKPqkwfIyBijY6TuEvKCe0prpOsypjG1wuHuOlpV29abVVRgFCJxNx0VfXdBEtwziBekBNwHAdzRqPpRD+aeChaUeUtmjow8GZmthPvvAe4iyLE/0mX59TWJzSXuzNa9xZ93yjb5e1q6HPq71Zxj7sq+uyAI7rYK4gVpB/dBAHc0qn7S22f3BQL3RSpzZCbGmFz6E627hKTgnpIRcfChR79DZswFWW3+CPEUS31Pr0/XjkDOMfd08DkZcG8lXxELwA8CuGvbqDoqWaPqzE+icPvTH0lkZK6fZLLpL8TuElKCu7W0O+JF5bh1gnZHYF9Mk6MtB9sa9TM7HTaOG8SPgDsdcLeTr4gN4AcB3HGi6vZGVSHmQ95fxhwZY/RXE7G7hITgntLQHOWidEnypjb2xHXci6m+1q2T817Fb3/o+O4C4K41uNfTrwgcdwjgrkOj6sSAXLg5v/jSeHDfREbGGH33LbW7hGzgbt7Vmh+VT7Q3ieuO7k0EEWzehmo93kgc5LY/akDndMA9QL8iJoAfBHDXp1FVqkOZBGhUfb6OjIwhW/W735C7S8gE7uZgQ09TDHTs0LoDLsubuLGX4w9oz+4FvBIDPYBzOuBuSyVfEDSnQgB3vXRj/JRc3Ln8xshG1UcP5cb2i1OTTEr9+Vt6dwnBwb3aXlTYWJodcKZ3Hq6MkUadGifIj+cnueaWvQ1az4rs5bM78lIB53TA/ZB+C1Ox9XfrDGSXNvoK9NtFBeA+SHL9TSYvE42qsWtDamy/OTQmJ7azY7sJ3iVEBfcyt7PH352Ise03axlC6fJzWXZX+S5tX05w+d80ucHmhMBdj9hTndtZvn0u6jff2OoPZ3TpcRxAEbgPklzH5MKiO1NyNareXlsyplF15TYyMgbod9+TvEsICO65dmeHJ+ELcgU1fBEf6Oa38pUBLW33II+wTKdhe8Ba5ihqbMjO/h97Z/7c1HXFcSMv2LElLNmWbUmWbSx5Absm3neMF2zZJIQtlJ0ApaE00EkhpWmztJ20kzKZJu1vVMM4EBtjMMO+EwiYPQXKDoFMUmCGyU9N/oI2IW3BNfJ7eufc7Z3vH6B37z3P15973/ec43IF4qtrPU5/C4G7UXBPRl5D+6ixWRWhBlCX5XIm4o7BR9xHklzLZUOj7p7DsiWq3uNglDknr0em94Cs2B5c8zs1dwnRwD3K1+Q1NKEAHraP9cKufVLZaNGY8gnVc6Ble+qkkTNzHUMsVmVhWXxrC4F72OCehbkSo+MLtTjIrN6aSZgxnEDcR5JcE5fJh0c7JOuoev/KLdbgfpY8MjzKycxTdJcQCtztaU1GL4rRjDKRc73wq29rQkukjaw3OjhLDmt7VFxn6TDxt9Y3FTsTCNzDAXcfnqO9uFTPzX+WD43dc4n7SLJrgYyEdKjnhFw8eunuRZbcPiCnUaZr8y55qT04eWGKqpuEQODuLzOOxjYkEE6sdiAFIKsVaTnTjI6smWXwW2rzNduQkjqKownc9YK7rRzptB3XoXt3dDdnoHhm7NR/iSS9Gl+WkpKkS1Q9//lVZtz+2WUpPTKb+iTG9uCId5XldnHAPb0ZondKDM7gckoRQ9CB1M+y0NiwvOxavRYV666KnxnjJHDXpVIca5srzBNtfSxCrZkcoj6S/FouKyn19e6ULFH1BqNE1TMSYvudnm6Zsf3ZBW0K7xGCgHt6FkjnlOkorUkLanBjYKlBSagd7TY0qnhmWQ154R3ZMhvGEbhrVxnKRzIDpVHd48HjV0bQR1JAL0lLSxJ2VGWRqPo38sgwv27/vdJbhBDgXjAeqFN5GsLgEqq96FGwLcHwMbiMDCmXjZPcmW/geGHJrrUTuHP722hpcBt87WuAnW2ZxHwkBdQ2W2Ji2ntUrkTVm2cGsLn93nnpPDKfyI3tk19tU3uLEADc7bFJQJMpxLi3zmYSB28AHpQjKwwwVTqLyMdVGV03R0M5gbsWWaHXKdEHkPZhKYR0PDkJ+UhKqHGVzNREiapyG2VOyO2R+bd+Pk/1HYI/uKdXQs3F7YcfnS+JVSQq4VsyGahqHYMf+MgASFV8d5mfwF3D6yXqgbYDrnhRPhEfSRFyf01qcOrfeFAuVj119joet38t1VLs3tovObYvfkX9DYI3uCfEwhWCaID3XzcxDIW1EzpdLzHsM1EdesH0yLl1UAuX3FlE4D6c8sU90HYAfd2JchPwkVQh99mS05OEiaoncbj9gURGmQ1y15H5ziXzTJsJ9gfO4O7Pg5uKAxw2ndPZBsMB3ZTeE+5IAtjnteoKyIVzj4wicA+tWFB3O+yB1pYP8tHERbhHUkaWv8hOUNv2SZaoevn0AwRuP36NPDIM9ZN5ptge+IJ7HGTeZzX06OLZV4VuBgbQMP0Mmcg5n54x0AuHkSOgFLhnQLrbwJNA3Q3GT91RXqI9kkJ6Y7L0FCVbR9WbZwbA60PelqX10uav+qV/4Wa/a5LNgSe4FxRCzmQMMLnZuThmKzJAJ+EMr8pmGmrc/YVWhJUrbSVwDyHAqvxxGAdaR3wCl2CQSKLqzV9LD1LSJap2XbgNm6h69ZQcHpmj6+V/2Va9b5q9gSO4l9SBzsQDO7rybD4BsYwEPYCE5WnIxgy73YVkRbZ2thC4P011cJMutuDEr9JYlqqfHO4kxdT2S/lhSrpE1S7QRNXj/5Bhzh9tl98jE1zzhtU8WwM3cLd3wk4kD3Z4qfXcQpIH2bI0PQzKsmA2JU1FbEI7PYPAHf0sNhbvzJpv4M235xLnkZTT8mUKoHuwr3ePZPUhv4RKVP1GijoyCrxji3/RZqaNgRe4+6tg5wEMm846jjFxQBaGzNL//BrEpFQXat6AZUkkgTtuTKsx4+eNTwx3XDEEeSQF9cJLKpB7sH/rbtkSVR9CcPv1++J7ZPaqgO0L28y1L3AC9xxoMIbtveTh+9ndBlgCpFX/01Pxjmvo/qMx6QTuQ6kMaMYZNtz4VYV5AK+1EOORlNT7I5RA9+DeTRvkqg/5hfFE1ZOXyCPD5LY9xWy7Ah9wL4ZeZ9gLd08y77A0wdm1dRfcxLtw9zD4juH2EbgPIaCjYLkDO362JeEUVspIjiCR1FTbD55VA927Zeuoeu7Te8bA/bTYFWU+3NevwGu1xnzYzgfcE+A/a2dBjk8ECqgEaweao/PJ1lS0sLO5FW2OJHD/P9XCXxaXNgAAIABJREFUTHgmg/g59Nc0ciZFkEjK6s2fqUHuwf6NktWHvH/llgFuv3VT5CTcLTtUeKU+2dL1w6UTCdwZpKUi/PeHvHDPEKI8xXQwftZpT2lCCntUB6ulqyoicB8smLSJVjYBbNKZpJpD3E5SWz9apQi6S5ioejfc+pAXLwjskek9pIT/6tFBcOWLM6zm2hDYg3tLHvwsOiDt94KUlfNCpaim6btwRzKJj8tk95flcBK4DxJMVFmdvbw+PTVRa8knQ1Jd1uWLVUF32RJVj50/fTUscP+cPDLI/b0eKzS6aMpzBO6IiqpCmAVg751RwtzeJZfAzChRV2XLQpyw5zBta+lOI3B/UuNAcovZnb3yRmt2YDWY7K6FZE61LVymCrrLl6h67Yb+RNW/HyOPDOb5b9eg81/71GnmKS3DGtxbMLgdsIZ7qkBf3W2BdcwRz4Jz4V7C+FI0pZrA/Qn52T/S4Nkr1q7tMEH120km0QsLJiuD7uonql48J+Q89vQeUALb998ZYnJ/mD+LwB2F21H+zcI1TS2vFyo6c2E+cugw/+ShhD3exnrlLC4C98dVDvHIJqYhrNTgFbMHvBEkkmnQ/VV1bt37vzooV6LqzTMDesD9rIiz262GR6b746ce+9b+xhTX7nEKcHtmAtT47NmChacYZFo6mtSieExcPJYuhsD9MYGUF61kfPjKH+47QcYYYjkSobusOrBd3UTVAfGMMl0HN6rxtSb0a/PeHBO43ZmCuz0PZQ4BsAGOFy08lniIaaVrrsNYn6gKt8P1HFIC3O0Qj2T+OcqWH8Kbn5BGLhkSobvkiaqb5UL3U2eva+L2zy6LNvKdR5TwyAT7eofNj3jnxbcI3OGUgFMF2gvWrChWvPhYQczamg9MxepwOwtyN9mNeyaH978jbuihj3ZlRpBIpkT3Z15WB91lTFQ9OTy4nxFs1Hd6tinxtuzQ2Ahg6q8I3KEUgzMFME+ExyZggKwQEZqk8WFJLfBRn8tv7WII3P+jAohH8rnhdjcFBvU0sOeMzbVEkEhmVdsbIxRC9+79H8p17X759INhuP2GWEaZzbvU+D6zS0ch0T8pje4Mwb0YZwYpUD1GC+qEjJANwHYeqTGFbwJ81AM8CWssgfv3AvkjmcAtkN7sfJevJCPHU1s9sqaU6raTzC7LK68phO79G7fIhe7DJKreOy/QWDcc7VPiJdm2/7C+ia9VGN3ZgTvWfTZUp8+ELEFD5AZoJ6QtPdUaDR51H98i27EE7o8E0oc31UbARCKJoFmrX9+9tV8hdj8kW6LqhdsXZTDKfLS9W5GM1J36Jz9V2eqQzMA9GqtuG1QtyICwMXIYvy7V1qu+AzzqJZxRz+IjcP9OMOX5ywiYSCTualy69pFx+eNtKl27y5Wo2tX11ETVrwVqkarGu7E+zESI9tWNBO6GCkFiFW6rAKqDkiru93draSSbvMJJ0FF3unmvnS2DwP1bwSxDy3SCJhKJr976YKVy96mSJqr+9dKXQySqPjhFLVJBtcvAiW7FNAJ3Az6UGqwJjASqVFkpcpQKDZ9OtJR28UYCR93v4L90SekE7nB/56nU74hE4nrZvmiQg3nTepXQvVuvkZl/ourDQdx+/JoYHhk1WqQG+/cZTF3+7fME7sIVWrRE80QwZjJ8PPFr8Kwsgf7KIsRhqL6cwB2qB++6daOI3EkkXvrp/LeHaoeplNk9KFui6rEvBo4/Du63hfDI7FfDRRWiR6pmvTeDwD1MywSa1TkbZoDjBC9UYTHs5NfQE9YJHPUaMdauI5HAHa6m/bh6wicSiYPapk1tfwqaHN6vktk9eKjnhFzsfu7Te//l9qv8jTKqtEgN9h0BsU61/5HAPayrV7xeKUDJhx2ix6muCL0YZ6Uc5T/1q4HAPWIm2JyjmgmhSCTWapyyImRfTEWMEbJ2VL1/5db3Rpl/cm+RukmN8o+amy1p0GqrYtsBE3DPRxt+Eowtu0T8QBm9N/YPW08duGtqqzC1A60eAvdcwFl7KgijSCSWen7O66a5ZoW9bWXnmLl099v6kN9wHsaJnm5Fjm67IZdlvmLkzgLcJ+ENvxnmi4AMJGLUpVw1zO+nwHrBo8RZU6u3yOzgbvWCfkErSyGUIpFY6bnVKzXRiWJmd+k6qp4//fDWfa4jUOUNgK/q/2cCd50qQMxnS+PIX4xlM2hBnzvM7+fBRl0oQ0VWgtlv3CMKQCeeXkU0RSKxwfYP3jFdKZH/uSUkS1Tl2TJ1w1FFCgz19cJ/bGlXK0OVAbgX4o0+yQ4xwCI5WqhnGrMFRQ/z8/GgQa8Va+3iTQ/uObAzT/RlElGRSOhqnLNSF6B0bVHLMSNdoiq1SDV6WDuIsj4/nkjgLgrCwaTcTZAkVgZrQoYuzmgDtZMUCVY10B1tdnAPQM/d7qP6MiQSrlKWrjBvKUBZE1X5tEhVwyPTvw+tjv8UAnc9Rpk6xNGDOGX8yZLEKjnV0DwbQv54NmjUa0Rbuzyzg3sn/OztvlIiKxIJTzMWmbv5jqyJqtQiNcysBnBr++NX7irlp6KDexPi4GFqyiyRJljZhqzao0L+NmhNGY9JXnSJwL0U5a+7daaN6IpEQtHE1e1UylvWRFV22nNEkVPa3k24x7NZBO6aVY05+BpTXbgbjZY9KcQvW/yAQf8Xe+e601Z2xXEPEAjFJBjMLZhbAsTcBAqQEGAScZsGQqWqijSVWrXSaKR+Gc0rjNqPrfq1rcwRMib4bmQcA+ESEOI18gTzFA1hkiHGx5jjdfbZa+//7wG2tvdeJL+z91prl0uYRFFfobe4Ny7YdKM2iGR3AGzgp+9KzZ5QKmPG2D0JwtKvvr0VVmOXids/5uPvEPdiaW6zc/LTeh24u1wzJdlnoSrhPud91mZe6i3urnbb/sgXZ2dgWQCQ8ts/vSjZVBR7lcnYT7+GqSt5r7L59sj+1VKpI6S94u55YufcGykOURcaOG1XSfWpSwUGHiTcdTnvMBqb9Rb3Z3b+nfvmO6BaAJDx+z/QmF3sjVLqnnqDQtVL7R9PVWn/uCNivf4LcS+SSlvnTnJKvMRqu9pKacc9WmDgJsJdn5dz7br0FveHAXu/0dtnX0G3ACDhh7/R5VIcq5UxE49m4OxKtX9MiEmBegFxL/YO3d7KNZJT4gFe+zVeym81N6uOOrpdb5W1ePuB1uLuLQ/YTetgH2pVASjd23+kNJZMJI5CVdXaPyrS8nNrT9xe/hXiXtwhnM1STHFK/IDZfnlLKSJ9bjrsFOG2L8u6dpNaizvRK8PXZZ61jA+UQbwAKIHf/UisLKplzGheqKpMavthekfcqsV+A3GXIFGG5pR4jtuGfV/Cj602HfUp4TWLvGvn01rc/QFBDFe/fIKTdwAs8s13L+i15X14Uyl11/dF1ZAqFyi7EaHrloS4F0VTo71TpzglrvBy2zBvCS+c3jIdlbAZZJe8a9entbjPuAPiWPA9e9gABQPg5vzFHnFRLWNGz0JVVVLbBbR/zEkuSkHci6Fu0uap9xBMsprfjpWS2W/Wtm+A8HNN5kSJdp3F3XU3IBZ3a89sN+wdgBvxk33ykk2mUKjKOrV9L4X7EmvpRdsGxL0Yauyeeq/ax8NmvHLT/9xZum0fknnturUW99mAA7hvTVeh3QwARfMvO/3lTLGMGZHFjUhtZ/JEaj6iBsS9GPrtbuz8mOJC38twy0ooMrxnMuQ02bbflzu5uVVnce/wBJxheKWqqx5CBkAR/GB7ivSaWoWqGwktClUzUTUynZzJcIqlIO5yNPOeI5jkCsctW6bvoUOX4l4p99r5dRZ3wu8zK1/yvsE5HL0DcA3/tN9iskm11F2DQlVVbko2jx3ZqqPz1YO4F5HqbHsz7xGCWU5x3LJa65q90Gjb5cUF5ZI/oOmd0FnclwNO099S2eeFmwFgyj/ElDgeolAVXdvF1ySEnPns2Tcg7kVltvbZPnOKLu487+9L+GR5YtvlxQVPZV+7ezqLe21vQAI8TSNTSJwBID9/FJQwndhQ69g9/i6kqLZn1WjCn9o4cGgB33/0doi7DDkobQQJu6M896yEx+v9eQe8TbbvfbKvXafO4u6qCshC89JQBxwNgCv8O4RzXLyo+usH1okaJQlbzm3O+i+3SxD3aw/V7E9m7dbhfDg/dyqIbW+Rat9H5X80c1FncW9YCMiDu3Wkqw2eBsAX/EdkwWPkVK2MGdUKVTPv9tG3s0QOPlUHQNyvY8T+iVMcHvqZbtqK5V/syzec1+OsyArlpc7iTpwpRFAT0V45BlUD4JK4vxB6oBtDa3dUpNrMdsLBG4v052lA3K/771hACusjiu+LSp5Ybwg5nG8pJ6n2ve6x/AFP2hORnbjXewLSMTqyfAe6BsAF/4Mesk3KIH5sSY1bEEc77WcuVXJA3K/hnoCJjwaABfIlFj+nGvwuh4hv0VncXTVSRmVF9RB6zQBwzlfiPSeU2FarUNXJI16qxuNqVKQepncc/fi53Pse4n5N08EZ++fdVgcJt0J3nrUcoRp8nEPE+7UW9/oFSQOzvGW+AdIGwFdv0XCwdPajO4ytPRhR47Gl3YizJQfpL9LAIO6FeSZg3mNwcEt8n2ct26kG/5pDxFPmyvATd9egvLFZ/mgIOTNAe3FPZR2RnB1FXub8nKKRzDLV9pAaFamO99Y/yrlHgrgXZELEyZkfDm6Jmjxr2U80diuPkG/XWtzbhmUOz4mlSZgb0FvcjTWHGpIHDxRr7b4bYdjafSetRMnBYdrh12yD0dyqa4h7QYS8ej8CB7dEe57sCaqxB3mE/LjW4i79J+9o1SvIG9BZ3I09x2znvWKFqpvhM17afhbewicTSe7X1bINiHsh+oX0Zm6Hg1vToqtL+ZBq7G4eIT+gt7jfaZI9Rut8XUiZARqLuxF1ME8jsqtYxkyMj7ar0UjG8RyZD1GcztPkFOLudIa7yzUBB7eEp9a2E+gFJrZVNqy1uLs6y+UP096qehgc0FbcU452RVGtUJVLxkxWiUYym8fOX3IkDvPNDOJeqMJMyEvmHVBwi1xttf6UaGSffjHPUtxd37P4wpzuLoPEAT3F3UhFnM2zju4rpe4cMmYOlGjJGY86/5F0ZFKqAXEvwIiQaaOpjFX6bMs6GucS837Nxb3MxyNUW+eRMQP0FHcjFXVWfoKK9BFnkjETPDlVYZE3DiQo7g2bTQ/ibo5bTEvAORi4ReavrCXVU1Zs+oF0ai7urpleJsE6/Ay93YGW4m4Yx0GnDy4VK1SNS9vaPZhQoROnDDkyq6GoedBC3M1ZETPtcRg4VQlCLVFfcw+bty/LKjQXd1e3h0u4Lowg2R1oKe7G9munLSgTWVMsY+a9jN5+Elfis0iGQoKCX0AQd3PGxEx7CQZukZ7cpaTqBtnEJ+h9uou7q5JPwHqedkLmgIbibmxKkHiwvpdSKmNGhmSOnCSZOJaViFjhhkgQd1PauamXdlwpIe0jGniJT9APai/uZT2MQrauZQw6B/QTd8MIB523odeKFarG34Wg7bQXGW+PpOilmbxmnhB3U7oETbsZBm6RxdylnCIa2M8n6Ie0F3eX9y6noHW39EHogH7ibmzLkNuh2ouqh7L0mFFC2yUpHThKXns1BHE3476gNhBl5TBwq1tkV9YEo7fqOyHurplbvOK2fRJKB7QTd2MrLcX5sGKt3VN7WQm0PcL/KkOCt5YutL2YjC6IO63I3By0cbde7Ze7lkTlAm5G/T/ulEPcXQMVvALXPf01pA7oJu6GEZdDjVQrVN09wWl76Tky61LEZpGFGBB3szqyGW5HphrSlrOWj2iG7eUU9a0Qd06tZT7981IzA60Duom7YexJ0sZQsULV/WgGp+0l5chk5AjLZJEThribUC1q1n3wb8u8yllLoveXfJyifgXi/gG/m1vsVox7IXZAN3E3DiNBOdRdsULVLYeS3VU4bd9OyBGT2Z+LnjLE3QRhFWRD8G/LjNlz+rzEKeoHIe7nPGdn7oFbD2F2QDdxN4w1Wd79VKxQNbW37sBpO3tt35Kjj8zq6o3e94W456dV2Kz98G/LLOesJdErmpWcov45xP0js/zC1/20A24HdBN3w9hYl0TdVXtRdVtsC/LQO/aXFrLkyAQPtm80b4h7fl4Km3Ul/NsyXTlrSVSo+S2nqF+GuF/A8QXi4TnIHdBO3I1U8kwWdQ9FdlVS97UTYVkfO2n2Hz2y5MgET05vOHOIe17KxR2F3YZ/U4l7G7c0KQoGIO6MzT3Q8hh6B3QT9/OU7NfSvBykVn9IQXWq/Kt7t/YkufjJWKi2gLjnZUXcrHvg31Ti/timmlepaYC4f6KKYwxX4NAd6Cfucqn7jlKFqpv2r+yN8rGl5DAtSX+j15YuLiDuRSVP20gL/Jtqm54QDdvGKuw9EPdPPPdwjOIatJcB+om7XOoe5K+iwupUM/yzi7YTksTdWdjabQ/EPR+9d8TN2gf/tkz3l0tJ1FnTwyvshyHun3m4wDGMmwegeEA/cZdL3VffK1WoatszoOvHm/isIcs3svobIO75GBQ46wfwb6pk9G6iikFeYd8Kcf+VsWGOcbzgh+MBDcX9g7ofn8mj7qHEtkLqHo/SJ4MEE+w7aEqTI7NaSjdSiHse3J0CZ70I/7ZMzj4t04zayivsH0DcL/GqmWUkV7fB8oCG4m4YqTdZedR9NavSi6qpJO2x+3r4kPuSbMiSIxM8WSvld0Dc87DI8MBURzw5ycFdNMPe5RX2LRD3y3TwvMJqqofmAR3FXXz78esKVeNKHbtTJSOdpeP8P2Rk+UbMlNoBH+Keh1mRs26GgFvlQc5SDtkzrOQ8grh/QeM9N8dgHp6E5wE9xd0w1iIhedQ9GEuqdOy+/a703JDMCf9HZuXJkbFakQpxL5wpI/Tw6z4E3Cr3cpZyimZYH6+wX4G459A1wfL+CH0hga7iLpNWXaiVSoWqqWSilO+io+gG/w+Z3UhQktgi6YAPcXda3Poh4FbJfeF0nmbYFl5h3wNxz+Uxx8IRt/slTA/oKu7n7cclqlNdDfEvw/yiCHgjaqmVSjAbPlXhy0WWHJkgUf0zxP0q80JnPQEBt8qTnKV8TjPsI15hXwNxv4J3iWVAD0L1gLbifl6nGpNI3RV7UdUw4uFY6GbSHv1ZhYsHeb4IQxGqOgGI+xXKG4TOehgCbpH+Wog7xN2EIZY3WX+G6wF9xf1jRoNEye6rmcipUupupOJ7kaJO3jOx9IYany3yRJS1N1Ih7kUyLXbWyHG3SnXuUvqRKgNx/0RDDceYrqmF7QGNxd0w9qMyJbsHY0lDNTbfhCMx00PonVjkeGNflQ8VaXJkaFLbIe7mDImdNbrKWGUqdym/RXEqxJ35ofsSbA9oLe4yvWz5y0HpoaEgW7vJt+lo5CC2/oFsLHZwEg3vvdlVqSj3UJocmeABccUExD2XCq/YWaOPu9WNuvJmzRzNwO28wh7tIJU6dL8N3QN6i7tsnd1VeC9UQ+TJkaFLbYe4m/J/9s5sJ64rC8OkIBXcDHYNZjBFGcxYDIYYEzMYDwwdGVDnBgmp5VYi2blwR5a6o6jTlizftNQvEOXmGFm4bAYziRljBsviNfwE/RSddmh5YKqCdc7+19n/9wCVnM322d85519reT1+h5NTj0nTnqXkACaK+yc7olnfvv6CvkdsF/eRkSmosPvjp9tzVGFNGRmcOuedbRe+YlDcTWtbBRX8WITO71nKfplfLta17Sso7geTH+xVt7NrKXzEenEfGRl7CZWY8ddEVX+zMQ/TWfTpmitXSHE3Le4xOvixaN+7lOUyv5zQte0LKe6HEW86o+2RtJ/GRyjuIyOzz6ASM4+X/TRRlRkZL6LtCy5dI8XdtLgX0cGPQ+bQ3qWsFhKngKptn6C4H06btjRabx2Vj1Dc3yVmJhehClUn1ynGzMik2Ex0y73NQnE3Le6VlPDjENxnKVuEfjuiadcHQhT3o5aoTFkF+IU4nY9Q3HcTM5ssVCUpbpZtmIzMzribDXoo7qbF/TYl/BgU7Nfvekjox7s07fq4Q3E/Wt27dXVdjeVT+gjF/f89ZqZHkdx9k4WqmExNJm1JVVHcTYt7kBaePq37unWJ0K+Xa9r1VyjuqZDXrarBTD2lj1DcP1AypKlMjxcnnlCT0TIyOAURyYlVt6+W4m5a3Gup4WmTW7P/WgqlRlS19WiguKfG2eECRTucBaqE4v4Bc1hTmYQHYRL/ZGQ8qYOguJsW9zJ6eNpWc/2AtayS+f1rmnb9ZYp7yrRUhrTs8USY2kco7h8nZqDUnYWqzMjs80D30pMcFcXdtLhXU8TT9fYD34gL1SBWatr12RT3NAifa1Wyy4sC9D5Ccf+IjXmoxIz4IHuiOyPj3YaguJsW9y6aeHpkdh+4lkKziPo07foYxT0tosOluSr2+QC9j1DcP7W0mWWo1+6brvYOISk0HYKJULnZ/pHijibuEap4WjS2HbyWl2T+E72aXnZWUdzTflaur1Kw0XsZliEU972svobqMcNCVaMZGZhPMG/Hvew1RHE3Le4ZvZTxNLh0WIvrHKH/yJCeTR/JpbinT37/YCZ+WIbiRyju+yVmxnegXru/4ERVIyzhDNZ9seTtpVPcjYt7MW08ZaqGD11KqdaaZXo2vViJhFXi/hslHUXolardND9CcdeQmGGhqufM4WRkkhNvvL56irtxcS+ij6caHqgvOXwpO4xKrBEGKO7H/1pRG4N29wtRqh+huB+QmJlIIqk7C1U9ZWN+0Y4RqRR3VHFvopGnROLakYPgpV4/KwopVFLcT0K8uzILd8sHqX6E4q4lMcNCVa9YnYD5oy/PGFkBirtxcb9MJz+aUFF3Cq8fw1LPCHo2fTPF/YRE+3NQa1WzrtL9CMX94MTM0gsodfdgZCYBikklX5sqTL5IcTct7g3U8iNozumOp7SUAamKwy4tez6eS3E/OYGWYClkaOYW3Y9Q3BUlZrwawGNvRgbnM8vz+Q1jy0BxNy7uV6RO+cwsf9H6efPpzuy75RHv3z8Pa9nzcnN3bRb3/1FS1lSI96HpPOWPUNwPZQwsMbPCQlUbHtOerplsJURxNy7uYo3cz/GgkJpGpGZ2ajbFXZCveto/xzL3Sv6bJhT3o8ITz6ahWruPet0c0JKMDE4wyngpMsXduLhnNAod8n08KKQauVdpueBiirsw4eH2ZqBX7kP8R00o7kcCNIlndxwPC1WFP6xsw3xYWdky/k2F4m5e3KVeE4dKrD8o7koJU52O6w3nUtzd+AhWc60UZEATU+6E4q6sZpGFqn5+MNscB6hioLibF/fbUod8jfUHRbnUUt7Ucb21DsXdJc623D1VmGtc3DPD1D9CcWehqs0swEShUFJQFHfz4t4jdcjXW39QxKWWslTH9XZS3N199V4e7DScer9N/SMUd309RzhRVepTyhrMiNTFiSmQRaG4mxd3sbYyFTwppDpyh+Iarrakl+LuwdNg3XBTn7HkTBbHpxKKexqFqq+g1J2Fqid8FJuHycjsANUtUNzNi3s0ZJVtuopUvYBTq+FqJUcAUNwPJb9loLLwjAlz76H/EYp7WnnoRRaq+qX9I0y7oOWZWaCFobibF/eMQp7xUojVC8Q0XO0gxd1TIjXnCjyXdzaLIhT39JjDSVf8Xqg6vUAJ11xubG5EKsUdV9zF/OuS9SeFWL2Ahq8X0V6Ku+fEy7ILvK1ZvUIBJBT3NAFr7c5CVcXtH3fwPplQ3AHE/bLUEd9rfR5WrF7AuYt/scMOxd2MvA+fSrAjJCG44o5XqLoyOUUdTz3uBDQiFXB9KO4A4l4tdsb3235S5Iu9hC7Av9hSirsx8trqvUrNZOXTAAnF/RhZC5xRm7uFqlA5adyMDE6BMWrIieIOIO5RsZYV7dYfFXIyC59QGDpDcTfK1euxkBfmbv3jOKG4H/vNLdZE1R0Wqh6ZkXkJU6DwfH4DdJEo7gDinnGaveOkqBfTpSb0S73mUNxNE6/1wN35OE4o7j7wQBaqqmoJ9HQN9/sIxR1B3MV6oTgdth8V/XIJhQj2leY3Utwx3L3U5cxM61kqIKG4H5sFFqoqAWhEKvbzFcUdQdzl+nHHbD8qInISBV6e2uNQ3EEIB90dr1pDBSQUdxaq+jzajtPEcwV94i3FHUHcr4od8blh28+KYrG1bM6DvtACijsOeeWnXJytyr4yhOJ+QiucAStUfbXEQtWPnq1wRqQq+CLyM8UdQNwzmsXO+KDtZ0W7nC+VIV9nuUNxhyIerHJL3AupgITifuL49FYSyt1ZqPqeJxNJZmTS4D7FHUHcc2x5Tew+ggkS6JmVMYo7GvnDBS6Zu/Xf0QjF3ZeFqs/o7L+B0/7xOXpGZpe/UNwRxL3BktfEHnBVcKwlcB++NofiDkh1zBVxH6YDEoq7iCNOQ6k7C1WRou1q/hgP/XSXUCzuEbmechW2HxbFVrxyj1HcQdW91AVxZ0NIQnEXYh2stfvixBuLtX0MJto+qqhP53cUdwhxz6iQO+RbLD8sztnQzkP8hTvFXYx++cDMBTogobj7tlD1xYyl2r4KE23XkpF5x70bFHcMcf9C7pAftPywkKzaLEatGCiluOMS6GmV/utcpQQSirsfjXG3UBV2RqeLz0840XZlgSVfvXBXLe4tcmd8aMjuwyK/V1CYejCvscGhuCMTvsRO7oR8Biw/Yy83WahqkDmYQuHRV8pW/h/+msinWdzzEnKHfI7lp0WRoDBVlUA+mzRT3MFpkJ1re5kSSCjuwiywUNUUG/OLKCUGW+vK1u7e3/11l9As7hmVgq/cz9t9WgxIGtM1xCu86VDc0YkPSv51TlECCcVd3h/BJqou2jFRdWF6FGTBN8f1PSvd99ldQrW4lwme8p12nxZhwYaQTibgU1C4l+KugG7BpHsxJZBQ3K0oVP2Pzyeqzi4tMyPDgLtPxD0qKGO5ljeEVXTcAAAgAElEQVSWOS0ptKV419fpUNw10FUo9xUtnxZIKO6uMAXWH3Jn3scTVXG6tuvLyLzjR9/dJVSLu9D/Paxsesllfw+/KXMo7jqIyHXbt7zinFDcXS1UBZuoOrHqT20f295hRuZEfOu/u4RucRdtFNJv9XHxlWRWxkmAteKLXKC4ayEq1razmhZI1PFQjxCtvh6Fcvena/5LzExNJlHySEs6V/DL73x4l9At7pJZGedCidXnRZ+o0hZhXVylQ3HX885dKi3TQQsk6vizqkYnYIWqqkYCpfJoNAEzqlZrBfC9+368S+gW9wzRLhTZVp8XslkZpxbp2hocirsipMaBsR8k0ce32somwQpV/dPaHaci9e242p6bdx758i6hXNxFjSy3zebzYkg0K+P0duFcWriV4q4KoakCTbRAoo7v1bnRm61FrMSML1q7z66BDLvS2Udml7/d8OddQrm4R7MkPazY6jYUslkZpyCKcmFnKxyK+0FE4lG8rdgVYiN3Yit39OnR3BpWoeqK+sTMxvwKSkbmjd5V/PIPAZ/eJJSLe8YtABHzCdeFrbYd5cLOORT3PQTqBppin7+rETnTWjBYXxbx323pEiWQ6ONXpWnsJJS7a35NPDKFsphvxzV32fzsX769SWgX9xZREQuVW3xeRKRHFIHE3MscivunH6o6OhN7gmIF9XUwe1HmbxajBBJ9BH5S+pIYrFB1c1tpYgamIvXFjOouPQ/+6N+bhHZxzygWNbHGsMUHhnTrlUyImVZ1WRT3Tx52Kw96RCu4C9JZKSyyRBWUQKKQR99ojWU/ewWl7ipjHgsga5hU20fmd/75vZ/vEerF/aasivVZHHMvl/baRoAJOPFmh+L+IdVFh1Uht16LI2zFfJFK6QI6INHIr3p1CWyi6qiyl8YwjWR2xpVPov3lhq9vEerFPR6SdTGLe0IGxB232HhwOtrnUNw/YOjIhi2ttQj1PCKxrUIqIFHJj5q7ocwsQ712V6Sgsyg1vsszyidZ/fRvn98h1It7Rqesi+VaPLUlKG62McMfMPI6HYr7e84GUxHiCvNZ94DI43gxDZCoJO8X1doEVqianHiiojXPNkaNQPL1E93WPnLv54Df7xD6xb1GOpltb4FqOCSutp1GzT2Q41DcP/j7ptgXM9N4WXFEJvdGAyRKzf2BbnUaAytUXZ7B7/+4yA8UMvz1T/6/QegX90CxsI1lXbH2uBiUd9vKPIPXk+1Q3N9T3Zjyj+cYbu7exuJUYjcXldvT7LPpUajEzPwG8GqtbyX5gMOUjE3inlErrWOJOlsPizYX5PaWua9W9Q7F/T0N6XxP6TPbXmmA7SCJ5fzwjXaFWp+HKlRNTi+gfp+YTDIjI8OdH/KsuDv4QNyjCZq7FKddsNscU+YedCju7+lILweVMJoYKxJZIg5gIop59FC9Rs2tLYMlZgCLLkHetvsgIzNy7+LXltwcfCDuLrxYTZy39Kzodvzzzt319+2qxL3nTJq/HzIYdI/IFFucovwRxXz9YEQ/YIWqz+fB9HT9v+ydeVNU2RnG79AsGrqRpkGafV/sxoJhEbBlEWFEQGdUDMmM42QsqpJUjKZS5VQy/hHHmpQZJ1WzVpK69h8gS0NDU+yLLI7F1/ATzKfIODGKiNjLOeee857n+QL0Ped28zvveZ73laPaPryi/qv27kft2vw2UAB3DpnK4mN6/qvIKOZC7lbcXgngdoXAvTyK70ipZdOYBtHaFYIM4w+/J4DuY6vDUjlmZOoxIwe2P3i0rP5r9vbHH2r0y0AB3JmP/HzaAvqElNuV39JYV1TnaeGWHaznArh9wnvLOM6YAPcX6o/KTpZpkWUshdHxsR7kB6mtf7xPgNyfBlXhmJEW20elju2Gq0++0OqHgQS4N9o5kHuaXBt1otDrznrRhftI18GTTRzw3dXJhXDzBE9iSveZAPcdyxFl5yVbmyUuJ1Zxc41HMkBU9Me/UEB3/7pcQdUnWzPA9mcemRCBk+HK6A+f/vOSQ5+fBRLgzijLtsst0yLNJjnKszP35Cp3JfOLgWwuhGs/LPQc5MozAe47FH07+1wLzq/5rNLm+k5kgOjovb+SIHd/aHpSJnSfn1gDtg9J22gnMmx/8r/HuXr+nC6/CjTAvY5Dyd08Kkk/9zTvPv23nT7GdJLPp+RultWJW7GWTBPgvkOxRI4bOoS/8M2stqfFgCD19f1bNNBdtqCqhdS6FpCgyf2SxWcXVti+Y9ZX94WLGQB3ZcCdS8nd7KySYIPqfM43FbPLFSi5m6ZNGAEWNZgA951nsdjWwyc47lHF6hSemm5AEAGd/s3viKD72OqGTOhukU9Eimr78OoMgRdqZmv3iN7r994DuKsC7nVcuCw1Kc7i5+o/aBeNVic4ldxNe7aYs/BJpwlw36nqGP9SQ6XIr0FBPKvdqQHxQUTU/tG7RNDdPydVUHVDPLoHJai20/DI+MfGR/d4uNtXrgHc1QB3I5cPmfW5rHyojFZbmK4eln6ZbG6cWyLAMO2qNU2A+055Yj/I5Imba5CTxWx3MH8JoqMPP36bCrqvj2/r29l9OSDBI5PwyPjXZ+df84Ddd6gHVamAexMnNKux0Oje3xV+NfuUAiV302wo5H71kmAC3F8Wi5OMM1tQT/d0hrFiL2gPoiPHF+9TIXfJgqoPAkFh1w0P4ZFhdnGxr9/oVxdJozsVcOdVcjdtvVY9UVUkAG1n2PqOX8ndtJ/hCoAZSU4T4P6yCthYxsuE9FZMYXlfgm6QEC19/Scy6C5XUHXo4ZyQ48oiPDLiLi6+ugVwlx/cPXZedJZrTUf3tsgeyFnB7C/n8wx3FnPs0VfQZZoA911KZvWwJU3c3/kMpqPUPAYE0dL3hNBdromqkwu8H3fLeoPQ/CYJj0y4FxdfXgK4yw7u7ADlFcVXWvA4iZEeROLZccpJnrBrT87nVK1NtJkA993KYWd8svs491dMZ9ocqjPDgCCgu9RB1SF50J3rUCYZLhg2xkl4ZEIL4V9c3DkLcJcc3NP4WbPNXNEdoV19kX/ITGYulJQarrh7hEuXkqJM0wS4v6IOls/rrOZ5++QqYXprlgvIgyjq608IobtUQdXR2XU+PQtXJPDIcL9SsKr/4766ce80wF1qcDeSOBKazSu0J3RRWTQfMpnZ36/iDLxdzKcxpR20mwD3PcS4yY7tADd0L8+SYXMgSGqdvnjh/uKPITroLlVQdejhCPsU5cSSBPnbxzTOebMRr+XVvwHcpQb3nDKejJYgbhqTqzo1us/IzuZewpl47T6mDQbzs22mCXDf6/KE+cJwQvdjfaxPXkWAPIiazp6//jONbG/NECq7BzclCqpujLNsDzm2ZX2x/f72+BiN9ySqwVXdNwkW3QmBu1HJl9JKyoU8RdzA0Wg/YQ2za4Em7vVrZ3I/sxNbYoNpAtz33kgeW9fMPPbp8rI/YGBuKkRLjku/7O5+Ma9+nRC6SxVUfTDF6EZjZvqhBB7+xWndAxFfngO4SwzujsOcy8S1AubQNMVS7E6U7L3Yn/9KmfBffqtV2K4CuCfy+Sa4mZaz81vj2R8USwB6ECW1n79qWftxIQ3+HkkUVF0KjMTM7iOBeQm8P0TaP0aSSH1VvyU3SpUSuBt1vOvEqX2cW8x5amN6hAZmg17T4gVwr91dEWtMteVAp2kC3F8rbnNks3pZvWv5Xi5bWA/Ug+jo3L27dKlMxqDq/e2JuejZfWxlal6G8weRa5mxWN+Mu78GuMsL7sYB7qiWWstxlGpjzAnLVmafpVcM+tbUx9AcMqUq126aAPd9lMXv4TuTWXwVmko5xRNaAHsQFZ29eeN1YzBXKKF7aEGmiar3l6ZWowHf4NakFJcHREak+tdnYz8E3SVWc6cF7q4yAbR2qINPg+hyd+wUeoSZsddxSBD8Ot2noutj6ck+alos6cE9jm9oN7M1tqBCege3tywLtAcR0bVv/q5B8vB5AHFeJnYfWpydiwB/Q8tbU3JcG/Doj2ONhSrA5BR0tR3gLi24c+9j+KzDTD3zGUKuQTa10QF25X+nMP6NL62K0HfhaPLWmNZLenBP4+52yjsV7XchpbCUo83JC96DSOjcze439vojZXaXa6Lqz/C+OR3GCq+PzE7KcuigMiI1NPKQ1ZJ8A3CXF9wNtxhic/ZVONh9aEcRM78Aw0hetkgEduadbAx3RdOOlx4xpZD04O4RsnWDxyKn9p5SvimKOhAfREDvfHs7rAjiCCV0lyuo+sw2MxkYn368p+s9FFzYCiwuyfNZn9AYkeqfWd1gtyjdpPq5UwP3fmFZxQQvo6Bq3WWGBp9Udk22c4oFY3C8O7HiDeXb9LrK0gRTGkkP7k1i1sF+OLsnfL9TXGN9Lu+vaU0cmA9SXo7PrutmaJYyqPrihLQ9PDkVmB1fXV0d/0mzm1OTw0uSfUYiI1KjGba0n364A3CXF9yNQYHclpUUa3/IlIpqxhw6yG4pe6xIfpblXh7sKXjFqp9yrKjS25fpNKWS9OBeIfDOpKS18MSbT4Plg30irksSAX2Q8rr2ZSRkMjqxRgndJQuqKqIHj4jYppYDrIdydbcD3OUF97g8oeiWebko6qhqQW8t+8Kjm+FanrEOiTuLu3J9vtLk5Gafz91VE29KKYD77mNXbVJH4961d5enMLEvM1XQKSIN1AepXm7//EbEg+2XSTlmJAuqyq/RWRpB5dCPPObN3gK4ywvuYjqQv+zwCN+e/byAXNd7kE8HnHiG3vucGhOCVSZyfC+pTfaebDve8ZMqexO92cnuLLHfSjewD1JcZy9E1QJwJUQJ3WdkC6rKLCqtQcdYWtt36HOAu8TgbgxYgCoN7qSeMLtr5DRVVndx7NLHss98kxNwjnCqgqoC90Fq69an0VZdaTlmOHgmSIrMMK41btcsHwDcZQZ3ftMi36Bi9+XKprTXpuJcnsL66txi3sbxAZZL6QWcKw3uaXruS1kKwA9SWt92g+GYzc3UwCND5bS2HOC3SP8m1LGAIrjnW9os0Flc4kvOThpsq3zqFBhoa6v3HmiuPVRsE/T3mTawTjkMOlcZ3ONsWu5LPcAPUlmOmxiayamdN0mPDJHdDi0s8lym71BxlxrcjZ5UjWGyj+lSemzAc4XB3cjScVviXUA/SGVd6UYNFkHVMO9XqIxIHdvie7Gy9GeAu9zgrrXDI5ftUlYCz1UG91odtyUb5Acp7ZOB63mvoOoKgqqviMqIVH9wk3eUYfMXAHfJwd2Rpy9MdjFey2bwucLgnqjhrqAXJKS0LnXDQ7G35qaGwOo7tL01g40N9xwbBLjLDu5G2lFtYTKL8VKmZwHQ1QX3cg13JRnoByms9uss/QHEHDPrCKqSa/84s7IhYLUm/AB36cHdKLLrCpOsK+5GQScIXVlwT9cvo2BDwR1SWR/AA42gqj5GqPVZIeGFjRmAuwLgbiTpCpN5zJeyA4SuLLhraHKHwx1SWe/cZg8tW7QcM8GJJVjb0f4xEj1Y9gPcVQD3DLemMOljv5bVQHRlwf24bnsSnw/2gxTWZ1xALxBEUJWOtX2cSPvH6UVRSzbtB7grAe6GS1Nvtpf9UmbkgdFVBfcc3bwyiUA/SGVd4WStmFwghe76TlRdnA5hrlaEGvcD3BUBd6P/iJYwOcBhKV2ZgHRFwV23rkAJ6UA/SGV9xY1enoyPYaIqrO0anrtm/QB3ZcDdKHfqCJMeHkvZ0gBKVxTcPXrFtHscQD9IZV3laY0OPCYWVNWrPyQVa3toYVLkso37Ae4KgbtxSkOWPBrHYyXj9DwEUQB3Q6uwRy3AD1JbN/g22ZgkYrTQMKj6hIi1nfeI1N251P93zQS4KwLuxmX9WLKZ01Jigqqq4N6Yqs+G2PoBfpDa+hf/aCMtx4wmQVUqGYXghNhswvZzbxHAXRVwd+jXDK8QhyCA+8sq1WdD6sF9kOL6j4AaJLEeM/65R8SDqkOPluGRie688+KUCnBXBdyNdN36oRSncDsEHQSoqwnuadpM0DqUAu6DFNdbQhh0eIWWY4b0RFUq1vaxVeF3IxM7/jzAXRlwN3K69EJJjs3wUmpB6kqCuzY2p84CYB+kPLgLGkkzOrFGCt3FF3MFaXSWhrUpODEvfOmm/QB3JcHdOKFVJ8MGntNn0kuA6kqCu+HTYzvaQH2Q+uC+Jsr2MTQ1QssxE9yk55ihcjUyZ0H/n6l1P8BdUXA3jpVpRJKDXJdS15lWyoO7K0GH3XAD+v7L3rktpdE1YXgVGo0RUQE3gAgSFAQtLNzhvgx4oHhI1XeSQ+/KKUtxH9DCbYzRWClvI1eQq/hMUn/y5ys3MLNmenVP9wUAq2eGeVavt9/mIADuWsU6tLn5ckwK3QHEGOYOW6LRkXoE0T98Uf7Pr2BwxwTuImEfD3Jfh7mpdL9iWMcI7iJkg2dgeJahj4MCuB9Zqfk4JdaoSsjaffNug0b/QQXCsfP6s8bgjhncxahdyL09Y3YqC/1M6xjBXWTqyN/8A8x8HCTAXftsbaPleZmYYsZ6MTV3pD4zIhViI3X/yD3N4I4L3MWkTch9zfxUFiKM6xjBXcSoW8ssMvJxEAF37avF5EmtUfUYvWLmnsawpaPyOchZxcFj2WNwRwbuYnLQDhi5akUqC6yWQQnuYnSQb34ODhTgrl1aLS4g16h6UkLdkcoenUa82x9XfzG4YwN3kbABuQe9lqRygskdJbiLEGV/JV+AiY+DDrhbT+4PtHhFq1EVRlrNHal/NDIwHj/335/4QQzu6MBdhMiLs1utQhd3FxM7RnAXHrqukMMFBj4OSuCufQAQe5weEGtUhRFqGDv6uD4hkfrvQK76xcqT208Gd3zgLhLEyT1oXcmRyR0nuAtHQzvN65AbZd7joAXu2u41BDYelmlNVIUq++o2kvlKwpXzC9Ac283bZ4ZVMbgjBHfhJm1CPuO1MJW9rczsGMFdiL5hipfBOcS4x0EN3DVtD8TX8J7IoM7fEAkktNZTLaZhJPPhAGqzdP3siRGDO0ZwF72EB38mHZamMtDN0I4S3IWb4kOwxrTHQRDctRMY5CyWTkih+1H5EAO2X5DYMR1tX0Ml8PyF/moGd5TgLrxUNb7OvNWpdDUztaME9xbXfBtfBQ4ODOCu7UJZo1BrVFVfMUPD/3H36gbMiefFll4Gd5zgLlzLNBW+YYBcNjC2YwR3gnKZ98x6HETBXdPKO1D1X2KNqmorZm5I+D/CaWTWtz6+3JvB4I4U3IVodNKjx/5JkFTmnQzuKMFduIPM7RwcKMBd290Ha5Qk1qgKKOJ4qdp+xek1hu3lan4hgztacBdD5AZItrqBUrlSz+COEtxFSyMdd5mUg1GPgzC4a9o23BTQb3u0GlW/qqiY2aKwP9oFnFVbHbYzuGMGd5EgNj+o2QWWyjkfgztKcH94CnzM7RwcKMBdO67A4WZx/5IVM9AaDwQamVO4cVVVj/xlcEcM7qKXklCgLg6ZSo/dzWUadKVtRAGJiDdFQenkbGDO4yAP7pr2qQSJlrQaVY/OFPKYuaGA7dulTbAEHm5X/zspgfuUlBdoENOSO/x05O0Z2FQ6GtpsDe76fAjlVLvnDV67GP6JZG0LjHkcdgB3TTuBpM2dg0+kyu4ngKT515boO35sP4bzkVlfr23KLCVwT0l5g6ZxLTpeR4Mbg7PgqXyXszO4Z3XlTI6V+pjho6dV7MdN75jyOGwC7qBS9x+ItE0K3T9XLrjajlwjs3lXo+8RJXBPSnmFRpGtmoTEt73RpUAqQ3YWuuub2Nkj5bslVJvDqIvugwMMeRz2AXft6MsOJGcSa1Q9+rjF2I745KJY+ykQJXAfg2+Ug4jAFHpofJVRI5XeZfuCuz4jTjnDq8ISrp1nCq/S3VdgxuOwE7g/wOYVaGcltUZVSP9C/CKZY8idj64ps5TAPaxK9c/qGEJuZjjjUSeV4zbldmdAV77kzK4KSbl2fSNIc9/jYcTjsBm4g6M7tUbVDRh7SAJOMpAaGb1TZimBe0jKW7QP4crnOhEjY+4flVJZWLInuPcDbpbbJemkAq8xerq3JV1MeBz2A3d4dCfWqPrJegAl4Nt+AupypHfKLCVw75Dy2p7FuHRXEu0YmmCBU2msVi7FE7Rb5z5Hxnd3Sbt4k63o7v/xFeY7DnuCu6YdA1uRE5uoarGz+/kZdwdY5f9IGNylWFx0IV17AmfRvX6xRblUTqJKZSQWkLHTWNSZrIiE726Wd+0c2UFcD0Any9s57AvuD+hUPoc1RLkn1ahqIYmW0HcJgPrxbJZODPx0UuA+L+FFmsK6eNc8wqJ7t5vPL4zpLFIBIWSoexI6cxWV8N1StVK9zYj8+J1+lslw2Brcf4gVrmHRvWgIodTTfliRzmKt/oXqxeU+4D13emtMpUUK3PsUMbiAqhRjczMcnOZUGjwfGpC0YR126MxUVgK9St69jb7F8gB0ZZjtOGwP7g8MdQc9PohUo+ql2bLtnQr2UwpYjYzxUx5S4O4ybgmSCyBef0cjphFCzmgvn18Yu1kbftVrE8Y/SrcJqsf4ALAl6VdvCIW/TLvfy2jHweD+s7HytgiL7qf7Xwmhu6kikHP0fQGwM6t0d6RSBXcJs1ObcSdgYgYNty8pXm2c61E9g+mJ//1W4+cDk7rzlAaT1z+37xpT3yG1c5TBjoPB/XdjZWUHFt03D8uk+lS/mbPBOSCgkdkEvMtKUub20gL3UcNvU/QTDGNdKLC9P+tQPpXhVypncCT855cuGv0wn4HqtmpKmV/Rm1L7yCS3yOp2DgZ3pfpUiTWqmjAMFL+kCFYjU7yTdK5DC9yFUT+QTvwpcDWor5ep86NQJHnn61TN4Phf3Ocxesmz+pPUYXR7kzbp6hWmFEb3VTdTHQeDu1Km2hILoqpIQqTaQ97fXnJCFGkNIAbuRst/YQpJcE+pXWxsW53DkspC2qmkOvr1f9oDXhv7vIiR6m/e4GLMU4zMNSlqMOPrY6bjYHB/LEDHWNJrVD06K8lpHjjdx7+jAdXIrN/InDFLDNxbjKl9Ox000hBSkzd/KSPSCUypzAQxbHzcxkruC4bOJYw5pwfNvHqJGQUfhP54CyMdB4P7U+rsqxtgdD/d/0Co7H5cvjbKq8US/jlVwEIsycOqiIG7sZK7k04hTEHe/BU96FryVjoRbHwMOUL6OgwlaMHQckzuKplcVez4KZcMMNBxMLg/WyY+BEb39XNKjara7sfDogGFzBn+I4hdUI1M8W5D8nqogbsw4gUSpZSImIrzP4MYm38d70aU3/gE+uH2qy2dSj9zc8sKdSrUvZ5lnONgcH9Z1QBsD7m+c/CJErsfb9/qQNfNrcolgcXD3k0XJrjekwP3Of1v6fFeUplwrCg2iMY5g3XejCuuhldPW/rJDIYB2TmjX0qes6JJczapiDlk+zL3pHIwuFfptQ1sD0msUfVH/8DedQ3+5cXDyhkFkx3g85utj2aojMiBuxjTzZVD5HIx0K2OxDeXmkOcyZahJXjsiz7XHRDV+7GvPIazk9S9prg1l88zpoC1Z11zgVGOg8G9elUyuGLmhpQ/5E94/3hbhR/it9LeCRvryJgNcGbOsuiBu6Nb53vVT/GfMxFVQ+I73Ij9OMPRB9s2UP964nk21Xko0C6h6aBD79lOk3U7r5VuWIuZ+iSLZDgY3LEpZk73NzRqcXxZrtydP1p8P90q7X3fOKKyUtj7p2jeNF564C56I/rk10QHokz4B6Gp3RmcJjHcfbQJbBfUlX+xpTGhz1kmLyMzbn332IjHystX8I+DPQKRMY/g4GBwx1UxNVHsoAC/f7jcLl9VDh5i7yHK2xufSS0UWCOzUzHxtIYguIuEnvdzJ90Xq2saVOw+7J8jk8rZhgjExqd7pRqf0rCebYWkc6ZRPbuGQatvDG/2rRNk4zrEY1I5GNzReswQa1S1Rex+uSe826MI7iJTO0V00T7HTqSA2vPaeogxS8uK1X0DkcZqOxqztf+yqKzJBbHadw05iF7lQqPVFkH1ywnBwcHgbkCYfQutmNm83mYWxiTlPyiSvltIgruI1UruPvJuD4Fsj+U6j7a3axTzOpG0jv3qVmM1TOvJ1yrjjnZIy8pQrXZOuRjUvn7ZOslMW/Afr+DgYHDH7MP9q4b6ZZeBGIdG5jvoGc2pBeczNMFdZGp7NQdtIUCdXVuysFjsbF2kuxvKpIatsJHpydZ4Y07Xtjl7L3NScF9thzqDgJO4XENNlpxAjTROMLxxMLhLobHta2h0L+5fMhWzRuYFQ549K8ZVEQV3EaqlKNpsGwXqXKPPGufC4CJxZHHFovUmH1fkdci3+mroEm1fk5uSRC36/64Q9PVb7jf3GXjln2Ry42Bwl6h/AFfMrG9dHTMas0bmyTDL/tEu4C48q1VrUN/Z6r+0sNZj8iTJyHLYFlPdvSvLZrWq5tJxnU0X7qr95iPSJeaedPU+kArcIY7RpGnbWJ9/VHBwMLhLrqZebUGj+wU3qqqrkYE9lTHR/tE24C7EQnUV0aD9TrMDQ1NmKT3qu8dCdkplokG+T8lIc9iALto1X51cpskMY/18dc0l9XFVrp87G5VeeK/rzrNChoPDBHD/wWalTehGVavKqhw17upuIG+LeyuHdREGd+FuqqLsOGTPf1RHIr8qG94jTflEi/1S2fsu5ZM222dwNW54vGaiCvfPkZhZz9zL+xhnVC0Lp1B+Rlq3antrMsbdqBwcZoH7TzXEKXTZ/dseN6qyRub/47xs6WrfkP7feGnYZf+YrV+yoXhU0iT48eD7abeNM+kJ+5cMm/Z0RRcScrpFwy9IQPrXzLvvB14aMNuTUe/6ORLZ1JJRBVl9MLkSEBwcHKaCu6YdwytmuFGVNTJ/bobSicULfkP8n2PgGddtX5zHoojevrGozwBzto/MNIbdnEchAgP5Zr3wF0nPh2VKV1rCPc5nprCau7SllRUAABshSURBVF3NpJ/+7vYZdbXfrsmF5k59FzC3tJy142kTBwcEuD/ESQka3blRVR2NDOg+7uLgs+VLfkP+v8Pd8Gj5sf89ez78Du9o3D/TWV8jsfek1lbmeO/zN/yFpv3pGjLZFgk2L/7L3t3+RHWmcRyPJDvNauym7rK2u6vg1g3WNFiCrobVHRyrpLZheOErsgQIkvAQE0ADmGjfmBD23b7pK0/IPMA8MWcyDDMMMzyFzL/hX9C/Yh01jbZSoTBz3fd1vp9/QLzPnDu/c851Xfe5WkwjbXp/5+WVE3V44X395u09BuWcNf0CNtxruf/Nmb/vu3Hhi9u/9zXf44cP1DW4V2sjCpyoCunKKZnHt+Ne2D7+eev86U/ejpzf+ZvYVN/z9v1ax0eXvvv8sy/2jC2fXPnd7U+/+feF5quneL/4ayvZHvCd+PQPX+2Z4L8+feb8X242X6zpu+8b/vOn366+/8fffO31umynOk688yHn6z9faj5rzwX808W7tz669K/Pv9qj2/bKZ2fO/+fyl1f/yG8dEAnujpMpilfM0KgqTLZXWexA3eNe2UI+bmru8Psu+zuam3hJ/MHXjtcvtre0BAJ+v8/n+9bvvxAIfNnS3nSdtruDajx18dzdQOCC/76vyu/3B+5eq+dCftx099a3Pt/NC4H2uofMk/daOvyXq//2uevWXsG/nrpx9VpLc8B///LLq9cRaD539cZZnloB8eD+0tqOeMUMjapiMrJzZHJbYh9cWtlcAACAbcHdcUryFTM0qnqyRqYo2OJAcAcAABYGd8dx00kaVT1nRbZGRrhEiuAOAACsDO7Vipl4RDq6FxIp0nTdxj/Kdjfk4tLXmuAOAABsDe7iIwFfv4VNu2Tqelzr2KJnjkgluAMAAHXBvXoIj2jxhDGZTjvhryt5I57OCO4AAMDm4O4YMdq9/odoeqtGZlW0nyGys2DGOhDcAQCA5cG92qiap1FVb43MdkX0vK2sMd9TCO4AAMD64E6jqubxj6IXNlw0qIOB4A4AADQE92rzYkU6utOoetSiZdHraVgFFMEdAADoCO6O4/4oP9q9kqVR9ahkZGcGLWY3DFsQgjsAANAS3E1pVI2SuY/ARlb2iFQDexYI7gAAQFFwd5xMUXy0O42qR9GzIFojUzby4YvgDgAAVAV3MxpVc/FdwretU4IKWyUz14XgDgAAtAV3UxpVSeC/rUZG9uIZ/LmE4A4AAPQF9+qJqmXxipmKcd2NVtTIRKiRIbgDAAAPBfdXjao58dfuNKoe7HFL9ojUnKk1MgR3AACgO7g7ztI6jaoWET4idTNm+pUaYHMBAABag3u18mInJN+oyomq+/pAIlojk1w1f4l+YHMBAACKg7t4r+MrNKp+yMpySLRGxopnqzk2FwAAoDq4i1dOvz6GM1Eine95gWRn77+I2VHNFOxicwEAAMqDe7UOY0t8tDuNqnt9EskWqJHZjzH2FgAA4IHgXu183JRvVC3SqPrLGhnR/oOERf0HVMoAAABvBHfxOuo3jaoLZPW3i5jysjUySxYt1gRbCwAA8ExwN6NRNU+jqhnjH+2pkXld4T7J1gIAADwU3GlUNWn8Y0H008euZes1wM4CAAC8FdwdTlQ1wlpccv0rVtXIvC6UOcnOAgAAPBfczThRdXPbu42qbjovW6zkWrdkTzrZWAAAgBeD+6s3vuLzIb3aqCpb2h6xctWH+thXAACAV4P7y/xoQKNquOh6LbanEhFqZA6c2+fZVgAAgIeDu+O40TKNqvUlO5HT1oE+x3jfDgAAamOa0SYHalQte6VRVba0PbJja2XSdDebCgAAqI0xq1JRpijfqBpeX9If25eyi5JfNrLWLvHjRvYUAABQIzP21W/IN6pu7eqO7aktyTVO/mhtL0HbD+woAACgZrrb7HsbzImqNZ7hI1ojs2bvys3OsaEAAIAaGrMwILlR0bZJ28s5fnVpRQ+rtXtRH/awnQAAgFrqC1o6qFC8UTWyvKIutov2ENg9b3N0hs0EAADUWKu1Y0+S4hUzuka7b8QEO1JDlj8G9TIFEgAA1FxDr8XV2OKNqgU1o91FD1taTGxYvXjBGabJAACAOug5Zm9gWloXnw8ZWtYw2l30sCXrP1xMcFgqAACoj/kRm8uyo8sGjHbP2F3aLnnYUsj6VoGhYfYQAABQL5Ozdtdmi54WZH3FjFvcZOEOUSUz1cUOAgAA6pjchyyfhiLfqBpKrtpZbLRd4VMFVTIAAMAendO2B6jdLfFG1c1t62LoRjZHc8AhHHvA3gEAAOqta9D6EGVAo2ouvssgmf3OkbF/HM/s0wZ2DgAAUH8ND0Y1zEYRb1RNpm2ZkLIWp0bmMEZbKW4HAABC5qftT+7ORqwiHd0rsSUbnnHKcjUyZQUDNNsGu9kyAACAmK5+BcndhEbVSHzB8DValZv/WNgqaYjt9KQCAABZzx5piO5OSr5R1eQzhdx0mBqZQ8X2sUn2CgAAIK1xIKgiuhvQqGpq96Wb3qRGhtgOAAAU6Hvo6LC2E5Ie7W7gmaCCsT2noUbGaRvsY5MAAACmGB9SEt0NaFTNp4ntb4bcxxTUyDjBx8R2AABgkq7WUSXR3V0Vb1Q1aMaMXGy39VjZn8f2fmI7AAAwTU9/UEl0d1KJnHB0zyVSRsT2YkWsRial4Zc0MtXDzgAAAAw0P6YluRvQqGrAC2e3+ELoP/9CRY2MMzRwh10BAAAYaq5XTXQ3oFF1czvjxdiupEbGeTLeyI4AAABMju4TeqL7RnZRejxkVqzYfb3i6SKhQ5t+cJLdAAAAEN091KgaiUvkWDct9LbdoLbcQ5mYYyMAAABEd681qtZ/sntG6m17Pu1q+Mm0jX3PJgAAAIjuAjLijap1DbRL2zKxPbKzoOLnMsr8RwAAYJfJx0FF2X0tHpGN7uFinaJ7KSHzP13Mbqj4pQy1dnLzAwAAyzR0T40qiu5L0ieq1qVPdSEuM0knvK5i/KPz6CmDZAAAgJU6B2YVRXc3WhbuU02UVHbihspRHb+QiWHueQAAYK2u8UeKort4o2qoXLs+ValPCrmtkorfRpCOVAAAYLmTw72aonumKNyomqxNn+rKskyNjJIjUp2R4z3c6wAAwH66+lTFG1ULR35C0dK20NOIkiNS3WMDd7jNAQCADrqK3Z0N4UbV0FG+dndXhR5EIvFdHT8HzkgFAACqKCt2F29UzcWPpNrdXUkUOCL1MNrG/svdDQAAtHk21qarUbUgm90r2dShU7vUl4NwUcePYITDlgAAgE59qia7yzeqPg/H1n5zXXt6R+rBI7S8ouMHMERpOwAA0Ktz5pim6C5/ourzxZ30wWtOUrGk3B+c0DH+kdJ2AACgXcPwQ1UVM+InqlaHs2RX9x3eM9FYWbDGR8sRqZS2AwAAT5jsV1Ux40aFZqC/YzO+vvaBTJxZKSbykn+qmiNSR6Z6uI0BAIA3aKuYEW9UfROMK8l4bHV34+eBvbS2ur6VlP4yoOWIVOfJTBe3MAAA8JD/6aqYcdP55+bIVcLJ5eVkVf5FxIg/ScsRqU4vpe0AAMBz5nVVzBjQqGqu/BGeGCUpOPg9Ny4AAPCiOzNPVEV3ExpVDRTZWdBxfWdbO7lpAQCAZyk7lcldLYdI6iqPSHUePW3kfgUAAJ7WNzVCo6pa4aKOGpm2h3PcqgAAAF3j06qiu1mNqox/PILxj/193KYAAACvKKuYoVG1OtomntIy/vEOdygAAMBP+lpndTWqroc9HdsXs0pK2yeGuTkBAADe1TXeq6tiJrrs4dJ2Hdcw+HieGxMAAOA9ng0GVWX3UrbgydL2FR2Xb2iAGhkAAIC9dCurmHHTSa+Vtm+VOCIV/2fv3lbiSrM4gLd1OeClryHUG9RV6k7rWiiqCimwSgo8YVmg3ghi7gKduZNBTTQmHjCJJpo2I01eY56gn2LoaRi6h0y3hzrsb+3f7w32/r4Ni836rwUA5MFEJ1bHTL6CqlGmtluRCgBwH8+DdczkJqgapbV9drLiKwQAuJdSfTZYUDX+RtW9kyCt7avzVqQCANxfuI6Zm9gbVQ+OY0xtn2489/EBADxI4YfFWstG1TRcBZnaPrc0JZEKAPAI5Y31YEHVu4gdM7dH5yFOZ6Vb9s0BADzWVrsYK6h69C1Y2X75McTBFK1IBQB4IqPdJVIHrmVFKgBAHxjtbtnSQI1ZkQoA0C/RgqoROmZeB0mkWpEKANBXpW6soOrZL2l3zOyfWpEKAMD3vViOFVR99/VAItWKVACAiKpLc7E6Zq73Uyzbv8RIpM50Cj4pAIBBKc8HC6q+OklstPve3c8hemTaVqQCAAzYZm86VsfM8VU6ZftBjEEyemQAAIai1B0LVbqff06kY+YqxiCZ1fkJHxEAwJBEC6p+ust+x8y3o/MIK1L1yAAADFe0oOrNRbY7Zm4/R3jLc0sVnw4AwLBFC6qenV5muGw/C/CGVzb0yAAAjMZWI1ZQ9X02Z8zs/xKgbNcjAwAwUtGCqodHrzNXtkf4265HBgBg5ArNWEHVs2zNmNk/DdEjU/ahAACM3vhOLVZQNTsdMxHK9uLytm8EACAryvOrsbYyff2QgbL98mOAHpla1ecBAJAp2+1QQdXD61t/2/uwa0mPDABA9lTqs7HGQ74dZdme/t/24vJLHwUAQDZFC6p+uvO3XY8MAEBMwTaq3hx/ULY/Zo5MV48MAEDWBduoenhxNdyy/W3yTTLF5abPAAAgCbE2qg5zsvvel/d6ZAAAGJ5YG1XPTi+HUrYfvHmX+qta7z5z+wEAkjIeK6g6hJzqh68/pf6WFvTIAACkqDq5Fmkp05uDgSZSP58n/oJavR13HgAgUbGCqoPLqR68Sb61XY8MAEDiNnuBgqqDWcr0r6PD9Htkxl11AIDUleqRgqo/93my+8HJq9RfSaumRwYAIIitdqCg6vl1/2bMfEm+s313rK5HBgAgkFhB1ZujftTu+0fJj5HZnenokQEACGaiE2qj6j+Ovz1p09Lbo+Rntu9OmyMDABDTYq0VqXZ/f3G596iq/erk9DD9x5/VIwMAEFepux6pdN/96fPJA0dEHlwevz8L8OQzHbcZACC2rcZ0qNr97NP13e39ivbXJ0chivbd6camiwwAEN9UqKDqb7uZPl6c7P/JZtWD/ZOL03dBHnZ2suISAwDkQ6G5sBvQzavrizcnb/e//VbC7314fXt58vXinx/fncV5SHNkAADyJVhQNSf0yAAA5FB5Y10lrEcGAIAEbEfaqBrdTKfgxgIA5FalPqskTqFHpv3cZQUAyLdCc9lvdz0yAAAkYKc2pzjOrtX5CXcUAID/KM/PKJAzqahHBgCAP4i2UTWEtaWKmwkAwP8odceUylmysqFHBgCA7xkXVNUjAwBAEqqTa4rm0ZvTIwMAwF8QVM1Aj0zZPQQA4K9t9gRVR9cjs7ztBgIAcE+l7roSeiQ9MrWq2wcAwAMIqo5k15IeGQAAHkxQdbgWmj8U3DoAAB6h0BFUHZJWb8d9AwDg8RZrLVX1wI3Vn7lqAAA8TXlDUHWwZjpWpAIA0A9bDfMhB2W6semCAQDQJ4WpyVk19gDMTlbcLgAA+lq7mw85gPGPemQAAOi/xdqcYtuKVAAAsq88v6ritiIVAIAECKr2wXrXilQAAAatUhdUfVqPzAuXCACAwSsUBFWfMP7RilQAAIaouiSo+pjxj1akAgAwZIKqDx//2Bl3bwAAGD5B1Yf0yLStSAUAYFQEVe87/nGp4rYAADBCgqr3sLJhRSoAACNno6oVqQAAJEFQ1YpUAADSIKj6/RWpxj8CAJAxU5OCqn+08MKtAAAggwRVfz/+sWH8IwAAmbVYa6nZjX8EACD7BFV/Hf9YdhEAAMi8nAdVF5quAAAAacjvRlWt7QAAJKXQXNDaDgAACchdUHVlY8KpAwCQoPLGeo5a2186cAAAkvWynYvR7q3ejrMGACBpU39bi162r9VLzhkAgOQFD6qum9oOAEAUi72oo91XO+OOFwCAOErdsXhVe7FtajsAANEUmsuxgqqtXtWpAgAQUaTR7rP1Zw4UAICooox2t2wJAIDottIf7b7QdIwAAMRXrc2lnEhtLDpCAADyoTy/mmjZPi2RCgBArmw1EhztPrdUcXIAAOTM1OSaQTIAAJB9E52ZdMr2dYNkAADIr81eGh0zq51xhwUAQJ6V6rPZn/+47ZwAAMi9QrY7ZortTWcEAAC/Wqy1Mlu2G9sOAAD/lc2OmWJjx9EAAMDvFZoL/rYDAEACFrM0Y0bZDgAA/0+pvqZsBwCA7CvPr2SgbP+x6iQAAODPbbWLI/7bLpIKAAD3UB3heMjij8p2AAC4p1E1u+ttBwCAB5mYXze3HQAAEvBiuJPdp3siqQAA8BjPG0Ob7D63VPG+AQDgkarDWco09veydw0AAE9Q+jd7d5PSMBQFYNRm3mG3kTV01A6T8QNJgjyoSkCTkFJoO3FiZ92IexQXIKj5sYNzlvCNLiH3vnTqPdWPUC91BgCAgaZ9lCmrLonGAAAwgmUME43tx/1aXgAAGM19sxv//GMbhQUAgHFtn/tRx/auzEUFAIAJnA9jLao+NJ5IBQCAySTXw/BfZh6rqzMyAAAwrW3dDrntvijiSkQAAJhjdo/F4k/bqH16Vg8AAGb0Wobsd0P7oV7LBgAAs1udT9WPvrxnoYkbvQAA4P/kdVmFb4/N7EJVxneVAADgJmwu9T4tqjZ0XdeHEF6eivIU3/I752MAAODmLL/m9EQHAAAAAAAAAAAAAAAAAAAAAAAAAAAAAAAAAAAAAAAAAAAAAAAAAAAAAAAAAAAAAAAAAAAAAAAAAAAAAAAAAAAAAAAAAAAAAAAAAAAAAAAAAAAAAAAAAAAAAAAAAAAAAAAAAAAAAAAAAAAAAAAAAAAAAAAAAAAAAAAAAAAAAAAAAAAAAAAAAAAAAAAAAAAAAAAAAAAAAAAAAAAAAAAAAAAAAAAAAAAAAAAAAAAAAAAAAAAAAAAAAAAAAAAAAAAAAAAAAAAAAAAAAAAAAAAAAAAAAAAAAAAAAAAAAAAAAAAAAAAAAAAAAAAAAAAAAAAAAAAAAAAAAAAAAAAAAAAAAAAAAAAAAAAAAAAAAAAAAAAAAAAAAAAAAAAAAAAAAAAAAAAAAAAAAAAAAAAAAAAAAAAAAAAAAAAAAAAAAAAAAAAAAAAAAAAAAAAAAAAAAAAAAAAAAAAAAAAAAAAAAAAAAAAAAAAAAAAAAAAAAAAAAAAAAAAAAAAAAAAAAAAAAAAAAAAAAAAAAAAAAAAAAAAAAAAAAAAAAAAAAAAAAAAAAAAAAAAAAAAAAAAAAAAAAAAAAAAAAAAAAAAAAAAAAAD4ZA8OBAAAAACA/F8bQVVVVVVVVVVVVVVVVVVVVVVVVVVVVVVVVVVVVVVVVVVVVVVVVVVVVVVVVVVVVVVVVVVVVVVVVVVVVVVVVVVVVVVVVVVVVVVVVVVVVVVVVVVVVVVVVVVVVVVVVVVVVVVVVVVVVVVVVVVVVVVVVVVVVVVVVVVVVVVVVVVVVVVVVVVVVVVVVVVVVVVVVVVVVVVVVVVVVVVVVVVVVVVVVVVVVVVVVVVVVVVVVVVVVVVVVVVVVVVVVVVVVVVVVVVVVVVVVVVVVVVVVVVVVVVVVVVVVVVVVVVVVVVVVVVVVVVVVVVVVVVVVVVVVVVVVVVVVVVVVVVVVVVVVVVVVVVVVVVVVVVVVVVVVVVVVVVVVVVVVVVVVVVVVVVVVVVVVVVVVVVVVVVVVVVVVVVVVVVVVVVVVVVVVVVVVVVVVVVVVVVVVVVVVVVVVVVVVVVVVVVVVVVVVVVVVVVVVVVVVVVVVVVVVVVVVVVVVVVVVVVVVVVVVVVVVVVVVVVVVVVVVVVVVVVVVVVVVVVVVVVVVVVVVVVVVVVVVVVVVVVVVVVVVVVVVVVVVVVVVVVVVVVVVVVVVVVVVVVVVVVVVVVVVVVVVVVVVVVVVVVVVVVVVVVVVVVVVVVVVVVVVVVVVVVVVVVVVVVVVVVVVVVVVVVVVVVVVVVVVVVVVVVVVVVVVVVVVVVVVVWFPTgQAAAAAADyf20EVVVVVVVVVVVVVVVVVVVVVVVVVVVVVVVVVVVVVVVVVVVVVVVVVVVVVVVVVVVVVVVVVVVVVVVVVVVVVVVVVVVVVVVVVVVVVVVVVVVVVVVVVVVVVVVVVVVVVVVVVVVVVVVVVVVVVVVVVVVVVVVVVVVVVVVVVVVVVVVVVVVVVVVVVVVVVVVVVVVVVVVVVVVVVVVVVVVVVVVVVVVVVVVVVVVVVVVVVVVVVVVVVVVVVVVVVVVVVVVVVVVVVVVVVVVVVVVVVVVVVVVVVVVVVVVVVVVVVVVVVVVVVVVVVVVVVVVVVVVVVVVVVVVVVVVVVVVVVVVVVVVVVVVVVVVVVVVVVVVVVVVVVVVVVVVVVVVVVVVVVVVVVVVVVVVVVVVVVVVVVVVVVVVVVVVVVVVVVVVVVVVVVVVVVVVVVVVVVVVVVVVVVVVVVVVVVVVVVVVVVVVVVVVVVVVVVVVVVVVVVVVVVVVVVVVVVVVVVVVVVVVVVVVVVVVVVVVVVVVVVVVVVVVVVVVVVVVVVVVVVVVVVVVVVVVVVVVVVVVVVVVVVVVVVVVVVVVVVVVVVVVVVVVVVVVVVVVVVVVVVVVVVVVVVVVVVVVVVVVVVVVVVVVVVVVVVVVVVVVVVVVVVVVVVVVVVVVVVVVVVVVVVVVVVVVVVVVVVVVVVVVVVVVVVVVVVVVVVVVVVZX24JAAAAAAQND/154wAgAAAAAAAAAAAAAAAAAAAAAAAAAAAAAAAAAAAAAAAAAAAAAAAAAAAAAAAAAAAAAAAAAAAAAAAAAAAAAAAAAAAAAAAAAAAAAAAAAAAAAAAAAAAAAAAAAAAAAAAAAAAAAAAAAAAAAAAAAAAAAAAAAAAAAAAAAAAAAAAAAAAAAAAAAAAAAAAAAAAAAAAAAAAAAAAAAAAAAAAAAAAAAAAAAAAAAAAAAAAAAAAAAAAAAAAAAAAAAAAAAAAAAAAAAAAAAAAAAAAAAAAAAAAAAAAAAAAAAAAAAAAAAAAAAAAAAAAAAAAAAAAAAAAAAAAAAAAAAAAAAAAAAAAAAAAAAAAAAAAAAAAAAAAAAAAAAAAAAAAAAAAAAAAAAAAAAAAAAAAAAAAAAAAAAAAAAAAAAAAAAAAAAAAAAAAAAAAAAAAAAAAAAAAAAAAAAAAAAAAAAAAAAAAAAAAAAAAAAAAAAAAAAAAAAAAAAAAAAAAAAAAAAAAAAAAMAp68Xh/UVWHukAAAAASUVORK5CYII=" vertex="1" parent="1">
                    <mxGeometry x="660" y="392" width="72.01" height="48" as="geometry"/>
                </mxCell>
            </root>
        </mxGraphModel>
    </diagram>
</mxfile>